<svg width="564" height="507" viewBox="0 0 564 507" fill="none" xmlns="http://www.w3.org/2000/svg">
<path d="M5.396 11.3H12.54V53.784L15.428 57.964H32.984V52.416H40.204V64.5H11.932L5.396 54.696V11.3ZM56.1983 11.3H84.3943V17.836H58.8583L56.8823 19.964V33.34H74.4383V39.876H56.8823V53.936L59.5423 57.964H84.3943V64.5H56.0463L49.7383 55V17.912L56.1983 11.3ZM100.541 11.3H122.277L127.749 19.508L123.113 24.144L118.857 17.836H103.201L101.225 19.888V54.24L103.657 57.964H121.669V39.42H110.953V32.884H125.469L128.813 37.976V64.5H100.237L94.1566 55.38V17.988L100.541 11.3ZM152.407 11.3H173.231V64.5H166.087V40.712H146.859V64.5H139.791V24.296L152.407 11.3ZM146.859 26.12V34.176H166.087V17.836H154.991L146.859 26.12ZM191.353 11.3H213.241L218.637 19.432L214.001 24.296L209.745 17.836H194.089L192.037 20.04V53.936L194.773 57.964H210.277L215.141 53.176L218.789 58.572L213.165 64.5H191.277L184.893 55V17.912L191.353 11.3ZM255.76 11.3H262.98V24.524L249.148 38.736V64.5H242.004V39.42L228.248 18.976V11.3H235.392V17.988L245.5 33.036H245.652L255.76 22.472V11.3ZM11.932 87.3H33.896L38.304 94.064L33.668 98.624L30.4 93.836H14.668L12.692 95.888V105.388L15.428 109.492H34.58L40.204 117.928V134.648L34.58 140.5H9.12L5.396 135.256L9.956 130.468L12.464 133.964H31.616L33.06 132.672V118.84L31.084 115.952H11.856L5.548 106.528V93.912L11.932 87.3ZM77.4783 87.3H84.6983V100.524L70.8663 114.736V140.5H63.7223V115.42L49.9663 94.976V87.3H57.1103V93.988L67.2183 109.036H67.3703L77.4783 98.472V87.3ZM101.073 87.3H123.037L127.445 94.064L122.809 98.624L119.541 93.836H103.809L101.833 95.888V105.388L104.569 109.492H123.721L129.345 117.928V134.648L123.721 140.5H98.2606L94.5366 135.256L99.0966 130.468L101.605 133.964H120.757L122.201 132.672V118.84L120.225 115.952H100.997L94.6886 106.528V93.912L101.073 87.3ZM136.675 87.3H176.347V93.836H154.535L160.159 97.712V140.5H152.939V98.928L150.279 93.836H136.675V87.3ZM189.909 87.3H218.105V93.836H192.569L190.593 95.964V109.34H208.149V115.876H190.593V129.936L193.253 133.964H218.105V140.5H189.757L183.449 131V93.912L189.909 87.3ZM228.324 87.3H235.468V88.972L243.448 100.828L255.836 87.3H263.056V140.5H255.836V96.724L248.844 104.4V110.556H242.232V110.1L235.468 100.068V140.5H228.324V87.3ZM279.354 87.3H301.318L305.726 94.064L301.09 98.624L297.822 93.836H282.09L280.114 95.888V105.388L282.85 109.492H302.002L307.626 117.928V134.648L302.002 140.5H276.542L272.818 135.256L277.378 130.468L279.886 133.964H299.038L300.482 132.672V118.84L298.506 115.952H279.278L272.97 106.528V93.912L279.354 87.3ZM11.932 163.3H33.896L38.304 170.064L33.668 174.624L30.4 169.836H14.668L12.692 171.888V181.388L15.428 185.492H34.58L40.204 193.928V210.648L34.58 216.5H9.12L5.396 211.256L9.956 206.468L12.464 209.964H31.616L33.06 208.672V194.84L31.084 191.952H11.856L5.548 182.528V169.912L11.932 163.3ZM47.5343 163.3H87.2063V169.836H65.3943L71.0183 173.712V216.5H63.7983V174.928L61.1383 169.836H47.5343V163.3ZM107.837 163.3H128.661V216.5H121.517V192.712H102.289V216.5H95.2206V176.296L107.837 163.3ZM102.289 178.12V186.176H121.517V169.836H110.421L102.289 178.12ZM139.107 163.3H146.251V205.784L149.139 209.964H166.695V204.416H173.915V216.5H145.643L139.107 206.696V163.3ZM183.677 163.3H190.821V205.784L193.709 209.964H211.265V204.416H218.485V216.5H190.213L183.677 206.696V163.3ZM239.648 216.5V204.416H251.656V216.5H239.648Z" fill="#EF4D4D"/>
<path d="M5.472 289.3H33.82L40.128 298.8V311.492L33.744 317.952H12.616V342.5H5.472V289.3ZM12.616 295.836V314.76L18.164 311.492H30.932L32.984 309.44V299.94L30.324 295.836H12.616ZM49.9663 289.3H76.3383L84.7743 301.612V309.592L77.4023 317.116L84.7743 327.832V342.5H77.5543V328.82L70.1823 317.952H62.4303L57.1103 314.684V342.5H49.9663V289.3ZM57.1103 295.836V311.416H73.9823L77.5543 307.844V302.752L72.7663 295.836H57.1103ZM101.073 289.3H123.037L129.269 298.8V335.888L122.961 342.5H100.997L94.6126 333V295.912L101.073 289.3ZM101.681 331.936L104.417 335.964H120.149L122.125 333.836V299.864L119.465 295.836H103.733L101.681 297.964V331.936ZM139.183 289.3H146.327V290.972L154.307 302.828L166.695 289.3H173.915V342.5H166.695V298.724L159.703 306.4V312.556H153.091V312.1L146.327 302.068V342.5H139.183V289.3ZM183.753 289.3H212.101L218.409 298.8V311.492L212.025 317.952H190.897V342.5H183.753V289.3ZM190.897 295.836V314.76L196.445 311.492H209.213L211.265 309.44V299.94L208.605 295.836H190.897ZM225.816 289.3H265.488V295.836H243.676L249.3 299.712V342.5H242.08V300.928L239.42 295.836H225.816V289.3ZM272.894 289.3H307.55V295.836H293.794V335.964H307.55V342.5H272.894V335.964H286.65V295.836H272.894V289.3ZM344.976 289.3H352.196V342.5H344.976V323.424L326.812 296.292H324.608V342.5H317.464V289.3H330.232L344.976 311.568V289.3ZM367.963 289.3H389.699L395.171 297.508L390.535 302.144L386.279 295.836H370.623L368.647 297.888V332.24L371.079 335.964H389.091V317.42H378.375V310.884H392.891L396.235 315.976V342.5H367.659L361.578 333.38V295.988L367.963 289.3ZM6.232 365.3H30.476L40.964 380.956V411.888L34.58 418.5H6.232V365.3ZM13.376 371.836V412.04H31.616L33.744 409.836V382.02L26.904 371.836H13.376ZM56.5023 365.3H78.4663L84.6983 374.8V411.888L78.3903 418.5H56.4263L50.0423 409V371.912L56.5023 365.3ZM57.1103 407.936L59.8463 411.964H75.5783L77.5543 409.836V375.864L74.8943 371.836H59.1623L57.1103 373.964V407.936ZM100.769 365.3H128.965V371.836H103.429L101.453 373.964V387.34H119.009V393.876H101.453V407.936L104.113 411.964H128.965V418.5H100.617L94.3086 409V371.912L100.769 365.3ZM145.643 365.3H167.607L172.015 372.064L167.379 376.624L164.111 371.836H148.379L146.403 373.888V383.388L149.139 387.492H168.291L173.915 395.928V412.648L168.291 418.5H142.831L139.107 413.256L143.667 408.468L146.175 411.964H165.327L166.771 410.672V396.84L164.795 393.952H145.567L139.259 384.528V371.912L145.643 365.3ZM211.265 365.3H218.485V418.5H211.265V399.424L193.101 372.292H190.897V418.5H183.753V365.3H196.521L211.265 387.568V365.3ZM239.8 362.792H251.504V383.388L244.284 390.684L240.636 384.984L244.36 381.108V373.888H239.8V362.792ZM270.386 365.3H310.058V371.836H288.246L293.87 375.712V418.5H286.65V376.928L283.99 371.836H270.386V365.3ZM11.932 441.3H33.896L38.304 448.064L33.668 452.624L30.4 447.836H14.668L12.692 449.888V459.388L15.428 463.492H34.58L40.204 471.928V488.648L34.58 494.5H9.12L5.396 489.256L9.956 484.468L12.464 487.964H31.616L33.06 486.672V472.84L31.084 469.952H11.856L5.548 460.528V447.912L11.932 441.3ZM57.6423 441.3H79.5303L84.9263 449.432L80.2903 454.296L76.0343 447.836H60.3783L58.3263 450.04V483.936L61.0623 487.964H76.5663L81.4303 483.176L85.0783 488.572L79.4543 494.5H57.5663L51.1823 485V447.912L57.6423 441.3ZM107.837 441.3H128.661V494.5H121.517V470.712H102.289V494.5H95.2206V454.296L107.837 441.3ZM102.289 456.12V464.176H121.517V447.836H110.421L102.289 456.12ZM139.107 441.3H146.251V483.784L149.139 487.964H166.695V482.416H173.915V494.5H145.643L139.107 484.696V441.3ZM189.909 441.3H218.105V447.836H192.569L190.593 449.964V463.34H208.149V469.876H190.593V483.936L193.253 487.964H218.105V494.5H189.757L183.449 485V447.912L189.909 441.3ZM239.648 494.5V482.416H251.656V494.5H239.648Z" fill="#EF4D4D"/>
</svg>
