<svg width="1920" height="297" viewBox="0 0 1920 297" fill="none" xmlns="http://www.w3.org/2000/svg">
<path opacity="0.3" d="M2.2 296L107.4 3.99999H173.8L282.2 296H241.8L143.8 29.6L163 39.2H115.8L136.2 29.6L41.4 296H2.2ZM65 208.8L78.2 173.6H204.2L217.4 208.8H65ZM400.8 302.4C375.467 302.4 356 294.133 342.4 277.6C328.8 261.067 322 237.2 322 206V82H360.4V213.6C360.4 230.4 364.933 243.6 374 253.2C383.067 262.533 395.333 267.2 410.8 267.2C426.8 267.2 439.867 262.133 450 252C460.133 241.6 465.2 227.467 465.2 209.6V82H503.6V296H473.2V204.4H478C478 225.467 475.2 243.333 469.6 258C464 272.4 455.6 283.467 444.4 291.2C433.467 298.667 419.467 302.4 402.4 302.4H400.8ZM660.172 298.4C644.172 298.4 630.305 296.133 618.572 291.6C607.105 287.067 598.172 279.333 591.772 268.4C585.639 257.2 582.572 242.133 582.572 223.2V17.6H619.372V228C619.372 239.467 622.439 248.4 628.572 254.8C634.972 260.933 643.905 264 655.372 264H692.972V298.4H660.172ZM545.772 111.2V82.4H692.972V111.2H545.772ZM843.122 303.2C824.455 303.2 808.055 300 793.922 293.6C779.789 287.2 767.789 278.8 757.922 268.4C748.322 257.733 740.989 245.867 735.922 232.8C731.122 219.733 728.722 206.4 728.722 192.8V185.6C728.722 172 731.255 158.667 736.322 145.6C741.389 132.267 748.855 120.4 758.722 110C768.589 99.3333 780.589 90.9333 794.722 84.8C808.855 78.4 824.989 75.2 843.122 75.2C861.255 75.2 877.389 78.4 891.522 84.8C905.655 90.9333 917.655 99.3333 927.522 110C937.389 120.4 944.855 132.267 949.922 145.6C954.989 158.667 957.522 172 957.522 185.6V192.8C957.522 206.4 954.989 219.733 949.922 232.8C945.122 245.867 937.789 257.733 927.922 268.4C918.322 278.8 906.455 287.2 892.322 293.6C878.189 300 861.789 303.2 843.122 303.2ZM843.122 268.8C859.122 268.8 872.722 265.333 883.922 258.4C895.389 251.2 904.055 241.6 909.922 229.6C916.055 217.6 919.122 204.133 919.122 189.2C919.122 174 916.055 160.4 909.922 148.4C903.789 136.4 894.989 126.933 883.522 120C872.322 113.067 858.855 109.6 843.122 109.6C827.655 109.6 814.189 113.067 802.722 120C791.255 126.933 782.455 136.4 776.322 148.4C770.189 160.4 767.122 174 767.122 189.2C767.122 204.133 770.055 217.6 775.922 229.6C782.055 241.6 790.722 251.2 801.922 258.4C813.389 265.333 827.122 268.8 843.122 268.8ZM1014.03 376V82.4H1044.43V174.8L1037.23 174C1038.57 151.067 1043.37 132.4 1051.63 118C1060.17 103.333 1071.23 92.5333 1084.83 85.6C1098.43 78.6667 1113.23 75.2 1129.23 75.2C1144.7 75.2 1158.7 78.1333 1171.23 84C1184.03 89.8667 1194.97 97.8667 1204.03 108C1213.1 118.133 1220.03 129.867 1224.83 143.2C1229.63 156.533 1232.03 170.667 1232.03 185.6V192.8C1232.03 207.733 1229.5 221.867 1224.43 235.2C1219.37 248.533 1212.17 260.267 1202.83 270.4C1193.77 280.533 1182.83 288.533 1170.03 294.4C1157.5 300.267 1143.63 303.2 1128.43 303.2C1113.23 303.2 1098.7 299.867 1084.83 293.2C1070.97 286.533 1059.5 275.733 1050.43 260.8C1041.37 245.867 1036.17 226.267 1034.83 202L1052.43 234V376H1014.03ZM1122.43 269.6C1136.83 269.6 1149.37 266.267 1160.03 259.6C1170.7 252.667 1178.97 243.2 1184.83 231.2C1190.7 218.933 1193.63 204.933 1193.63 189.2C1193.63 173.2 1190.7 159.2 1184.83 147.2C1178.97 135.2 1170.7 125.867 1160.03 119.2C1149.37 112.267 1136.83 108.8 1122.43 108.8C1109.63 108.8 1097.77 111.733 1086.83 117.6C1075.9 123.2 1067.1 131.467 1060.43 142.4C1054.03 153.067 1050.83 166 1050.83 181.2V199.6C1050.83 214.267 1054.17 226.8 1060.83 237.2C1067.5 247.6 1076.3 255.6 1087.23 261.2C1098.17 266.8 1109.9 269.6 1122.43 269.6ZM1299.22 296V82.4H1337.62V296H1299.22ZM1266.42 112.8V82.4H1337.62V112.8H1266.42ZM1310.02 48C1301.48 48 1295.08 45.7333 1290.82 41.2C1286.82 36.6667 1284.82 30.9333 1284.82 24C1284.82 17.0667 1286.82 11.3333 1290.82 6.79998C1295.08 2.26666 1301.48 -3.8147e-06 1310.02 -3.8147e-06C1318.55 -3.8147e-06 1324.82 2.26666 1328.82 6.79998C1333.08 11.3333 1335.22 17.0667 1335.22 24C1335.22 30.9333 1333.08 36.6667 1328.82 41.2C1324.82 45.7333 1318.55 48 1310.02 48ZM1413.26 296V3.99999H1451.66V296H1413.26ZM1383.66 34.4V3.99999H1451.66V34.4H1383.66ZM1622.72 303.2C1604.05 303.2 1587.65 300 1573.52 293.6C1559.38 287.2 1547.38 278.8 1537.52 268.4C1527.92 257.733 1520.58 245.867 1515.52 232.8C1510.72 219.733 1508.32 206.4 1508.32 192.8V185.6C1508.32 172 1510.85 158.667 1515.92 145.6C1520.98 132.267 1528.45 120.4 1538.32 110C1548.18 99.3333 1560.18 90.9333 1574.32 84.8C1588.45 78.4 1604.58 75.2 1622.72 75.2C1640.85 75.2 1656.98 78.4 1671.12 84.8C1685.25 90.9333 1697.25 99.3333 1707.12 110C1716.98 120.4 1724.45 132.267 1729.52 145.6C1734.58 158.667 1737.12 172 1737.12 185.6V192.8C1737.12 206.4 1734.58 219.733 1729.52 232.8C1724.72 245.867 1717.38 257.733 1707.52 268.4C1697.92 278.8 1686.05 287.2 1671.92 293.6C1657.78 300 1641.38 303.2 1622.72 303.2ZM1622.72 268.8C1638.72 268.8 1652.32 265.333 1663.52 258.4C1674.98 251.2 1683.65 241.6 1689.52 229.6C1695.65 217.6 1698.72 204.133 1698.72 189.2C1698.72 174 1695.65 160.4 1689.52 148.4C1683.38 136.4 1674.58 126.933 1663.12 120C1651.92 113.067 1638.45 109.6 1622.72 109.6C1607.25 109.6 1593.78 113.067 1582.32 120C1570.85 126.933 1562.05 136.4 1555.92 148.4C1549.78 160.4 1546.72 174 1546.72 189.2C1546.72 204.133 1549.65 217.6 1555.52 229.6C1561.65 241.6 1570.32 251.2 1581.52 258.4C1592.98 265.333 1606.72 268.8 1622.72 268.8ZM1876.83 298.4C1860.83 298.4 1846.96 296.133 1835.23 291.6C1823.76 287.067 1814.83 279.333 1808.43 268.4C1802.29 257.2 1799.23 242.133 1799.23 223.2V17.6H1836.03V228C1836.03 239.467 1839.09 248.4 1845.23 254.8C1851.63 260.933 1860.56 264 1872.03 264H1909.63V298.4H1876.83ZM1762.43 111.2V82.4H1909.63V111.2H1762.43Z" fill="white"/>
</svg>
