<svg width="50" height="50" viewBox="0 0 50 50" fill="none" xmlns="http://www.w3.org/2000/svg">
<g clip-path="url(#clip0_18638_75739)">
<path d="M27.5391 0.390638C27.6384 0.438097 27.7377 0.485555 27.84 0.534452C29.2405 1.27962 30.2018 2.49123 30.6641 4.00392C30.8238 4.65973 30.8867 5.27802 30.8784 5.9517C30.878 6.08294 30.878 6.08294 30.8776 6.21682C30.8765 6.49239 30.8741 6.76792 30.8716 7.04347C30.8706 7.23192 30.8697 7.42036 30.8689 7.60881C30.8668 8.06735 30.8634 8.52586 30.8594 8.98439C30.9325 8.99668 31.0055 9.00897 31.0808 9.02163C31.3272 9.0774 31.4937 9.14267 31.7104 9.26744C31.7767 9.30561 31.843 9.34377 31.9113 9.3831C31.9811 9.42474 32.0509 9.46638 32.1228 9.50929C32.2328 9.57487 32.2328 9.57487 32.345 9.64178C35.4721 11.5462 37.6799 14.5288 38.7024 18.0298C38.7261 18.1101 38.7498 18.1903 38.7742 18.273C39.1656 19.6814 39.1994 21.0952 39.2415 22.5467C39.4084 28.1405 39.6515 34.925 43.5547 39.3555C43.6992 39.4744 43.8476 39.589 44.0002 39.6973C44.4148 40.0137 44.7725 40.2917 44.857 40.8363C44.8782 41.3232 44.8089 41.6781 44.5312 42.0899C44.13 42.461 43.8335 42.5905 43.2921 42.5899C43.198 42.59 43.104 42.5902 43.007 42.5903C42.8525 42.5898 42.8525 42.5898 42.6948 42.5892C42.5318 42.5892 42.5318 42.5893 42.3656 42.5893C42.0058 42.5892 41.6459 42.5884 41.2861 42.5877C41.0369 42.5875 40.7877 42.5874 40.5385 42.5873C39.9492 42.5869 39.3599 42.5862 38.7705 42.5852C38.0996 42.5841 37.4286 42.5835 36.7577 42.5831C35.3775 42.582 33.9973 42.5803 32.6172 42.5781C32.6112 42.6649 32.6053 42.7516 32.5992 42.8409C32.591 42.9549 32.5828 43.0689 32.5743 43.1864C32.5664 43.2993 32.5584 43.4122 32.5502 43.5285C32.4065 45.0223 31.6487 46.4557 30.6641 47.5586C30.5664 47.67 30.5664 47.67 30.4668 47.7837C29.2376 49.1018 27.4886 49.9665 25.6798 50.0328C23.4608 50.0635 21.615 49.6765 19.9219 48.1445C19.8478 48.0796 19.7738 48.0146 19.6976 47.9477C18.2949 46.6418 17.637 44.9345 17.3828 43.0664C17.381 42.9037 17.3807 42.7409 17.3828 42.5781C17.3261 42.5785 17.2693 42.5789 17.2109 42.5792C15.8284 42.5879 14.446 42.5943 13.0636 42.5984C12.3951 42.6004 11.7265 42.6031 11.058 42.6076C10.4128 42.6119 9.76759 42.6142 9.12235 42.6152C8.87624 42.6159 8.63013 42.6173 8.38402 42.6194C8.03918 42.6223 7.69441 42.6227 7.34956 42.6225C7.24792 42.6239 7.14627 42.6253 7.04155 42.6267C6.43007 42.6233 6.06575 42.5475 5.5664 42.1875C5.19469 41.7786 5.13899 41.382 5.15022 40.8463C5.19234 40.4817 5.32221 40.3123 5.5664 40.0391C5.71564 39.9214 5.86638 39.8057 6.01806 39.6912C9.1877 37.2187 9.91085 32.0545 10.3977 28.3608C10.5637 27.0061 10.6472 25.6547 10.6918 24.2912C10.6957 24.1763 10.6995 24.0614 10.7034 23.943C10.7221 23.368 10.7384 22.793 10.751 22.2178C10.8547 18.1856 12.1317 14.7347 14.9414 11.8164C15.009 11.7415 15.0766 11.6666 15.1463 11.5894C16.0996 10.5663 17.7412 9.238 19.1406 8.98439C19.1386 8.87128 19.1365 8.75817 19.1344 8.64164C19.1272 8.21429 19.1228 7.78695 19.1192 7.35957C19.1172 7.17604 19.1146 6.99252 19.1112 6.80901C19.0749 4.81016 19.3348 3.09886 20.7668 1.59036C22.4677 -0.0652808 25.3437 -0.664781 27.5391 0.390638ZM22.8088 3.85133C22.309 4.50219 22.1546 5.08739 22.1584 5.89792C22.1587 6.0153 22.1591 6.13269 22.1594 6.25364C22.1602 6.37531 22.161 6.49697 22.1619 6.62233C22.1623 6.74588 22.1627 6.86944 22.1632 6.99674C22.1643 7.30122 22.166 7.60569 22.168 7.91017C22.2796 7.89976 22.2796 7.89976 22.3935 7.88914C24.2377 7.72412 25.9855 7.72031 27.832 7.91017C27.8406 7.48904 27.8458 7.06793 27.8503 6.64674C27.8528 6.52835 27.8552 6.40995 27.8578 6.28797C27.8654 5.34615 27.7625 4.55548 27.1484 3.80861C26.2596 3.02994 25.4772 2.93701 24.3294 3.00409C23.6947 3.07498 23.2316 3.39068 22.8088 3.85133ZM21.7773 11.1328C21.7108 11.1538 21.6442 11.1747 21.5756 11.1962C18.6844 12.1275 16.3679 14.1935 14.9818 16.8792C14.0406 18.7716 13.8318 20.6698 13.7784 22.7513C13.7633 23.3275 13.7433 23.9036 13.723 24.4797C13.719 24.5929 13.715 24.7061 13.7109 24.8227C13.5304 29.6868 12.8235 34.8458 10.3725 39.1308C10.2387 39.3419 10.2387 39.3419 10.2539 39.5508C20.0185 39.5508 29.7832 39.5508 39.8437 39.5508C39.457 38.8257 39.457 38.8257 39.0625 38.086C37.0781 33.8692 36.4371 29.1746 36.277 24.5552C36.273 24.4389 36.2689 24.3226 36.2648 24.2028C36.2452 23.62 36.2277 23.0373 36.2131 22.4544C36.1352 19.6443 35.5422 16.8895 33.5937 14.7461C33.4884 14.6236 33.4884 14.6236 33.3809 14.4985C31.6122 12.4697 29.1503 11.0863 26.4648 10.7422C25.9905 10.7114 25.518 10.7049 25.0427 10.7056C24.9784 10.7056 24.914 10.7057 24.8477 10.7057C23.7753 10.7098 22.7972 10.8023 21.7773 11.1328ZM20.4102 42.5781C20.6513 44.1456 21.061 45.1477 22.2809 46.1731C23.3607 46.9556 24.5813 47.1167 25.8789 46.9727C26.2683 46.8893 26.5993 46.7629 26.9531 46.582C27.036 46.5418 27.1188 46.5015 27.2041 46.46C28.2415 45.9016 29.0188 44.965 29.3945 43.8477C29.459 43.4287 29.5234 43.0098 29.5898 42.5781C26.5605 42.5781 23.5312 42.5781 20.4102 42.5781Z" fill="white"/>
</g>
<defs>
<clipPath id="clip0_18638_75739">
<rect width="50" height="50" fill="white"/>
</clipPath>
</defs>
</svg>
