<svg width="40" height="41" viewBox="0 0 40 41" fill="none" xmlns="http://www.w3.org/2000/svg">
<path d="M36.0025 0.5H3.9975C2.93851 0.503951 1.92403 0.926384 1.17521 1.67521C0.426384 2.42403 0.00395148 3.43851 0 4.4975L0 36.5025C0.00395148 37.5615 0.426384 38.576 1.17521 39.3248C1.92403 40.0736 2.93851 40.496 3.9975 40.5H36.0025C37.0615 40.496 38.076 40.0736 38.8248 39.3248C39.5736 38.576 39.996 37.5615 40 36.5025V4.4975C39.996 3.43851 39.5736 2.42403 38.8248 1.67521C38.076 0.926384 37.0615 0.503951 36.0025 0.5ZM11.745 24.6075C12.1648 24.7991 12.6182 24.9062 13.0794 24.9225C13.5406 24.9389 14.0005 24.8641 14.4328 24.7027C14.8651 24.5412 15.2613 24.2961 15.5989 23.9815C15.9364 23.6668 16.2086 23.2887 16.4 22.8688H19.1675C17.4425 29.9325 7.045 28.6825 7.045 21.41C7.045 14.1313 17.4425 12.8812 19.1675 19.9513H16.4C15.3837 17.7188 12.4487 17.1838 10.7162 18.9225C8.9775 20.6537 9.51125 23.5912 11.745 24.6075ZM30.6512 26.0137C30.1276 26.4671 29.528 26.8242 28.88 27.0687C27.9575 27.4263 26.9622 27.5551 25.9791 27.444C24.996 27.333 24.0545 26.9855 23.235 26.4313V27.0687H20.715V9.45125H23.215V16.3C24.1083 15.6976 25.1422 15.3363 26.2162 15.2512H26.665C32.355 15.2387 34.9725 22.3212 30.65 26.0125L30.6512 26.0137ZM30.28 21.405C30.2888 21.8709 30.2046 22.334 30.0324 22.767C29.8602 23.2 29.6034 23.5944 29.277 23.927C28.9506 24.2596 28.5611 24.5238 28.1314 24.7042C27.7017 24.8846 27.2404 24.9775 26.7744 24.9775C26.3084 24.9775 25.847 24.8846 25.4173 24.7042C24.9876 24.5238 24.5982 24.2596 24.2718 23.927C23.9454 23.5944 23.6886 23.2 23.5163 22.767C23.3441 22.334 23.26 21.8709 23.2687 21.405C23.3662 16.835 30.1763 16.835 30.28 21.405Z" fill="white"/>
</svg>
