<svg width="50" height="50" viewBox="0 0 50 50" fill="none" xmlns="http://www.w3.org/2000/svg">
<g clip-path="url(#clip0_18638_75860)">
<path d="M39.6484 0C43.0645 0 46.4805 0 50 0C50 16.5 50 33 50 50C46.584 50 43.168 50 39.6484 50C39.6484 33.5 39.6484 17 39.6484 0ZM42.6758 2.92969C42.6758 17.4961 42.6758 32.0625 42.6758 47.0703C44.126 47.0703 45.5762 47.0703 47.0703 47.0703C47.0703 32.5039 47.0703 17.9375 47.0703 2.92969C45.6201 2.92969 44.1699 2.92969 42.6758 2.92969Z" fill="white"/>
<path d="M26.4648 8.78906C29.8809 8.78906 33.2969 8.78906 36.8164 8.78906C36.8164 22.3887 36.8164 35.9883 36.8164 50C33.4004 50 29.9844 50 26.4648 50C26.4648 36.4004 26.4648 22.8008 26.4648 8.78906ZM29.3945 11.7188C29.3945 23.3848 29.3945 35.0508 29.3945 47.0703C30.8447 47.0703 32.2949 47.0703 33.7891 47.0703C33.7891 35.4043 33.7891 23.7383 33.7891 11.7188C32.3389 11.7188 30.8887 11.7188 29.3945 11.7188Z" fill="white"/>
<path d="M13.1836 17.5781C16.5996 17.5781 20.0156 17.5781 23.5352 17.5781C23.5352 28.2773 23.5352 38.9766 23.5352 50C20.1191 50 16.7031 50 13.1836 50C13.1836 39.3008 13.1836 28.6016 13.1836 17.5781ZM16.2109 20.5078C16.2109 29.2734 16.2109 38.0391 16.2109 47.0703C17.6611 47.0703 19.1113 47.0703 20.6055 47.0703C20.6055 38.3047 20.6055 29.5391 20.6055 20.5078C19.1553 20.5078 17.7051 20.5078 16.2109 20.5078Z" fill="white"/>
<path d="M0 26.3672C3.41602 26.3672 6.83203 26.3672 10.3516 26.3672C10.3516 34.166 10.3516 41.9648 10.3516 50C6.93555 50 3.51953 50 0 50C0 42.2012 0 34.4023 0 26.3672ZM2.92969 29.2969C2.92969 35.1621 2.92969 41.0273 2.92969 47.0703C4.37988 47.0703 5.83008 47.0703 7.32422 47.0703C7.32422 41.2051 7.32422 35.3398 7.32422 29.2969C5.87402 29.2969 4.42383 29.2969 2.92969 29.2969Z" fill="white"/>
</g>
<defs>
<clipPath id="clip0_18638_75860">
<rect width="50" height="50" fill="white"/>
</clipPath>
</defs>
</svg>
