<svg width="50" height="50" viewBox="0 0 50 50" fill="none" xmlns="http://www.w3.org/2000/svg">
<g clip-path="url(#clip0_18638_75758)">
<path d="M17.5999 18.7215C17.7781 18.7209 17.9563 18.7203 18.1344 18.7195C18.6159 18.7178 19.0974 18.7174 19.5788 18.7172C19.8805 18.7171 20.1822 18.7167 20.4839 18.7162C21.5389 18.7143 22.5939 18.7135 23.649 18.7137C24.6282 18.7138 25.6074 18.7118 26.5867 18.7087C27.4308 18.7061 28.2748 18.7051 29.1189 18.7052C29.6215 18.7052 30.1242 18.7047 30.6268 18.7026C31.1003 18.7007 31.5737 18.7007 32.0472 18.7021C32.2196 18.7023 32.3919 18.7019 32.5642 18.7007C35.3865 18.6824 37.7916 19.6178 39.8439 21.5819C41.7341 23.4801 42.6085 25.9207 42.6067 28.5691C42.6073 28.7088 42.6079 28.8485 42.6087 28.9882C42.6104 29.3648 42.6109 29.7413 42.611 30.1179C42.6111 30.3541 42.6115 30.5904 42.6121 30.8266C42.6139 31.6537 42.6147 32.4808 42.6145 33.3079C42.6144 34.0741 42.6164 34.8403 42.6195 35.6065C42.6221 36.2682 42.6231 36.9298 42.623 37.5914C42.623 37.9849 42.6235 38.3783 42.6256 38.7718C42.642 42.0863 42.1159 44.7896 39.7463 47.2655C38.5866 48.4203 37.1327 49.285 35.5471 49.7069C35.4123 49.743 35.4123 49.743 35.2748 49.7798C34.296 50.0161 33.3692 50.0422 32.3672 50.0394C32.189 50.0399 32.0108 50.0406 31.8325 50.0414C31.3523 50.0431 30.8721 50.043 30.3919 50.0425C29.9891 50.0422 29.5863 50.0428 29.1835 50.0434C28.2321 50.0447 27.2807 50.0446 26.3293 50.0435C25.3522 50.0423 24.3752 50.0437 23.3981 50.0463C22.5552 50.0485 21.7124 50.0491 20.8696 50.0486C20.3679 50.0482 19.8663 50.0485 19.3647 50.0502C18.8923 50.0517 18.4201 50.0513 17.9478 50.0494C17.7759 50.0491 17.6041 50.0494 17.4322 50.0504C14.6116 50.0661 12.2076 49.1309 10.1564 47.1679C8.40361 45.4076 7.40114 43.0177 7.38128 40.5337C7.38172 40.4062 7.38216 40.2787 7.38261 40.1474C7.38205 40.0076 7.38137 39.8679 7.38058 39.7282C7.37885 39.3528 7.37894 38.9775 7.3795 38.6022C7.37981 38.2868 7.3792 37.9714 7.37862 37.6559C7.37725 36.9106 7.37739 36.1652 7.37851 35.4198C7.37963 34.6558 7.37826 33.8917 7.37564 33.1276C7.37346 32.4672 7.37283 31.8069 7.3734 31.1465C7.37373 30.754 7.37351 30.3615 7.37181 29.9691C7.35882 26.6493 7.88642 23.9582 10.2541 21.4843C12.2812 19.4657 14.8002 18.7197 17.5999 18.7215ZM12.7844 24.6764C11.5298 26.1952 11.3133 27.7904 11.3141 29.69C11.3138 29.8021 11.3135 29.9142 11.3131 30.0297C11.3122 30.3973 11.312 30.7648 11.3119 31.1324C11.3116 31.3901 11.3113 31.6478 11.3109 31.9055C11.3103 32.4446 11.3102 32.9837 11.3102 33.5229C11.3103 34.1423 11.3093 34.7618 11.3077 35.3812C11.3063 35.9814 11.3059 36.5817 11.306 37.1819C11.3059 37.4352 11.3054 37.6886 11.3047 37.942C11.2979 40.4545 11.3534 42.5232 13.1655 44.4579C14.7332 45.9436 16.5769 46.1086 18.6315 46.1078C18.7852 46.1081 18.939 46.1085 19.0928 46.1088C19.5081 46.1097 19.9234 46.1099 20.3386 46.11C20.5988 46.1101 20.8589 46.1103 21.1191 46.1105C22.0286 46.1114 22.9382 46.1118 23.8478 46.1117C24.6924 46.1117 25.537 46.1127 26.3816 46.1143C27.1095 46.1155 27.8374 46.1161 28.5652 46.116C28.9988 46.116 29.4323 46.1162 29.8658 46.1173C30.274 46.1182 30.6821 46.1182 31.0903 46.1175C31.239 46.1174 31.3877 46.1176 31.5364 46.1182C33.7041 46.1264 35.4182 45.7721 37.0363 44.2565C38.8263 42.3785 38.7024 39.9989 38.698 37.5792C38.6981 37.3221 38.6983 37.065 38.6986 36.8078C38.6989 36.271 38.6985 35.7342 38.6975 35.1974C38.6965 34.5809 38.6968 33.9643 38.6979 33.3477C38.6989 32.7494 38.6988 32.1511 38.6982 31.5527C38.6981 31.3004 38.6982 31.0482 38.6987 30.7959C38.7022 28.2874 38.6378 26.2398 36.8471 24.298C35.2652 22.7933 33.4335 22.6412 31.3689 22.642C31.2151 22.6417 31.0613 22.6413 30.9076 22.641C30.4923 22.6401 30.077 22.6399 29.6618 22.6398C29.4016 22.6397 29.1415 22.6395 28.8813 22.6393C27.9718 22.6384 27.0622 22.638 26.1526 22.638C25.308 22.6381 24.4634 22.6371 23.6188 22.6355C22.8909 22.6343 22.163 22.6337 21.4351 22.6338C21.0016 22.6338 20.5681 22.6336 20.1346 22.6325C19.7264 22.6316 19.3183 22.6316 18.9101 22.6323C18.7614 22.6324 18.6127 22.6321 18.464 22.6315C16.2342 22.6232 14.3722 23.0071 12.7844 24.6764Z" fill="white"/>
<path d="M28.4181 0.976579C29.6559 1.93992 30.5917 3.20839 30.8595 4.78517C31.013 6.52908 30.7812 8.12323 29.6808 9.53714C28.9642 10.3648 28.167 11.008 27.1486 11.4258C27.0841 11.4258 27.0197 11.4258 26.9533 11.4258C26.9563 11.5099 26.9594 11.5941 26.9626 11.6808C26.9726 11.9969 26.9799 12.313 26.9854 12.6292C26.9884 12.7653 26.9924 12.9014 26.9975 13.0375C27.026 13.8172 27.0208 14.4325 26.5228 15.0711C26.0488 15.5688 25.686 15.652 25.0123 15.6861C24.4437 15.6685 24.0801 15.5643 23.62 15.234C22.9403 14.5074 22.9993 13.7912 23.0226 12.8479C23.0246 12.7099 23.0263 12.5719 23.0279 12.4338C23.0322 12.0978 23.0389 11.7618 23.047 11.4258C22.9561 11.3963 22.8652 11.3669 22.7715 11.3365C21.3736 10.859 20.3621 9.84199 19.6969 8.54914C19.0379 7.1719 18.8773 5.568 19.2995 4.08327C19.9033 2.4674 20.9502 1.20727 22.516 0.45778C24.4216 -0.410571 26.6867 -0.181105 28.4181 0.976579ZM23.34 4.8401C23.0554 5.35212 23.0513 5.87669 23.1447 6.44533C23.3356 6.9771 23.6909 7.35838 24.1826 7.6317C24.7172 7.82367 25.2831 7.82367 25.8176 7.6317C26.3094 7.35838 26.6646 6.9771 26.8556 6.44533C26.949 5.87669 26.9449 5.35212 26.6603 4.8401C26.2984 4.35731 25.9051 4.05631 25.3026 3.95738C24.4386 3.91598 23.8616 4.14409 23.34 4.8401Z" fill="white"/>
<path d="M49.0006 26.6706C49.475 26.9635 49.8007 27.3035 50.0001 27.8321C50.0581 28.2537 50.0555 28.672 50.0537 29.097C50.0552 29.2865 50.0552 29.2865 50.0568 29.4798C50.0594 29.8249 50.0595 30.1699 50.059 30.5149C50.0588 30.8037 50.0597 31.0925 50.0607 31.3812C50.0628 32.0629 50.0629 32.7446 50.0617 33.4263C50.0606 34.1279 50.063 34.8294 50.0671 35.531C50.0706 36.1349 50.0717 36.7387 50.0711 37.3426C50.0708 37.7026 50.0713 38.0626 50.074 38.4226C50.0769 38.8244 50.0751 39.2261 50.0728 39.6279C50.075 39.8051 50.075 39.8051 50.0773 39.9859C50.0679 40.7424 49.9255 41.2289 49.4142 41.797C48.89 42.2447 48.3798 42.2585 47.7006 42.2376C47.1947 42.1626 46.8336 41.9749 46.4845 41.6017C46.0215 40.9757 46.0371 40.4146 46.0402 39.6532C46.0392 39.5268 46.0382 39.4005 46.0372 39.2704C46.0346 38.9253 46.0344 38.5803 46.0349 38.2353C46.0352 37.9465 46.0342 37.6577 46.0333 37.3689C46.0311 36.6872 46.031 36.0056 46.0322 35.3239C46.0334 34.6223 46.031 33.9208 46.0268 33.2192C46.0234 32.6153 46.0222 32.0115 46.0228 31.4076C46.0232 31.0476 46.0227 30.6876 46.02 30.3276C46.017 29.9258 46.0189 29.5241 46.0211 29.1223C46.0196 29.0042 46.0181 28.886 46.0166 28.7643C46.026 28.0078 46.1685 27.5213 46.6798 26.9532C47.3119 26.4133 48.2341 26.3641 49.0006 26.6706Z" fill="white"/>
<path d="M2.90689 26.6706C3.38123 26.9635 3.70695 27.3035 3.90634 27.8321C3.96435 28.2537 3.96172 28.672 3.95999 29.097C3.96148 29.2865 3.96148 29.2865 3.96301 29.4798C3.96562 29.8249 3.96574 30.1699 3.96525 30.5149C3.96504 30.8037 3.96599 31.0925 3.96693 31.3812C3.96909 32.0629 3.96918 32.7446 3.968 33.4263C3.96682 34.1279 3.96922 34.8294 3.97338 35.531C3.97683 36.1349 3.97799 36.7387 3.97736 37.3426C3.97701 37.7026 3.97751 38.0626 3.98023 38.4226C3.98316 38.8244 3.98132 39.2261 3.97906 39.6279C3.9813 39.8051 3.9813 39.8051 3.98358 39.9859C3.97419 40.7424 3.83171 41.2289 3.32041 41.797C2.79625 42.2447 2.28609 42.2585 1.60684 42.2376C1.10091 42.1626 0.73985 41.9749 0.390718 41.6017C-0.0722959 40.9757 -0.0566596 40.4146 -0.053551 39.6532C-0.0545492 39.5268 -0.0555474 39.4005 -0.0565759 39.2704C-0.0591813 38.9253 -0.0593052 38.5803 -0.0588096 38.2353C-0.0586 37.9465 -0.0595563 37.6577 -0.0604904 37.3689C-0.0626541 36.6872 -0.0627448 36.0056 -0.0615618 35.3239C-0.0603826 34.6223 -0.0627862 33.9208 -0.0669465 33.2192C-0.0703949 32.6153 -0.0715582 32.0115 -0.0709237 31.4076C-0.0705707 31.0476 -0.0710726 30.6876 -0.0737975 30.3276C-0.0767255 29.9258 -0.0748864 29.5241 -0.0726244 29.1223C-0.0741174 29.0042 -0.0756103 28.886 -0.0771484 28.7643C-0.0677538 28.0078 0.0747262 27.5213 0.586031 26.9532C1.21815 26.4133 2.14032 26.3641 2.90689 26.6706Z" fill="white"/>
<path d="M21.3163 38.2277C21.4046 38.2267 21.4928 38.2257 21.5837 38.2246C21.8738 38.2219 22.1638 38.2221 22.4539 38.2226C22.6566 38.2218 22.8594 38.221 23.0621 38.22C23.4865 38.2186 23.9109 38.2186 24.3353 38.2197C24.8777 38.2208 25.4199 38.2175 25.9623 38.2129C26.3808 38.2101 26.7994 38.2099 27.218 38.2105C27.4179 38.2104 27.6177 38.2094 27.8176 38.2074C29.7028 38.1911 29.7028 38.1911 30.3247 38.713C30.8744 39.3023 30.9339 39.7803 30.9092 40.5808C30.8342 41.0867 30.6465 41.4478 30.2733 41.7969C29.7277 42.1701 29.3369 42.2451 28.6834 42.2412C28.551 42.2427 28.551 42.2427 28.416 42.2442C28.1259 42.2469 27.8359 42.2468 27.5458 42.2463C27.343 42.2471 27.1403 42.2479 26.9376 42.2488C26.5132 42.2503 26.0888 42.2502 25.6644 42.2492C25.122 42.2481 24.5798 42.2514 24.0374 42.2559C23.6188 42.2588 23.2003 42.259 22.7817 42.2584C22.5818 42.2585 22.382 42.2595 22.1821 42.2614C20.2969 42.2778 20.2969 42.2778 19.675 41.7559C19.1253 41.1666 19.0658 40.6885 19.0905 39.8881C19.1655 39.3821 19.3532 39.0211 19.7264 38.6719C20.272 38.2988 20.6628 38.2238 21.3163 38.2277Z" fill="white"/>
<path d="M29.4121 26.5037C29.5831 26.5025 29.5831 26.5025 29.7576 26.5012C29.9981 26.5001 30.2386 26.5 30.4791 26.5008C30.8454 26.5014 31.2114 26.4969 31.5777 26.4919C31.8121 26.4915 32.0464 26.4913 32.2808 26.4915C32.3895 26.4897 32.4981 26.4879 32.6101 26.4861C33.3488 26.4948 33.8188 26.6551 34.3751 27.1484C34.8228 27.6726 34.8366 28.1827 34.8157 28.862C34.7407 29.3679 34.553 29.729 34.1797 30.0781C33.5698 30.521 33.0467 30.5287 32.3067 30.5275C32.1927 30.5283 32.0787 30.5292 31.9613 30.53C31.7208 30.5311 31.4803 30.5312 31.2398 30.5304C30.8735 30.5298 30.5074 30.5344 30.1411 30.5393C29.9068 30.5398 29.6724 30.5399 29.4381 30.5397C29.3294 30.5415 29.2207 30.5433 29.1088 30.5451C28.3701 30.5364 27.9001 30.3762 27.3438 29.8828C26.8961 29.3586 26.8823 28.8485 26.9032 28.1692C26.9782 27.6633 27.1659 27.3022 27.5391 26.9531C28.1491 26.5103 28.6722 26.5025 29.4121 26.5037Z" fill="white"/>
<path d="M17.6934 26.5037C17.8644 26.5025 17.8644 26.5025 18.0388 26.5012C18.2793 26.5001 18.5198 26.5 18.7603 26.5008C19.1267 26.5014 19.4927 26.4969 19.859 26.4919C20.0933 26.4915 20.3277 26.4913 20.562 26.4915C20.6707 26.4897 20.7794 26.4879 20.8913 26.4861C21.6301 26.4948 22.1 26.6551 22.6563 27.1484C23.104 27.6726 23.1179 28.1827 23.0969 28.862C23.0219 29.3679 22.8342 29.729 22.461 30.0781C21.8511 30.521 21.3279 30.5287 20.588 30.5275C20.474 30.5283 20.36 30.5292 20.2425 30.53C20.002 30.5311 19.7615 30.5312 19.5211 30.5304C19.1547 30.5298 18.7887 30.5344 18.4224 30.5393C18.188 30.5398 17.9537 30.5399 17.7193 30.5397C17.6107 30.5415 17.502 30.5433 17.39 30.5451C16.6513 30.5364 16.1814 30.3762 15.6251 29.8828C15.1773 29.3586 15.1635 28.8485 15.1845 28.1692C15.2594 27.6633 15.4471 27.3022 15.8204 26.9531C16.4303 26.5103 16.9534 26.5025 17.6934 26.5037Z" fill="white"/>
</g>
<defs>
<clipPath id="clip0_18638_75758">
<rect width="50" height="50" fill="white"/>
</clipPath>
</defs>
</svg>
