<svg width="47" height="47" viewBox="0 0 47 47" fill="none" xmlns="http://www.w3.org/2000/svg">
<path d="M23.5 2.9375C12.0437 2.9375 2.9375 12.0437 2.9375 23.5C2.9375 34.9562 12.0437 44.0625 23.5 44.0625C34.9562 44.0625 44.0625 34.9562 44.0625 23.5C44.0625 12.0437 34.9562 2.9375 23.5 2.9375ZM23.5 41.125C13.8063 41.125 5.875 33.1938 5.875 23.5C5.875 13.8063 13.8063 5.875 23.5 5.875C33.1938 5.875 41.125 13.8063 41.125 23.5C41.125 33.1938 33.1938 41.125 23.5 41.125Z" fill="#EF4D4D"/>
<path d="M31.4312 33.7812L23.5 25.85L15.5688 33.7812L13.2188 31.4312L21.15 23.5L13.2188 15.5688L15.5688 13.2188L23.5 21.15L31.4312 13.2188L33.7812 15.5688L25.85 23.5L33.7812 31.4312L31.4312 33.7812Z" fill="#EF4D4D"/>
</svg>
