<svg width="50" height="50" viewBox="0 0 50 50" fill="none" xmlns="http://www.w3.org/2000/svg">
<g clip-path="url(#clip0_18638_75734)">
<path d="M20.3179 -0.0232672C20.4425 -0.0247019 20.4425 -0.0247019 20.5697 -0.0261655C22.4375 -0.0432258 24.2435 -0.0252159 26.0743 0.390627C26.1667 0.411556 26.2591 0.432484 26.3543 0.454047C29.6729 1.23389 32.7704 2.74718 35.3516 4.98047C35.4279 5.04593 35.5042 5.11139 35.5828 5.17884C37.7251 7.06122 39.3972 9.19638 40.7227 11.7188C40.7562 11.7824 40.7896 11.846 40.8241 11.9115C42.0236 14.23 42.9734 17.1336 42.9681 19.7686C42.9749 20.8476 43.3258 21.4958 43.8965 22.3816C43.9814 22.5182 44.0661 22.6549 44.1504 22.7919C44.3225 23.0704 44.496 23.3479 44.6709 23.6246C45.0394 24.2083 45.395 24.7998 45.752 25.3906C45.8537 25.5577 45.9555 25.7248 46.0573 25.8918C46.631 26.8342 47.1932 27.7834 47.7554 28.7327C48.3224 29.69 48.8933 30.6449 49.4674 31.598C49.5236 31.6914 49.5798 31.7847 49.6377 31.881C49.6867 31.9623 49.7358 32.0437 49.7863 32.1275C50.0965 32.653 50.0491 33.1903 50.0001 33.7891C49.8541 34.3428 49.562 34.6598 49.0902 34.9697C48.7462 35.1557 48.4629 35.1682 48.0797 35.1673C47.9663 35.1673 47.8529 35.1673 47.7361 35.1673C47.5525 35.1666 47.5525 35.1666 47.3652 35.1658C47.2399 35.1656 47.1146 35.1655 46.9855 35.1654C46.6527 35.165 46.3199 35.164 45.9871 35.163C45.6474 35.162 45.3076 35.1615 44.9679 35.161C44.3015 35.16 43.6352 35.1583 42.9688 35.1563C42.9701 35.2754 42.9714 35.3946 42.9727 35.5174C42.9846 36.6424 42.9934 37.7673 42.9992 38.8924C43.0022 39.4707 43.0064 40.049 43.013 40.6273C43.0194 41.1858 43.0229 41.7442 43.0244 42.3027C43.0255 42.5154 43.0276 42.7281 43.0308 42.9408C43.035 43.2396 43.0356 43.5382 43.0353 43.837C43.0374 43.9242 43.0395 44.0114 43.0417 44.1013C43.0352 44.7684 42.8314 45.2089 42.3829 45.7031C41.8764 46.1621 41.3165 46.1477 40.6625 46.1381C40.5604 46.1382 40.4584 46.1382 40.3533 46.1383C40.0178 46.138 39.6823 46.135 39.3467 46.1319C39.1135 46.1312 38.8802 46.1306 38.6469 46.1302C38.034 46.1287 37.4213 46.1249 36.8085 46.1206C36.1827 46.1166 35.5569 46.1148 34.931 46.1128C33.704 46.1086 32.477 46.1021 31.2501 46.0938C31.2531 46.169 31.2562 46.2443 31.2594 46.3218C31.2716 46.6669 31.2792 47.012 31.2867 47.3572C31.2916 47.4756 31.2965 47.594 31.3016 47.716C31.3127 48.4 31.2592 48.8646 30.8578 49.4272C30.3094 49.943 29.8379 50.0577 29.1108 50.0509C29.0255 50.0517 28.9402 50.0524 28.8523 50.0532C28.5677 50.0552 28.2831 50.0544 27.9985 50.0536C27.7939 50.0545 27.5893 50.0555 27.3847 50.0567C26.8299 50.0593 26.275 50.0594 25.7202 50.0589C25.2566 50.0587 24.7931 50.0596 24.3296 50.0606C23.2359 50.0627 22.1422 50.0628 21.0485 50.0617C19.9209 50.0605 18.7933 50.0629 17.6657 50.067C16.6969 50.0705 15.7281 50.0717 14.7593 50.071C14.181 50.0707 13.6027 50.0712 13.0244 50.0739C12.4805 50.0764 11.9366 50.076 11.3926 50.0734C11.1933 50.073 10.994 50.0735 10.7947 50.0751C8.93974 50.089 8.93974 50.089 8.35413 49.5833C7.81327 48.9768 7.75881 48.5025 7.78249 47.6974C7.78383 47.5957 7.78518 47.494 7.78656 47.3892C7.78957 47.169 7.79339 46.9488 7.79794 46.7287C7.80462 46.3791 7.80794 46.0297 7.81018 45.6801C7.81667 44.6864 7.8253 43.6929 7.84567 42.6994C7.85791 42.0906 7.86289 41.4822 7.8633 40.8734C7.8648 40.6425 7.86896 40.4117 7.87592 40.1809C7.9501 38.8291 7.9501 38.8291 7.39662 37.6482C7.097 37.3468 6.77362 37.0911 6.42636 36.847C2.91524 34.2926 0.833222 28.9679 0.165231 24.8806C0.0480373 24.1348 -0.0159782 23.3961 -0.0232154 22.6414C-0.0241674 22.5584 -0.0251194 22.4755 -0.0261003 22.39C-0.0431085 20.5233 -0.0165756 18.7255 0.390679 16.8945C0.408964 16.8106 0.427249 16.7266 0.446088 16.6401C1.13399 13.5748 2.53653 10.6577 4.49224 8.20313C4.56878 8.10657 4.64532 8.01002 4.72418 7.91054C5.87824 6.48692 7.19641 5.16468 8.69146 4.10156C8.75527 4.0556 8.81908 4.00964 8.88482 3.96228C12.1625 1.62238 16.2497 0.0155177 20.3179 -0.0232672ZM8.83375 9.32875C6.65912 11.516 5.11667 14.3902 4.39459 17.3828C4.37544 17.4591 4.35629 17.5354 4.33655 17.6139C3.77059 19.9578 3.69626 22.8467 4.29693 25.1953C4.31949 25.2855 4.34206 25.3757 4.36531 25.4686C5.28134 29.0388 7.18908 32.4901 10.1075 34.8206C10.1991 34.8948 10.2908 34.9691 10.3852 35.0456C10.5413 35.171 10.6978 35.2957 10.8552 35.4195C10.9443 35.4916 10.9443 35.4916 11.0352 35.5652C11.0856 35.6048 11.1359 35.6445 11.1878 35.6854C11.6532 36.1976 11.6644 36.7264 11.6634 37.3798C11.6644 37.4757 11.6654 37.5716 11.6664 37.6704C11.6693 37.9796 11.6703 38.2887 11.6711 38.5979C11.6726 38.7893 11.6743 38.9806 11.676 39.172C11.6817 39.8801 11.6848 40.5883 11.6883 41.2964C11.6984 42.8795 11.7084 44.4627 11.7188 46.0938C16.8751 46.0938 22.0313 46.0938 27.3438 46.0938C27.376 45.2236 27.4083 44.3535 27.4415 43.457C28.0653 42.459 28.0653 42.459 28.6133 42.2852C28.9599 42.2327 29.3001 42.23 29.6501 42.2318C29.7522 42.2308 29.8542 42.2298 29.9593 42.2288C30.2948 42.2259 30.6303 42.2258 30.9659 42.2257C31.1992 42.2242 31.4325 42.2226 31.6658 42.2208C32.2785 42.2165 32.8913 42.2145 33.5041 42.2131C34.13 42.2112 34.7558 42.2071 35.3816 42.2031C36.6086 42.1958 37.8355 42.1908 39.0626 42.1875C39.0628 42.0084 39.0628 42.0084 39.063 41.8257C39.0646 40.6992 39.0688 39.5728 39.0755 38.4463C39.0788 37.8672 39.0812 37.2882 39.0816 36.7091C39.0821 36.1499 39.0849 35.5909 39.0893 35.0317C39.0905 34.8187 39.0909 34.6057 39.0905 34.3926C39.09 34.0936 39.0926 33.7947 39.0958 33.4957C39.0945 33.3643 39.0946 33.3643 39.0933 33.2303C39.1043 32.6232 39.2545 32.2058 39.6485 31.7383C40.1563 31.307 40.6714 31.289 41.3174 31.2881C41.4097 31.2865 41.5019 31.2849 41.5969 31.2833C41.8894 31.2785 42.1819 31.2764 42.4744 31.2744C42.6736 31.2717 42.8728 31.2687 43.072 31.2656C43.5584 31.2584 44.0448 31.2536 44.5313 31.25C43.99 30.2959 43.438 29.3486 42.8773 28.4058C42.8376 28.339 42.7979 28.2722 42.7571 28.2034C42.2166 27.2935 41.6711 26.3868 41.1203 25.4831C40.8242 24.997 40.5293 24.5102 40.2344 24.0234C40.1769 23.9288 40.1194 23.8341 40.0601 23.7366C39.9054 23.481 39.7522 23.2245 39.5997 22.9675C39.5556 22.8952 39.5115 22.8229 39.4661 22.7484C39.1081 22.1388 39.0595 21.5746 39.0392 20.8788C38.8894 16.1907 36.8022 11.8879 33.4645 8.63533C30.9404 6.34709 27.9431 4.869 24.6094 4.19922C24.4965 4.17631 24.3836 4.1534 24.2673 4.12979C18.5408 3.12053 12.8849 5.32118 8.83375 9.32875Z" fill="white"/>
<path d="M28.2974 9.87368C28.7708 10.166 29.1071 10.503 29.2969 11.0353C29.3562 11.5269 29.352 12.017 29.3502 12.5113C29.351 12.6615 29.3521 12.8117 29.3532 12.9619C29.356 13.3682 29.3563 13.7745 29.3562 14.1808C29.3565 14.606 29.359 15.0311 29.3613 15.4563C29.3652 16.2607 29.3672 17.0652 29.3685 17.8696C29.3701 18.7857 29.3738 19.7018 29.3777 20.6179C29.3858 22.5018 29.3911 24.3857 29.3945 26.2696C29.4723 26.199 29.4723 26.199 29.5517 26.127C29.6207 26.0653 29.6897 26.0036 29.7607 25.94C29.8287 25.8789 29.8967 25.8177 29.9667 25.7546C30.481 25.3398 30.9376 25.3375 31.5861 25.3476C32.2603 25.4312 32.6339 25.7675 33.0627 26.2696C33.3175 26.8029 33.3147 27.4597 33.2031 28.0274C32.8301 28.7265 32.2895 29.2784 31.7329 29.8329C31.6489 29.9175 31.5649 30.002 31.4783 30.0891C31.3016 30.2665 31.1245 30.4435 30.947 30.6201C30.6765 30.8897 30.408 31.1611 30.1395 31.4326C29.9668 31.6055 29.794 31.7782 29.6211 31.9509C29.5415 32.0315 29.462 32.1122 29.38 32.1953C28.7705 32.7975 28.1978 33.2575 27.301 33.2643C27.2004 33.2675 27.0999 33.2708 26.9962 33.2742C26.1194 33.089 25.4641 32.3436 24.8547 31.7296C24.7701 31.6453 24.6856 31.5611 24.5985 31.4743C24.4211 31.2971 24.2441 31.1196 24.0675 30.9417C23.7977 30.6704 23.5264 30.4007 23.255 30.1311C23.0821 29.958 22.9094 29.7849 22.7367 29.6117C22.6561 29.5316 22.5754 29.4515 22.4923 29.369C21.8911 28.7604 21.4294 28.2531 21.4233 27.3561C21.4441 26.6842 21.5992 26.2609 22.0703 25.7813C22.5946 25.3335 23.1042 25.3211 23.7835 25.3392C24.4367 25.4389 24.8425 25.8158 25.293 26.2696C25.2929 26.1919 25.2929 26.1142 25.2929 26.0342C25.2922 24.1415 25.2947 22.2489 25.3008 20.3562C25.3037 19.4409 25.3055 18.5257 25.3047 17.6104C25.304 16.8124 25.3054 16.0145 25.3092 15.2165C25.3112 14.7942 25.3121 14.3719 25.3106 13.9495C25.3092 13.5515 25.3105 13.1536 25.314 12.7556C25.3147 12.61 25.3145 12.4644 25.3132 12.3188C25.3062 11.4601 25.3645 10.8078 25.9766 10.1563C26.6087 9.61641 27.5309 9.56726 28.2974 9.87368Z" fill="white"/>
<path d="M15.6249 9.71692C15.7176 9.71591 15.8102 9.7149 15.9057 9.71387C16.7962 9.86526 17.3418 10.4497 17.9519 11.0677C18.0409 11.1566 18.1299 11.2454 18.2216 11.337C18.409 11.5243 18.5957 11.7122 18.782 11.9007C19.0194 12.1409 19.2583 12.3795 19.4977 12.6177C19.7278 12.8469 19.9568 13.0774 20.1858 13.3077C20.271 13.3927 20.3563 13.4776 20.4441 13.5652C21.0563 14.1869 21.5391 14.6972 21.5453 15.6129C21.5246 16.2847 21.3695 16.7081 20.8984 17.1876C20.374 17.6355 19.8645 17.6478 19.1852 17.6297C18.532 17.5301 18.1262 17.1531 17.6757 16.6993C17.6757 16.777 17.6758 16.8547 17.6758 16.9348C17.6765 18.8275 17.674 20.7201 17.6679 22.6128C17.665 23.528 17.6632 24.4433 17.664 25.3586C17.6647 26.1566 17.6633 26.9545 17.6595 27.7525C17.6575 28.1748 17.6566 28.5971 17.6581 29.0194C17.6595 29.4175 17.6581 29.8154 17.6547 30.2133C17.6539 30.359 17.6542 30.5046 17.6555 30.6502C17.6625 31.5089 17.6042 32.1612 16.9921 32.8126C16.468 33.2603 15.9578 33.2742 15.2786 33.2532C14.6325 33.1575 14.252 32.8613 13.8591 32.3556C13.5396 31.7797 13.6161 31.0974 13.6185 30.4576C13.6176 30.3075 13.6166 30.1573 13.6154 30.0071C13.6127 29.6008 13.6124 29.1945 13.6125 28.7881C13.6122 28.363 13.6097 27.9378 13.6074 27.5127C13.6034 26.7083 13.6015 25.9038 13.6002 25.0994C13.5986 24.1833 13.5949 23.2672 13.5909 22.3511C13.5829 20.4672 13.5776 18.5833 13.5741 16.6993C13.5223 16.7464 13.4704 16.7935 13.417 16.842C13.348 16.9037 13.279 16.9654 13.2079 17.0289C13.14 17.0901 13.072 17.1513 13.0019 17.2143C12.4877 17.6291 12.031 17.6315 11.3826 17.6214C10.7084 17.5377 10.3348 17.2014 9.90593 16.6993C9.65113 16.166 9.65393 15.5093 9.76555 14.9415C10.1386 14.2424 10.6792 13.6906 11.2357 13.136C11.3198 13.0515 11.4038 12.967 11.4903 12.8799C11.6671 12.7025 11.8442 12.5255 12.0217 12.3488C12.2921 12.0793 12.5607 11.8079 12.8291 11.5363C13.0018 11.3635 13.1746 11.1907 13.3476 11.0181C13.4271 10.9374 13.5067 10.8568 13.5887 10.7737C14.1793 10.1901 14.7509 9.70742 15.6249 9.71692Z" fill="white"/>
</g>
<defs>
<clipPath id="clip0_18638_75734">
<rect width="50" height="50" fill="white"/>
</clipPath>
</defs>
</svg>
