<svg width="50" height="50" viewBox="0 0 50 50" fill="none" xmlns="http://www.w3.org/2000/svg">
<path d="M23.535 0C24.5018 0 25.4686 0 26.4646 0C26.4646 1.83691 26.4646 3.67383 26.4646 5.56641C27.8826 5.56641 29.3006 5.56641 30.7615 5.56641C30.7615 4.59961 30.7615 3.63281 30.7615 2.63672C34.9187 2.63672 39.076 2.63672 43.3592 2.63672C43.7459 3.3457 44.1326 4.05469 44.5311 4.78516C44.6475 4.99564 44.7639 5.20612 44.8839 5.42297C44.9719 5.58466 45.0597 5.7464 45.1475 5.9082C45.1943 5.99141 45.241 6.07462 45.2892 6.16035C45.3545 6.28177 45.3545 6.28177 45.421 6.40564C45.4781 6.5094 45.4781 6.5094 45.5363 6.61526C45.6582 7.00544 45.5507 7.32112 45.3939 7.68771C45.3469 7.77698 45.2998 7.86625 45.2513 7.95822C45.1983 8.05943 45.1453 8.16064 45.0907 8.26492C45.007 8.42165 45.007 8.42165 44.9217 8.58154C44.8689 8.68225 44.8162 8.78296 44.7618 8.88672C44.3105 9.74304 43.8341 10.5815 43.3592 11.4258C39.202 11.4258 35.0447 11.4258 30.7615 11.4258C30.7615 10.459 30.7615 9.49219 30.7615 8.49609C29.3436 8.49609 27.9256 8.49609 26.4646 8.49609C26.4646 13.4912 26.4646 18.4863 26.4646 23.6328C27.8826 23.6328 29.3006 23.6328 30.7615 23.6328C30.7615 22.666 30.7615 21.6992 30.7615 20.7031C34.9187 20.7031 39.076 20.7031 43.3592 20.7031C43.7459 21.4121 44.1326 22.1211 44.5311 22.8516C44.6475 23.062 44.7639 23.2725 44.8839 23.4894C44.9719 23.6511 45.0597 23.8128 45.1475 23.9746C45.1943 24.0578 45.241 24.141 45.2892 24.2268C45.3327 24.3077 45.3762 24.3886 45.421 24.472C45.4781 24.5758 45.4781 24.5758 45.5363 24.6817C45.6582 25.0718 45.5507 25.3875 45.3939 25.7541C45.3469 25.8434 45.2998 25.9327 45.2513 26.0246C45.1983 26.1258 45.1453 26.2271 45.0907 26.3313C45.0349 26.4358 44.9791 26.5403 44.9217 26.6479C44.8689 26.7487 44.8162 26.8494 44.7618 26.9531C44.3105 27.8094 43.8341 28.6479 43.3592 29.4922C39.202 29.4922 35.0447 29.4922 30.7615 29.4922C30.7615 28.5254 30.7615 27.5586 30.7615 26.5625C29.3436 26.5625 27.9256 26.5625 26.4646 26.5625C26.4646 29.8818 26.4646 33.2012 26.4646 36.6211C27.9471 36.6211 29.4295 36.6211 30.9568 36.6211C30.9568 41.0361 30.9568 45.4512 30.9568 50C27.0252 50 23.0936 50 19.0428 50C19.0428 45.585 19.0428 41.1699 19.0428 36.6211C20.5252 36.6211 22.0076 36.6211 23.535 36.6211C23.535 30.3369 23.535 24.0527 23.535 17.5781C22.117 17.5781 20.699 17.5781 19.2381 17.5781C19.2381 18.5449 19.2381 19.5117 19.2381 20.5078C15.0809 20.5078 10.9236 20.5078 6.64043 20.5078C6.25371 19.7666 5.86699 19.0254 5.46855 18.2617C4.9704 17.393 4.9704 17.393 4.46326 16.5298C4.32846 16.0971 4.45024 15.7206 4.6267 15.3165C4.71146 15.1622 4.71146 15.1622 4.79793 15.0047C4.82868 14.948 4.85944 14.8913 4.89113 14.8329C4.98904 14.6528 5.08837 14.4736 5.18779 14.2944C5.25223 14.1766 5.31657 14.0587 5.38082 13.9408C5.50206 13.7185 5.62393 13.4966 5.74631 13.2749C6.04741 12.7253 6.34332 12.1729 6.64043 11.6211C10.7977 11.6211 14.9549 11.6211 19.2381 11.6211C19.2381 12.5879 19.2381 13.5547 19.2381 14.5508C20.6561 14.5508 22.074 14.5508 23.535 14.5508C23.535 9.74902 23.535 4.94727 23.535 0ZM33.6912 5.56641C33.6912 6.5332 33.6912 7.5 33.6912 8.49609C36.2693 8.49609 38.8475 8.49609 41.5037 8.49609C41.7293 8.04492 41.9549 7.59375 42.1873 7.12891C41.9805 6.46241 41.9805 6.46241 41.5037 5.56641C38.9256 5.56641 36.3475 5.56641 33.6912 5.56641ZM8.4959 14.6484C7.72583 15.7554 7.72583 15.7554 7.90996 16.4062C8.10332 16.7607 8.29668 17.1152 8.4959 17.4805C11.074 17.4805 13.6521 17.4805 16.3084 17.4805C16.3084 16.5459 16.3084 15.6113 16.3084 14.6484C13.7303 14.6484 11.1521 14.6484 8.4959 14.6484ZM33.6912 23.6328C33.6912 24.5996 33.6912 25.5664 33.6912 26.5625C36.2693 26.5625 38.8475 26.5625 41.5037 26.5625C41.7293 26.1113 41.9549 25.6602 42.1873 25.1953C41.9805 24.5288 41.9805 24.5288 41.5037 23.6328C38.9256 23.6328 36.3475 23.6328 33.6912 23.6328ZM22.0701 39.5508C22.0701 42.0322 22.0701 44.5137 22.0701 47.0703C24.0037 47.0703 25.9373 47.0703 27.9295 47.0703C27.9295 44.5889 27.9295 42.1074 27.9295 39.5508C25.9959 39.5508 24.0623 39.5508 22.0701 39.5508Z" fill="white"/>
</svg>
