<svg width="41" height="41" viewBox="0 0 41 41" fill="none" xmlns="http://www.w3.org/2000/svg">
<g clip-path="url(#clip0_18642_76414)">
<path d="M31.3906 0H9.60938C4.30226 0 0 4.30226 0 9.60938V31.3906C0 36.6977 4.30226 41 9.60938 41H31.3906C36.6977 41 41 36.6977 41 31.3906V9.60938C41 4.30226 36.6977 0 31.3906 0Z" fill="#5865F2"/>
<mask id="mask0_18642_76414" style="mask-type:luminance" maskUnits="userSpaceOnUse" x="4" y="8" width="33" height="25">
<path d="M4.48438 8.16797H36.5156V32.981H4.48438V8.16797Z" fill="white"/>
</mask>
<g mask="url(#mask0_18642_76414)">
<path d="M31.6 10.3777C29.5233 9.42453 27.3318 8.74476 25.0802 8.35537C25.0598 8.35164 25.0386 8.35442 25.0198 8.36333C25.0011 8.37224 24.9855 8.38682 24.9755 8.40502C24.6939 8.90567 24.3819 9.55911 24.1636 10.0726C21.7016 9.70389 19.2523 9.70389 16.8408 10.0726C16.6224 9.54758 16.2992 8.90567 16.0163 8.40502C16.0059 8.38712 15.9903 8.37279 15.9716 8.36392C15.9529 8.35506 15.9319 8.35208 15.9114 8.35537C13.6597 8.74388 11.468 9.42368 9.39162 10.3777C9.37395 10.3854 9.35899 10.3982 9.3487 10.4145C5.19617 16.6183 4.05874 22.6697 4.61673 28.6461C4.62013 28.6756 4.6351 28.7025 4.65837 28.721C7.398 30.733 10.0519 31.9546 12.6566 32.7641C12.6768 32.7701 12.6984 32.7698 12.7185 32.7633C12.7386 32.7567 12.7562 32.7441 12.769 32.7273C13.3851 31.8859 13.9343 30.9987 14.4053 30.0658C14.4118 30.0531 14.4155 30.039 14.4162 30.0247C14.4169 30.0104 14.4145 29.9961 14.4092 29.9828C14.404 29.9695 14.396 29.9574 14.3857 29.9474C14.3755 29.9374 14.3632 29.9297 14.3497 29.9247C13.4785 29.5942 12.649 29.1914 11.8511 28.7338C11.8366 28.7253 11.8244 28.7133 11.8156 28.6989C11.8068 28.6845 11.8017 28.6681 11.8007 28.6513C11.7997 28.6345 11.8029 28.6176 11.8099 28.6023C11.8169 28.587 11.8276 28.5736 11.8411 28.5634C12.0094 28.4376 12.1748 28.3079 12.3372 28.1746C12.3515 28.1628 12.3687 28.1553 12.3869 28.1528C12.4052 28.1503 12.4238 28.153 12.4407 28.1605C17.6829 30.5538 23.358 30.5538 28.5383 28.1605C28.5552 28.1525 28.574 28.1495 28.5926 28.1517C28.6112 28.154 28.6287 28.1615 28.6432 28.1733C28.8058 28.3074 28.9717 28.4375 29.1407 28.5634C29.1541 28.5735 29.1649 28.5868 29.1721 28.6021C29.1792 28.6173 29.1825 28.6341 29.1816 28.651C29.1808 28.6678 29.1758 28.6842 29.1671 28.6986C29.1584 28.713 29.1463 28.7251 29.1318 28.7338C28.3335 29.2 27.4972 29.5979 26.632 29.9235C26.6186 29.9286 26.6064 29.9366 26.5963 29.9468C26.5861 29.9569 26.5782 29.9691 26.5731 29.9826C26.568 29.996 26.5658 30.0103 26.5665 30.0247C26.5673 30.039 26.5711 30.053 26.5777 30.0658C27.0568 30.9914 27.6032 31.8805 28.2125 32.726C28.225 32.7433 28.2425 32.7562 28.2627 32.763C28.2828 32.7699 28.3046 32.7702 28.325 32.7641C30.9422 31.9546 33.5962 30.733 36.336 28.721C36.3477 28.7123 36.3575 28.7013 36.3646 28.6886C36.3718 28.6759 36.3762 28.6618 36.3776 28.6473C37.0455 21.738 35.2589 15.7362 31.6417 10.4158C31.6329 10.3984 31.6181 10.3849 31.6 10.3777ZM15.1882 25.0071C13.6098 25.0071 12.3094 23.5582 12.3094 21.7787C12.3094 19.9992 13.5847 18.5503 15.1882 18.5503C16.8041 18.5503 18.092 20.012 18.0666 21.7787C18.0666 23.5582 16.7915 25.0071 15.1882 25.0071ZM25.8315 25.0071C24.2532 25.0071 22.9529 23.5582 22.9529 21.7787C22.9529 19.9992 24.228 18.5503 25.8315 18.5503C27.4475 18.5503 28.7353 20.012 28.7102 21.7787C28.7102 23.5582 27.4475 25.0071 25.8315 25.0071Z" fill="white"/>
</g>
</g>
<defs>
<clipPath id="clip0_18642_76414">
<rect width="41" height="41" fill="white"/>
</clipPath>
</defs>
</svg>
