<svg width="50" height="50" viewBox="0 0 50 50" fill="none" xmlns="http://www.w3.org/2000/svg">
<g clip-path="url(#clip0_18638_75823)">
<path d="M39.6485 -9.57027e-05C40.0396 0.195451 40.2988 0.408106 40.5274 0.781154C40.6901 1.2693 40.6864 1.6907 40.5091 2.16665C40.3175 2.46393 40.1037 2.69077 39.8438 2.92959C39.9708 3.20924 40.1049 3.41028 40.3221 3.62671C40.3799 3.68477 40.4377 3.74282 40.4973 3.80264C40.5921 3.89641 40.5921 3.89641 40.6888 3.99208C40.7889 4.09218 40.7889 4.09218 40.891 4.1943C41.1114 4.41457 41.3325 4.63415 41.5536 4.85372C41.7066 5.00639 41.8596 5.15909 42.0125 5.31184C42.4151 5.71363 42.8182 6.11484 43.2214 6.51592C43.6329 6.92535 44.0437 7.33533 44.4547 7.74527C45.2609 8.54944 46.0678 9.35299 46.8751 10.1562C47.1492 10.0289 47.327 9.90952 47.5648 9.7106C47.9504 9.39061 48.2278 9.34572 48.7248 9.35392C49.171 9.40048 49.4436 9.59225 49.7376 9.91812C49.9739 10.2594 50.0199 10.4511 50.0306 10.8642C50.0342 10.9553 50.0379 11.0464 50.0417 11.1403C49.9471 11.7894 49.3991 12.252 48.9537 12.6967C48.8901 12.7608 48.8264 12.8248 48.7609 12.8908C48.6263 13.026 48.4914 13.1609 48.3563 13.2956C48.1535 13.4981 47.9521 13.7018 47.7507 13.9056C46.7372 14.9241 45.6885 15.8279 44.452 16.5709C44.3778 16.6157 44.3035 16.6604 44.2271 16.7064C41.1161 18.5419 37.8933 18.7022 34.3751 18.6522C34.3761 18.7807 34.3761 18.7807 34.377 18.9117C34.383 19.726 34.3874 20.5404 34.3903 21.3547C34.3918 21.7732 34.3938 22.1917 34.3972 22.6101C34.4004 23.0154 34.4021 23.4206 34.4029 23.8259C34.4034 23.979 34.4044 24.1322 34.4061 24.2854C34.4345 27.1217 33.6073 29.624 31.6163 31.7077C29.8401 33.4199 27.5096 34.3903 25.0382 34.386C24.9338 34.386 24.9338 34.386 24.8272 34.386C24.6 34.386 24.3728 34.3852 24.1456 34.3844C23.9869 34.3843 23.8282 34.3841 23.6694 34.384C23.254 34.3837 22.8385 34.3827 22.423 34.3816C21.9981 34.3806 21.5732 34.3802 21.1484 34.3797C20.3164 34.3786 19.4844 34.377 18.6524 34.3749C18.6538 34.4881 18.6551 34.6013 18.6565 34.7179C18.7148 39.8153 17.6945 43.8314 14.0528 47.5792C13.7788 47.8589 13.5027 48.1365 13.2259 48.4133C13.0535 48.5858 12.882 48.7592 12.7105 48.9326C12.6001 49.0432 12.4896 49.1539 12.3792 49.2644C12.3284 49.3159 12.2776 49.3674 12.2253 49.4204C11.7947 49.8483 11.5084 50.028 10.901 50.0365C10.4131 50.0274 10.1373 49.9437 9.7657 49.6093C9.41932 49.2151 9.34544 48.8701 9.3541 48.3451C9.41283 47.7834 9.75723 47.437 10.1563 47.0702C10.0294 46.7906 9.89522 46.5895 9.67801 46.3731C9.59133 46.286 9.59133 46.286 9.5029 46.1972C9.43968 46.1347 9.37646 46.0721 9.31132 46.0077C9.21127 45.9076 9.21127 45.9076 9.10919 45.8055C8.88878 45.5852 8.66769 45.3657 8.44658 45.1461C8.29355 44.9934 8.14057 44.8407 7.98763 44.688C7.58509 44.2862 7.18197 43.885 6.77872 43.4839C6.3673 43.0745 5.95642 42.6645 5.5455 42.2545C4.73923 41.4504 3.93235 40.6468 3.12508 39.8437C2.85097 39.9709 2.67311 40.0903 2.43538 40.2892C2.04976 40.6092 1.77232 40.6541 1.27533 40.6459C0.829201 40.5993 0.556602 40.4076 0.262527 40.0817C0.0262281 39.7404 -0.0197196 39.5487 -0.0304413 39.1356C-0.0340919 39.0445 -0.0377426 38.9534 -0.0415039 38.8595C0.0530792 38.2104 0.601056 37.7478 1.04645 37.3031C1.11008 37.239 1.17371 37.175 1.23927 37.109C1.37388 36.9738 1.50875 36.8389 1.64385 36.7042C1.84662 36.5018 2.04805 36.298 2.24941 36.0942C5.31094 33.0178 9.01894 31.3392 13.3745 31.3282C14.1247 31.3287 14.8749 31.3369 15.6251 31.3476C15.6241 31.2191 15.6241 31.2191 15.6231 31.0881C15.6172 30.2738 15.6128 29.4594 15.6099 28.6451C15.6084 28.2266 15.6063 27.8082 15.603 27.3897C15.5997 26.9844 15.598 26.5792 15.5973 26.1739C15.5967 26.0208 15.5957 25.8676 15.5941 25.7144C15.5654 22.8566 16.4106 20.3251 18.4266 18.2433C20.1384 16.5449 22.5649 15.6097 24.9619 15.6138C25.0664 15.6138 25.0664 15.6138 25.173 15.6138C25.4002 15.6138 25.6274 15.6146 25.8546 15.6154C26.0133 15.6156 26.172 15.6157 26.3307 15.6158C26.7462 15.6162 27.1617 15.6171 27.5772 15.6182C28.002 15.6192 28.4269 15.6196 28.8518 15.6201C29.6838 15.6212 30.5157 15.6228 31.3477 15.6249C31.3462 15.5192 31.3447 15.4136 31.3431 15.3047C31.3377 14.903 31.3344 14.5013 31.3316 14.0996C31.3302 13.9276 31.3282 13.7555 31.3256 13.5835C31.3028 12.017 31.4259 10.4799 31.9032 8.97818C31.9279 8.89842 31.9527 8.81866 31.9782 8.73649C32.9121 5.83026 34.7184 3.64205 36.8449 1.51587C37.0085 1.3521 37.1712 1.18757 37.3339 1.02301C37.439 0.917673 37.5441 0.812385 37.6492 0.707149C37.6972 0.658431 37.7453 0.609712 37.7947 0.559517C38.3726 -0.01454 38.8491 -0.0950931 39.6485 -9.57027e-05ZM37.5001 5.17569C36.7522 6.03006 35.9907 6.9526 35.547 8.00772C35.6071 8.45329 35.8981 8.6951 36.2037 9.00004C36.262 9.05931 36.3203 9.11858 36.3804 9.17964C36.5733 9.37534 36.7673 9.56991 36.9614 9.76439C37.0959 9.89979 37.2303 10.0352 37.3648 10.1707C37.6466 10.4543 37.9291 10.7373 38.212 11.02C38.5748 11.3828 38.9356 11.7476 39.296 12.113C39.5729 12.3932 39.8512 12.6721 40.1299 12.9506C40.2635 13.0846 40.3967 13.2191 40.5294 13.354C40.7147 13.5422 40.9019 13.7286 41.0896 13.9145C41.1443 13.9709 41.199 14.0272 41.2554 14.0853C41.4252 14.2576 41.4252 14.2576 41.6993 14.453C42.7819 14.43 44.1093 13.1235 44.8243 12.4022C43.884 11.4597 42.9435 10.5175 42.0027 9.57557C41.5659 9.13824 41.1291 8.70083 40.6926 8.26321C40.2718 7.84129 39.8507 7.41961 39.4294 6.99809C39.2683 6.83682 39.1073 6.67546 38.9464 6.51402C38.7219 6.28881 38.4971 6.0639 38.2722 5.83906C38.205 5.77149 38.1377 5.70391 38.0685 5.63429C38.0075 5.57349 37.9466 5.51268 37.8838 5.45003C37.8306 5.39674 37.7774 5.34345 37.7226 5.28855C37.6137 5.16477 37.6137 5.16477 37.5001 5.17569ZM34.4727 11.5233C34.3617 11.9648 34.3626 12.3977 34.3655 12.8497C34.3657 12.9292 34.3658 13.0087 34.366 13.0907C34.3665 13.3434 34.3677 13.5961 34.369 13.8488C34.3695 14.0206 34.3699 14.1925 34.3703 14.3643C34.3714 14.7845 34.3731 15.2047 34.3751 15.6249C34.8807 15.6273 35.3864 15.6291 35.892 15.6303C36.0639 15.6308 36.2358 15.6314 36.4078 15.6323C36.6553 15.6335 36.9028 15.634 37.1503 15.6344C37.265 15.6352 37.265 15.6352 37.3821 15.636C37.7594 15.636 38.11 15.6195 38.4766 15.5272C38.0441 15.0096 37.5881 14.5268 37.1106 14.0506C37.038 13.9778 36.9653 13.9051 36.8905 13.8302C36.7382 13.6778 36.5858 13.5256 36.4333 13.3735C36.1987 13.1394 35.9646 12.9049 35.7306 12.6702C35.5823 12.522 35.434 12.3738 35.2856 12.2256C35.2154 12.1551 35.1451 12.0847 35.0727 12.012C35.0081 11.9478 34.9435 11.8835 34.877 11.8173C34.82 11.7604 34.763 11.7034 34.7042 11.6448C34.5885 11.5124 34.5885 11.5124 34.4727 11.5233ZM25.586 18.6522C25.9536 19.0811 26.3067 19.4829 26.7031 19.8796C26.7525 19.9292 26.802 19.9789 26.853 20.03C27.0139 20.1914 27.1752 20.3524 27.3366 20.5134C27.4494 20.6263 27.5622 20.7392 27.6749 20.8521C27.9099 21.0872 28.1451 21.3222 28.3804 21.557C28.6826 21.8587 28.9844 22.1608 29.2861 22.4631C29.5182 22.6955 29.7506 22.9278 29.983 23.16C30.0945 23.2714 30.2059 23.3829 30.3172 23.4944C30.472 23.6494 30.627 23.8041 30.7821 23.9587C30.8704 24.0468 30.9586 24.135 31.0495 24.2258C31.2161 24.4251 31.2161 24.4251 31.3477 24.414C31.3477 22.5126 31.3477 20.6112 31.3477 18.6522C29.4464 18.6522 27.545 18.6522 25.586 18.6522ZM20.4835 20.4833C20.0587 20.9292 19.7448 21.4437 19.4337 21.9726C19.8696 22.4947 20.3302 22.9802 20.8123 23.4599C20.8895 23.5371 20.9667 23.6144 21.0463 23.694C21.2997 23.9473 21.5534 24.2003 21.8072 24.4533C21.9837 24.6296 22.1602 24.806 22.3367 24.9824C22.7526 25.3979 23.1687 25.8132 23.5849 26.2284C24.059 26.7015 24.533 27.1749 25.0068 27.6483C25.9808 28.6213 26.9552 29.5939 27.9298 30.5663C28.0538 30.5066 28.1775 30.4464 28.3011 30.3859C28.37 30.3524 28.439 30.319 28.51 30.2845C29.3769 29.8154 30.0593 28.9482 30.5665 28.1249C30.4302 27.8174 30.2706 27.6094 30.0332 27.3722C29.9632 27.3018 29.8933 27.2314 29.8212 27.1589C29.7444 27.0827 29.6677 27.0065 29.5886 26.9279C29.5077 26.8469 29.4269 26.7659 29.3436 26.6824C29.0761 26.4146 28.8079 26.1475 28.5397 25.8803C28.3541 25.6949 28.1685 25.5093 27.983 25.3237C27.5941 24.9349 27.2048 24.5465 26.8153 24.1583C26.3644 23.709 25.9141 23.2591 25.464 22.809C25.0314 22.3763 24.5984 21.9439 24.1654 21.5116C23.9808 21.3274 23.7964 21.1432 23.612 20.9588C23.355 20.7021 23.0978 20.4456 22.8404 20.1893C22.7634 20.1123 22.6864 20.0353 22.6071 19.9559C22.5026 19.852 22.5026 19.852 22.3959 19.746C22.3351 19.6853 22.2742 19.6246 22.2115 19.562C21.7994 19.1866 20.8071 20.1756 20.4835 20.4833ZM18.6524 25.5858C18.6524 27.4872 18.6524 29.3886 18.6524 31.3476C20.5538 31.3476 22.4552 31.3476 24.4141 31.3476C24.0466 30.9188 23.6934 30.5169 23.2971 30.1202C23.2476 30.0706 23.1982 30.0209 23.1472 29.9698C22.9862 29.8084 22.8249 29.6474 22.6636 29.4864C22.5508 29.3735 22.438 29.2606 22.3252 29.1477C22.0902 28.9126 21.8551 28.6776 21.6198 28.4428C21.3175 28.1411 21.0157 27.839 20.7141 27.5367C20.4819 27.3043 20.2496 27.072 20.0171 26.8398C19.9057 26.7284 19.7943 26.6169 19.6829 26.5054C19.5282 26.3504 19.3732 26.1957 19.218 26.0412C19.1298 25.953 19.0416 25.8648 18.9507 25.774C18.784 25.5747 18.784 25.5747 18.6524 25.5858ZM11.5235 34.4726C11.9561 34.9902 12.412 35.473 12.8896 35.9492C12.9622 36.022 13.0348 36.0947 13.1097 36.1696C13.262 36.322 13.4144 36.4742 13.5669 36.6263C13.8015 36.8604 14.0355 37.0949 14.2695 37.3296C14.4178 37.4778 14.5661 37.626 14.7145 37.7742C14.7848 37.8447 14.8551 37.9151 14.9275 37.9878C14.9921 38.052 15.0566 38.1163 15.1232 38.1825C15.1802 38.2394 15.2372 38.2964 15.2959 38.355C15.4117 38.4874 15.4117 38.4874 15.5274 38.4765C15.622 38.0035 15.6379 37.5447 15.6346 37.0643C15.6345 36.9871 15.6343 36.9099 15.6342 36.8303C15.6337 36.5856 15.6324 36.3408 15.6312 36.0961C15.6307 35.9294 15.6302 35.7627 15.6298 35.596C15.6288 35.189 15.6271 34.7819 15.6251 34.3749C15.1194 34.3725 14.6138 34.3707 14.1081 34.3695C13.9362 34.369 13.7643 34.3684 13.5924 34.3675C13.3449 34.3663 13.0974 34.3658 12.8499 34.3654C12.7351 34.3646 12.7351 34.3646 12.618 34.3638C12.2407 34.3638 11.8902 34.3803 11.5235 34.4726ZM7.37312 35.8825C7.31271 35.9172 7.25231 35.9519 7.19007 35.9877C6.43774 36.4322 5.79358 36.9798 5.17586 37.5976C7.56062 39.9823 9.94539 42.3671 12.4024 44.8241C13.1907 44.0359 14.061 43.0552 14.4532 41.9921C14.3868 41.5455 14.1022 41.3069 13.7933 41.0013C13.7347 40.9422 13.6761 40.8831 13.6157 40.8222C13.4218 40.627 13.2269 40.4329 13.0318 40.2389C12.8969 40.1037 12.762 39.9685 12.6271 39.8333C12.3444 39.5501 12.0611 39.2674 11.7774 38.9852C11.4133 38.6227 11.0506 38.259 10.6882 37.8948C10.4099 37.6155 10.1309 37.3369 9.85173 37.0585C9.71766 36.9246 9.58379 36.7905 9.45015 36.6561C9.26359 36.4688 9.07612 36.2825 8.88837 36.0964C8.80525 36.0124 8.80525 36.0124 8.72046 35.9267C8.20223 35.4168 7.95427 35.5465 7.37312 35.8825Z" fill="white"/>
</g>
<defs>
<clipPath id="clip0_18638_75823">
<rect width="50" height="50" fill="white"/>
</clipPath>
</defs>
</svg>
