<svg width="50" height="50" viewBox="0 0 50 50" fill="none" xmlns="http://www.w3.org/2000/svg">
<g clip-path="url(#clip0_18638_75816)">
<path d="M15.5577 22.2594C16.3744 22.8862 16.9334 23.6108 17.1873 24.6093C17.2242 24.9274 17.2246 25.2407 17.2206 25.5607C17.2206 25.6513 17.2207 25.7419 17.2207 25.8353C17.2205 26.1317 17.2183 26.4281 17.2159 26.7245C17.2154 26.9313 17.215 27.138 17.2147 27.3448C17.2136 27.8866 17.2107 28.4284 17.2075 28.9703C17.2044 29.5241 17.2031 30.0779 17.2016 30.6317C17.1985 31.7167 17.1935 32.8017 17.1873 33.8866C17.2537 33.8864 17.3202 33.8862 17.3886 33.886C21.3249 33.8728 25.2613 33.8628 29.1976 33.8567C29.6703 33.856 30.143 33.8552 30.6157 33.8544C30.7098 33.8543 30.8039 33.8541 30.9008 33.854C32.4244 33.8514 33.9479 33.8468 35.4714 33.8414C37.0348 33.8359 38.5981 33.8327 40.1615 33.8315C41.1261 33.8307 42.0907 33.8282 43.0554 33.8234C43.7169 33.8203 44.3784 33.8194 45.04 33.8201C45.4217 33.8205 45.8032 33.8199 46.1849 33.8168C46.5346 33.8139 46.8843 33.8138 47.234 33.8158C47.4198 33.8162 47.6055 33.8136 47.7913 33.811C48.5508 33.8189 49.0394 33.958 49.6092 34.4726C50.0569 34.9967 50.0708 35.5069 50.0498 36.1861C49.9537 36.8348 49.6574 37.2202 49.1415 37.6059C48.6062 37.9029 48.0207 37.8467 47.4245 37.8425C47.2909 37.8429 47.1574 37.8435 47.0238 37.8443C46.6577 37.846 46.2917 37.8452 45.9257 37.8439C45.5305 37.8431 45.1353 37.8444 44.7402 37.8455C43.9663 37.8472 43.1925 37.8469 42.4186 37.8457C41.7894 37.8448 41.1602 37.8447 40.5311 37.8451C40.3967 37.8452 40.3967 37.8452 40.2596 37.8453C40.0776 37.8455 39.8956 37.8456 39.7136 37.8457C38.007 37.8468 36.3004 37.8455 34.5938 37.8434C33.1306 37.8417 31.6673 37.842 30.204 37.8438C28.5041 37.8459 26.8042 37.8467 25.1043 37.8455C24.9228 37.8454 24.7414 37.8453 24.5599 37.8451C24.4707 37.8451 24.3814 37.845 24.2894 37.845C23.6615 37.8446 23.0335 37.8452 22.4055 37.8461C21.6395 37.8472 20.8736 37.8469 20.1076 37.8448C19.717 37.8438 19.3265 37.8434 18.9359 37.8447C18.5779 37.8459 18.2198 37.8452 17.8617 37.8431C17.672 37.8425 17.4822 37.8438 17.2925 37.8451C16.1254 37.8348 15.2072 37.5319 14.3553 36.7187C13.3548 35.6707 13.1746 34.4623 13.1634 33.0697C13.1624 32.9934 13.1614 32.917 13.1604 32.8384C13.1574 32.5895 13.155 32.3407 13.1525 32.0918C13.1505 31.9179 13.1485 31.744 13.1464 31.5701C13.141 31.115 13.1362 30.6598 13.1315 30.2047C13.1265 29.7392 13.1211 29.2738 13.1157 28.8083C13.1053 27.8969 13.0953 26.9855 13.0858 26.0741C12.9952 26.1652 12.9046 26.2563 12.8113 26.3501C12.4723 26.6909 12.133 27.0314 11.7935 27.3717C11.6472 27.5185 11.501 27.6654 11.3549 27.8124C11.1437 28.0248 10.9322 28.2368 10.7207 28.4488C10.6242 28.546 10.6242 28.546 10.5257 28.6452C10.2231 28.9479 9.9171 29.2407 9.5922 29.5195C9.05956 29.9797 8.56511 30.4791 8.06678 30.9756C8.01507 31.0271 7.96335 31.0785 7.91008 31.1315C7.6372 31.4029 7.3646 31.6746 7.09224 31.9465C6.81205 32.2262 6.53097 32.5049 6.24967 32.7835C6.03211 32.9992 5.8152 33.2156 5.59847 33.4322C5.49511 33.5352 5.39151 33.6381 5.28765 33.7406C5.14256 33.884 4.99843 34.0284 4.85449 34.1729C4.77249 34.2546 4.69049 34.3362 4.606 34.4204C4.23323 34.8563 4.05865 35.2549 4.05257 35.8275C4.04804 35.9692 4.04804 35.9692 4.04341 36.1136C4.21756 37.0508 5.05027 37.7074 5.69937 38.3487C5.80853 38.4575 5.91762 38.5664 6.02666 38.6754C6.25449 38.9028 6.48279 39.1297 6.71148 39.3562C7.00271 39.6447 7.29309 39.934 7.58316 40.2236C7.86232 40.5023 8.14192 40.7805 8.42154 41.0586C8.47387 41.1108 8.5262 41.1629 8.58011 41.2166C9.09881 41.733 9.61993 42.2406 10.1759 42.7172C10.4723 42.977 10.7485 43.2561 11.0258 43.5359C11.0854 43.5956 11.145 43.6554 11.2064 43.7169C11.3936 43.9047 11.5805 44.0928 11.7674 44.2809C11.8956 44.4096 12.0237 44.5382 12.1519 44.6668C12.4635 44.9794 12.7747 45.2923 13.0858 45.6054C13.0886 45.5419 13.0915 45.4785 13.0944 45.4131C13.1091 45.121 13.1279 44.8292 13.1468 44.5373C13.1512 44.4375 13.1556 44.3377 13.1602 44.2349C13.2109 43.5128 13.3902 43.03 13.867 42.4804C14.3912 42.0327 14.9013 42.0188 15.5806 42.0398C16.0865 42.1148 16.4476 42.3025 16.7967 42.6757C17.1532 43.2034 17.2459 43.5727 17.2392 44.2035C17.2396 44.2826 17.24 44.3616 17.2403 44.4431C17.2406 44.6096 17.2399 44.7762 17.2383 44.9427C17.2362 45.1948 17.2382 45.4466 17.2407 45.6986C17.2428 46.9632 17.0609 47.9275 16.168 48.8891C15.2599 49.7308 14.3737 50.0735 13.1427 50.0505C11.5406 49.9752 10.5792 48.9882 9.49586 47.9017C9.40617 47.8125 9.31648 47.7233 9.22407 47.6314C8.98091 47.3895 8.73836 47.147 8.49597 46.9044C8.29253 46.7009 8.08881 46.4976 7.88509 46.2944C7.40423 45.8146 6.92388 45.3343 6.44386 44.8537C5.95056 44.3598 5.45636 43.8668 4.96172 43.3742C4.53496 42.9492 4.10878 42.5236 3.68303 42.0975C3.42966 41.844 3.17608 41.5906 2.92194 41.3379C2.63858 41.056 2.35643 40.7729 2.07436 40.4897C1.99125 40.4073 1.90814 40.325 1.82252 40.2401C1.16307 39.5748 0.634688 38.9 0.311114 38.0126C0.272216 37.9084 0.233317 37.8041 0.19324 37.6967C-0.233792 36.3833 -0.153177 34.7579 0.39046 33.496C0.422435 33.4128 0.45441 33.3296 0.487353 33.2439C1.11971 31.7783 2.70261 30.5805 3.8077 29.4733C3.95088 29.3298 4.094 29.1863 4.2371 29.0428C4.68681 28.5917 5.13671 28.1409 5.5869 27.6903C6.10318 27.1736 6.61881 26.6562 7.1339 26.1383C7.53491 25.7352 7.93647 25.3326 8.33847 24.9305C8.57741 24.6915 8.81612 24.4522 9.05423 24.2123C9.3195 23.9451 9.58594 23.6791 9.85248 23.4132C9.96849 23.2959 9.96849 23.2959 10.0868 23.1762C11.6479 21.6267 13.5859 21.1061 15.5577 22.2594Z" fill="white"/>
<path d="M38.5743 0.390507C39.2788 0.892085 39.8949 1.48723 40.504 2.09813C40.5937 2.18732 40.6834 2.27651 40.7758 2.3684C41.019 2.61027 41.2615 2.85275 41.5039 3.09539C41.7074 3.29893 41.9111 3.50218 42.1148 3.70543C42.5957 4.18521 43.076 4.66551 43.556 5.14612C44.0493 5.64002 44.5435 6.13301 45.0382 6.62557C45.4649 7.0506 45.8911 7.47621 46.3169 7.90227C46.5702 8.15582 46.8238 8.40915 47.078 8.66193C47.3613 8.94382 47.6435 9.2269 47.9255 9.51009C48.0086 9.59245 48.0918 9.67482 48.1774 9.75967C48.8368 10.425 49.3652 11.0998 49.6888 11.9872C49.7471 12.1435 49.7471 12.1435 49.8067 12.303C50.2337 13.6165 50.1531 15.2419 49.6094 16.5038C49.5775 16.587 49.5455 16.6702 49.5125 16.7559C48.8802 18.2214 47.2973 19.4193 46.1922 20.5265C46.049 20.67 45.9059 20.8135 45.7628 20.957C45.3131 21.4081 44.8632 21.8589 44.413 22.3095C43.8967 22.8262 43.3811 23.3436 42.866 23.8615C42.465 24.2646 42.0634 24.6671 41.6614 25.0693C41.4225 25.3083 41.1838 25.5476 40.9457 25.7875C40.6804 26.0546 40.414 26.3206 40.1474 26.5866C40.0701 26.6648 39.9927 26.743 39.9131 26.8236C38.8517 27.8771 37.9028 28.3732 36.4072 28.3683C35.4153 28.3353 34.4996 27.9473 33.7891 27.246C33.0926 26.4231 32.7681 25.5984 32.7634 24.5238C32.7624 24.4448 32.7614 24.3657 32.7604 24.2843C32.7589 24.1185 32.7582 23.9528 32.7583 23.787C32.7576 23.5355 32.7523 23.2844 32.7468 23.033C32.7319 21.5798 32.7319 21.5798 33.2436 20.9521C33.7336 20.4729 34.0761 20.3832 34.7535 20.349C35.3221 20.3665 35.6857 20.4707 36.1458 20.801C36.7293 21.4248 36.7917 22.0207 36.8409 22.8453C36.8522 23.0014 36.8522 23.0014 36.8638 23.1606C36.8821 23.4156 36.8988 23.6705 36.9141 23.9257C36.9552 23.8844 36.9963 23.8431 37.0386 23.8005C37.4693 23.3677 37.9003 22.9352 38.3315 22.5029C38.4921 22.3419 38.6525 22.1808 38.8128 22.0196C39.0444 21.7869 39.2762 21.5545 39.5081 21.3221C39.6142 21.2153 39.6142 21.2153 39.7225 21.1063C40.0431 20.7855 40.3663 20.4735 40.7102 20.1777C41.2083 19.7481 41.6712 19.284 42.1372 18.8201C42.1845 18.7731 42.2318 18.7261 42.2805 18.6776C42.53 18.4295 42.7793 18.1812 43.0284 17.9325C43.284 17.6774 43.5406 17.4232 43.7973 17.1692C43.9964 16.972 44.1948 16.7741 44.393 16.576C44.5328 16.4367 44.6732 16.2981 44.8136 16.1595C45.6775 15.309 45.6775 15.309 45.9534 14.1661C45.9566 14.0258 45.9566 14.0258 45.9599 13.8827C45.7677 12.9171 44.8866 12.2297 44.2151 11.5657C44.0972 11.4481 43.9793 11.3304 43.8615 11.2127C43.6153 10.9669 43.3686 10.7216 43.1215 10.4767C42.8066 10.1646 42.4926 9.85161 42.1789 9.53833C41.8773 9.23724 41.5752 8.9366 41.2732 8.63598C41.2165 8.57951 41.1599 8.52304 41.1015 8.46486C40.3921 7.75376 40.3921 7.75376 39.6477 7.07998C39.0799 6.59458 38.563 6.05348 38.0372 5.52356C37.9278 5.41374 37.8185 5.30394 37.7091 5.19416C37.4438 4.92784 37.1789 4.66121 36.9141 4.39441C36.9129 4.537 36.9129 4.537 36.9117 4.68246C36.9041 5.58316 36.8955 6.48383 36.886 7.38451C36.8812 7.84743 36.8767 8.31035 36.8729 8.77328C36.8693 9.22096 36.8648 9.66863 36.8596 10.1163C36.8578 10.2861 36.8563 10.456 36.8552 10.6258C36.8432 12.3385 36.7907 13.8292 35.5569 15.1393C34.6249 16.0141 33.5992 16.1569 32.3608 16.1523C32.227 16.1529 32.0931 16.1536 31.9592 16.1543C31.5933 16.1561 31.2273 16.1561 30.8613 16.1558C30.4659 16.1557 30.0705 16.1573 29.675 16.1587C28.9011 16.1611 28.1272 16.1619 27.3533 16.1621C26.7243 16.1622 26.0952 16.1628 25.4661 16.1638C23.6816 16.1664 21.8971 16.1677 20.1126 16.1675C20.0165 16.1675 19.9204 16.1675 19.8213 16.1674C19.7251 16.1674 19.6289 16.1674 19.5297 16.1674C17.9693 16.1673 16.4089 16.1701 14.8485 16.1742C13.2453 16.1784 11.6422 16.1805 10.0391 16.1802C9.13941 16.1801 8.23974 16.1809 7.34005 16.1841C6.57429 16.1867 5.80856 16.1874 5.04279 16.1854C4.65223 16.1844 4.26174 16.1844 3.87119 16.187C3.51334 16.1893 3.15561 16.1888 2.79777 16.1863C2.60769 16.1856 2.4176 16.1878 2.22753 16.1902C1.46121 16.1811 0.964968 16.0485 0.390686 15.5272C-0.057026 15.0031 -0.0708667 14.4929 -0.0499112 13.8137C0.0462896 13.1645 0.342643 12.7785 0.859998 12.3938C1.3887 12.1003 1.96025 12.1544 2.54929 12.1599C2.67999 12.1598 2.81069 12.1594 2.94139 12.1589C3.2995 12.1581 3.65756 12.1596 4.01567 12.1616C4.40223 12.1633 4.78878 12.1627 5.17534 12.1624C5.84473 12.1622 6.51411 12.1634 7.1835 12.1656C8.15131 12.1688 9.11913 12.1698 10.0869 12.1703C11.6572 12.1712 13.2275 12.1737 14.7978 12.1774C16.323 12.181 17.8483 12.1838 19.3735 12.1855C19.4675 12.1856 19.5616 12.1857 19.6585 12.1858C20.1302 12.1863 20.602 12.1868 21.0738 12.1873C24.9867 12.1913 28.8996 12.1982 32.8126 12.2069C32.8117 12.0931 32.8108 11.9792 32.8099 11.8619C32.802 10.7859 32.7961 9.70981 32.7923 8.63373C32.7903 8.08058 32.7875 7.52745 32.7831 6.97432C32.7788 6.4399 32.7765 5.9055 32.7755 5.37107C32.7748 5.1678 32.7734 4.96453 32.7713 4.76127C32.7576 3.39797 32.776 2.26529 33.6938 1.17176C34.0168 0.844906 34.3636 0.610243 34.7657 0.390507C34.8354 0.350098 34.9052 0.309689 34.977 0.268055C36.0459 -0.259015 37.5411 -0.168177 38.5743 0.390507Z" fill="white"/>
</g>
<defs>
<clipPath id="clip0_18638_75816">
<rect width="50" height="50" fill="white"/>
</clipPath>
</defs>
</svg>
