<svg width="50" height="50" viewBox="0 0 50 50" fill="none" xmlns="http://www.w3.org/2000/svg">
<g clip-path="url(#clip0_18633_75694)">
<path d="M42.0898 17.6758C42.1606 17.7255 42.2313 17.7752 42.3041 17.8264C43.2035 18.4614 44.082 19.1116 44.9219 19.8242C45.0226 19.9081 45.1235 19.9919 45.2244 20.0756C46.7468 21.3439 48.2366 22.6986 49.5117 24.2187C49.5619 24.2726 49.6122 24.3265 49.6639 24.382C49.8047 24.5361 49.8047 24.5361 50 24.8047C49.9267 25.7556 48.4972 26.8258 47.8479 27.4705C47.6687 27.6487 47.4906 27.8278 47.3125 28.0071C46.6431 28.6773 45.9596 29.2963 45.2148 29.8828C45.0884 29.9875 44.9624 30.0926 44.8368 30.1983C38.8277 35.201 30.9203 38.7919 22.9748 38.1344C18.9734 37.7458 15.2798 36.3784 11.7188 34.5703C11.6365 34.529 11.5543 34.4876 11.4696 34.445C10.4207 33.912 9.44454 33.267 8.46558 32.6172C8.37289 32.5558 8.37289 32.5558 8.27833 32.4931C7.02488 31.66 5.84432 30.7484 4.6875 29.7851C4.59346 29.7094 4.49943 29.6336 4.40254 29.5555C3.57822 28.8806 2.82335 28.1374 2.06909 27.3865C2.01678 27.3346 1.96446 27.2828 1.91056 27.2295C0.366597 25.6973 0.366597 25.6973 0 25.0976C0.0277983 24.7127 0.242173 24.5181 0.500488 24.2431C0.770188 23.9538 1.03564 23.6629 1.29356 23.3631C1.68778 22.9109 2.10782 22.4872 2.53296 22.0642C2.60717 21.9896 2.68138 21.915 2.75784 21.8382C3.22231 21.3745 3.69896 20.9325 4.19922 20.5078C4.26137 20.4548 4.32351 20.4017 4.38755 20.3471C6.5593 18.5062 8.90548 16.936 11.3939 15.5561C11.5901 15.4469 11.785 15.3359 11.9797 15.2241C21.3414 9.99313 31.6955 11.1798 42.0898 17.6758ZM17.3233 18.2026C15.3366 20.4956 14.6667 23.285 14.8438 26.2695C15.0837 28.5978 16.2776 30.5755 17.8711 32.2265C17.9325 32.293 17.994 32.3595 18.0573 32.428C19.3155 33.7574 21.0962 34.5486 22.8516 34.9609C22.9492 34.9848 23.0469 35.0088 23.1476 35.0334C25.7391 35.5648 28.4504 34.8749 30.6641 33.4961C31.0465 33.2267 31.3942 32.9337 31.7383 32.6172C31.7862 32.5734 31.8342 32.5296 31.8836 32.4844C33.704 30.8031 35.0513 28.4341 35.1682 25.9134C35.252 22.8067 34.4597 20.2525 32.3856 17.9016C30.508 15.9284 27.9803 14.8891 25.2857 14.7281C22.2551 14.6594 19.3452 15.9578 17.3233 18.2026ZM13.6719 17.7734C13.4981 17.8357 13.4981 17.8357 13.308 17.9439C13.2325 17.9847 13.157 18.0254 13.0793 18.0674C12.9557 18.1364 12.9557 18.1364 12.8296 18.2068C12.7439 18.2543 12.6583 18.3018 12.57 18.3507C11.0461 19.2128 9.57975 20.2071 8.20312 21.289C8.09026 21.376 7.97734 21.4628 7.86438 21.5496C7.24753 22.0259 6.65072 22.5146 6.07681 23.0427C5.87751 23.2255 5.67435 23.4022 5.46875 23.5779C4.98904 23.9947 4.54656 24.4491 4.10156 24.9023C4.23761 25.2124 4.39496 25.4111 4.64134 25.642C4.71009 25.7067 4.77884 25.7715 4.84967 25.8382C4.92305 25.906 4.99642 25.9738 5.07202 26.0437C5.14741 26.1139 5.2228 26.1841 5.30047 26.2564C5.85997 26.774 6.43254 27.2626 7.03125 27.7344C7.14227 27.8248 7.25314 27.9155 7.36389 28.0063C9.1255 29.4451 11.0148 30.6989 12.9944 31.8176C13.1069 31.8819 13.1069 31.8819 13.2217 31.9475C13.4009 32.0469 13.5849 32.1377 13.7695 32.2265C13.834 32.1943 13.8984 32.1621 13.9648 32.1289C13.9305 32.0754 13.8961 32.0219 13.8607 31.9668C13.1099 30.7611 12.5636 29.4978 12.207 28.125C12.1757 28.0046 12.1443 27.8843 12.112 27.7603C11.3608 24.2801 12.1428 20.9069 13.8672 17.8711C13.7705 17.8227 13.7705 17.8227 13.6719 17.7734ZM36.1328 17.7734C36.1824 17.8692 36.232 17.965 36.2831 18.0637C38.0789 21.5681 38.7079 25.3321 37.5077 29.1533C37.1869 30.1078 36.7113 30.9866 36.2242 31.8651C36.1587 31.9842 36.096 32.1049 36.0352 32.2265C36.4534 32.0998 36.8099 31.9394 37.1864 31.7184C37.3471 31.6241 37.3471 31.6241 37.511 31.528C37.6254 31.4598 37.7397 31.3915 37.854 31.3232C37.9123 31.2886 37.9705 31.2539 38.0306 31.2182C39.6287 30.2655 41.1331 29.1987 42.5781 28.0273C42.6698 27.9546 42.7614 27.8818 42.8558 27.8068C43.5215 27.2731 44.1453 26.701 44.7683 26.119C45.1405 25.7736 45.5199 25.436 45.8984 25.0976C45.7681 24.8084 45.6249 24.6037 45.4014 24.3793C45.3415 24.319 45.2816 24.2587 45.2198 24.1966C45.1557 24.1334 45.0917 24.0702 45.0256 24.0051C44.9593 23.9394 44.8931 23.8737 44.8248 23.806C44.2972 23.2888 43.7447 22.8198 43.1641 22.3633C43.0488 22.2678 42.9339 22.1721 42.8192 22.076C39.7391 19.3092 39.7391 19.3092 36.1328 17.7734Z" fill="white"/>
<path d="M25.1279 17.5842C25.2331 17.5889 25.2331 17.5889 25.3404 17.5938C25.8457 17.7627 26.1609 18.0772 26.4291 18.5336C26.5886 18.8565 26.7359 19.1826 26.8797 19.5129C26.93 19.624 26.9804 19.7351 27.0322 19.8496C27.3016 20.4511 27.5388 21.0503 27.7342 21.6797C27.8336 21.6846 27.933 21.6895 28.0355 21.6945C28.4076 21.713 28.7796 21.7326 29.1515 21.7524C29.312 21.7608 29.4724 21.7689 29.6329 21.7768C29.8647 21.7882 30.0964 21.8006 30.3281 21.8132C30.4342 21.8181 30.4342 21.8181 30.5425 21.8231C31.1491 21.8576 31.7373 21.904 32.2141 22.3083C32.5604 22.7259 32.6784 22.9923 32.7146 23.5351C32.5685 24.3056 32.1631 24.6904 31.5904 25.1789C31.227 25.4955 30.8759 25.8253 30.5241 26.1547C30.255 26.4052 29.9834 26.638 29.6873 26.8555C29.8316 27.7265 30.0401 28.5721 30.2698 29.4241C30.4434 30.0924 30.5956 30.6947 30.3587 31.366C30.05 31.829 29.763 32.0798 29.2234 32.2327C28.1985 32.2965 27.195 31.4778 26.3681 30.9607C26.2035 30.8583 26.0373 30.7585 25.8711 30.6587C25.774 30.5988 25.6769 30.5389 25.5768 30.4772C25.2934 30.3423 25.2934 30.3423 24.9873 30.4364C24.7528 30.5451 24.5417 30.6527 24.3276 30.7964C24.2606 30.8408 24.1936 30.8852 24.1245 30.931C24.0548 30.9778 23.9851 31.0247 23.9134 31.073C23.7657 31.1698 23.6179 31.2664 23.4701 31.3629C23.2697 31.4942 23.0695 31.6255 22.8697 31.7577C21.8498 32.4268 21.8498 32.4268 21.1877 32.3658C20.6358 32.2462 20.3363 32.0008 20.0193 31.543C19.6358 30.7759 20.0323 29.6475 20.2146 28.8696C20.27 28.6289 20.3249 28.3881 20.3794 28.1471C20.404 28.0419 20.4285 27.9368 20.4538 27.8284C20.5047 27.5547 20.5392 27.3274 20.5076 27.0508C20.3942 26.885 20.3942 26.885 20.2249 26.7563C20.1643 26.705 20.1037 26.6538 20.0412 26.601C19.9756 26.548 19.9099 26.495 19.8423 26.4404C19.7759 26.3848 19.7095 26.3292 19.6411 26.272C19.338 26.0191 19.0309 25.7713 18.7235 25.5237C17.4894 24.5294 17.4894 24.5294 17.3826 23.883C17.3502 23.2982 17.5323 22.9151 17.9197 22.4792C18.6799 21.9104 19.9517 21.998 20.8677 21.9116C21.0039 21.8984 21.1402 21.8852 21.2764 21.8719C21.6061 21.84 21.9357 21.8085 22.2654 21.7773C22.3032 21.6599 22.3409 21.5424 22.3798 21.4214C22.5898 20.7935 22.828 20.1775 23.0711 19.5618C23.1153 19.4449 23.1594 19.328 23.205 19.2076C23.4594 18.5672 23.6898 18.019 24.3162 17.6758C24.598 17.5899 24.8336 17.5638 25.1279 17.5842ZM24.9998 23.0469C24.962 23.1281 24.9242 23.2093 24.8853 23.2929C24.8345 23.399 24.7836 23.5052 24.7312 23.6145C24.6814 23.7199 24.6315 23.8252 24.5802 23.9338C24.3409 24.3437 24.1614 24.4711 23.7074 24.6044C23.5374 24.6401 23.5374 24.6401 23.364 24.6765C23.2497 24.701 23.1354 24.7256 23.0177 24.7509C22.9305 24.7686 22.8434 24.7864 22.7537 24.8047C22.9617 25.0698 23.1652 25.3134 23.4068 25.5493C23.7665 25.9188 23.7449 26.2364 23.7402 26.7223C23.7268 27.0328 23.6847 27.3304 23.6326 27.6367C23.7093 27.5944 23.7859 27.5521 23.8649 27.5085C24.9366 26.9405 24.9366 26.9405 25.4881 27.0508C25.8554 27.1964 26.2098 27.3606 26.5623 27.539C26.5507 27.4342 26.5391 27.3293 26.5272 27.2213C26.4051 25.9569 26.4051 25.9569 26.6172 25.5676C26.8739 25.2714 27.1316 25.0439 27.4412 24.8047C27.4412 24.7724 27.4412 24.7402 27.4412 24.707C27.3552 24.6963 27.2692 24.6856 27.1806 24.6746C27.0105 24.6514 27.0105 24.6514 26.8369 24.6277C26.7248 24.6129 26.6126 24.5982 26.497 24.583C26.1559 24.5082 25.9563 24.4355 25.6834 24.2187C25.5075 23.9338 25.5075 23.9338 25.3599 23.6145C25.3099 23.5084 25.2599 23.4022 25.2084 23.2929C25.1718 23.2117 25.1352 23.1305 25.0974 23.0469C25.0652 23.0469 25.033 23.0469 24.9998 23.0469Z" fill="white"/>
<path d="M25.7082 41.1315C26.0566 41.3611 26.2787 41.6195 26.465 41.9921C26.476 42.2113 26.4806 42.4309 26.4823 42.6504C26.4829 42.7181 26.4836 42.7857 26.4842 42.8555C26.4862 43.0799 26.4873 43.3042 26.4883 43.5286C26.4887 43.6053 26.4891 43.682 26.4895 43.761C26.4915 44.1669 26.4929 44.5728 26.4938 44.9787C26.4949 45.3975 26.4983 45.8163 26.5022 46.235C26.5047 46.5574 26.5055 46.8798 26.5059 47.2022C26.5064 47.3565 26.5075 47.5109 26.5093 47.6652C26.5117 47.8817 26.5116 48.098 26.5109 48.3145C26.5118 48.499 26.5118 48.499 26.5126 48.6873C26.4476 49.1458 26.2546 49.4615 25.8962 49.7554C25.3817 50.0153 24.9721 50.0634 24.4142 49.9022C23.9769 49.6755 23.7494 49.4639 23.5353 49.0233C23.4975 48.7016 23.4975 48.7016 23.4959 48.3318C23.4952 48.264 23.4945 48.1963 23.4938 48.1266C23.4921 47.9037 23.4924 47.681 23.493 47.4582C23.4925 47.3026 23.492 47.1471 23.4914 46.9915C23.4906 46.6659 23.4908 46.3403 23.4918 46.0146C23.4929 45.5981 23.4909 45.1817 23.4881 44.7652C23.4863 44.4441 23.4863 44.123 23.4869 43.8018C23.4869 43.6483 23.4863 43.4948 23.4851 43.3413C23.4836 43.1262 23.4847 42.9113 23.4863 42.6963C23.4863 42.5742 23.4864 42.452 23.4864 42.3262C23.5562 41.8497 23.7689 41.5442 24.1274 41.2291C24.6295 40.9214 25.1726 40.9358 25.7082 41.1315Z" fill="white"/>
<path d="M25.5857 -6.80275e-05C26.0351 0.212803 26.2481 0.436999 26.4646 0.878838C26.5018 1.2012 26.5018 1.2012 26.5025 1.57197C26.503 1.63984 26.5036 1.7077 26.5041 1.77763C26.5054 2.00092 26.5045 2.22415 26.5035 2.44744C26.5037 2.60322 26.504 2.75899 26.5044 2.91477C26.5048 3.24083 26.5042 3.56687 26.5028 3.89293C26.5011 4.3103 26.5021 4.72763 26.5039 5.145C26.5049 5.46654 26.5046 5.78808 26.5038 6.10962C26.5036 6.26349 26.5039 6.41736 26.5046 6.57123C26.5053 6.7865 26.5042 7.00169 26.5025 7.21696C26.5023 7.33931 26.5021 7.46166 26.5018 7.58772C26.4408 8.11639 26.1744 8.44483 25.781 8.78899C25.2747 8.95776 24.7237 8.97892 24.2307 8.76458C23.6643 8.29807 23.6643 8.29807 23.5349 7.91009C23.5242 7.68714 23.5194 7.46388 23.5177 7.24068C23.5167 7.13916 23.5167 7.13916 23.5157 7.03559C23.5138 6.81172 23.5126 6.58786 23.5117 6.36399C23.5113 6.28742 23.5109 6.21085 23.5105 6.13195C23.5084 5.72667 23.507 5.32139 23.5061 4.9161C23.505 4.49807 23.5017 4.08008 23.4978 3.66207C23.4952 3.3401 23.4944 3.01815 23.4941 2.69618C23.4936 2.54211 23.4925 2.38805 23.4907 2.23399C23.4883 2.01801 23.4884 1.80215 23.489 1.58615C23.4885 1.46343 23.4879 1.34071 23.4873 1.21426C23.557 0.72365 23.7694 0.414163 24.1579 0.112466C24.6217 -0.0914437 25.0899 -0.0605377 25.5857 -6.80275e-05Z" fill="white"/>
<path d="M34.4392 41.1191C34.8652 41.3663 35.1767 41.6794 35.5211 42.0284C35.6264 42.1337 35.6264 42.1337 35.7339 42.2411C35.8817 42.389 36.0291 42.5374 36.1761 42.6861C36.4013 42.9135 36.6277 43.1396 36.8543 43.3656C36.998 43.5098 37.1415 43.6541 37.285 43.7984C37.3526 43.8659 37.4203 43.9335 37.49 44.0031C37.5526 44.0667 37.6152 44.1302 37.6797 44.1957C37.7348 44.2512 37.7898 44.3067 37.8465 44.3638C38.1958 44.7757 38.2209 45.1333 38.2078 45.6573C38.1741 45.9951 38.0881 46.2081 37.8908 46.4843C37.3688 46.8867 36.9864 47.0172 36.3283 46.9726C35.7701 46.7566 35.4058 46.3888 34.9905 45.9735C34.9205 45.9043 34.8505 45.835 34.7783 45.7636C34.631 45.6173 34.484 45.4706 34.3374 45.3236C34.1138 45.0999 33.8882 44.8784 33.6624 44.6569C33.519 44.514 33.3758 44.371 33.2327 44.2279C33.1655 44.1624 33.0984 44.0968 33.0292 44.0293C32.5599 43.5533 32.2423 43.1002 32.2168 42.4064C32.3279 41.8545 32.4836 41.5603 32.9343 41.2166C33.4044 40.9329 33.9401 40.9199 34.4392 41.1191Z" fill="white"/>
<path d="M16.9124 41.1255C17.29 41.3772 17.5884 41.6368 17.7375 42.0788C17.8296 42.5829 17.7182 43.0071 17.4801 43.4571C17.2564 43.7457 17.0032 43.9979 16.7423 44.2528C16.6702 44.3249 16.598 44.3971 16.5237 44.4714C16.3718 44.6228 16.2193 44.7736 16.0662 44.9239C15.8322 45.1538 15.6003 45.3858 15.3686 45.6181C15.2204 45.7653 15.072 45.9124 14.9234 46.0594C14.8543 46.1286 14.7851 46.1978 14.7138 46.269C14.2785 46.694 13.967 46.9392 13.348 47.0093C12.8165 46.9552 12.3862 46.7732 12.0174 46.3806C11.8424 46.0614 11.7959 45.787 11.7855 45.4285C11.7818 45.3473 11.7782 45.2661 11.7744 45.1824C11.8786 44.5295 12.4633 44.0493 12.9112 43.602C13.0127 43.4999 13.0127 43.4999 13.1162 43.3957C13.2587 43.2527 13.4014 43.1099 13.5444 42.9673C13.7628 42.7492 13.9799 42.5299 14.1969 42.3104C14.3359 42.1712 14.4749 42.0321 14.6141 41.893C14.6787 41.8275 14.7433 41.762 14.8099 41.6945C15.4342 41.0763 16.0453 40.8195 16.9124 41.1255Z" fill="white"/>
<path d="M37.4999 3.12491C37.8286 3.36747 38.052 3.6096 38.1834 4.00381C38.2067 4.22545 38.2067 4.22545 38.214 4.47378C38.2194 4.59558 38.2194 4.59558 38.225 4.71983C38.1205 5.37452 37.5347 5.8531 37.0848 6.30026C37.0169 6.36833 36.949 6.4364 36.8791 6.50653C36.7362 6.64957 36.593 6.79237 36.4497 6.93493C36.2303 7.1532 36.0121 7.3725 35.7939 7.59192C35.6546 7.73109 35.5153 7.8702 35.3758 8.00924C35.3107 8.07475 35.2456 8.14026 35.1785 8.20776C35.1172 8.26842 35.056 8.32908 34.9928 8.39157C34.9394 8.44489 34.8859 8.4982 34.8308 8.55313C34.4257 8.89657 34.0645 8.92894 33.5486 8.91752C33.0646 8.85721 32.7437 8.65222 32.4339 8.27017C32.1897 7.68673 32.2059 7.25857 32.4105 6.67648C32.6029 6.26787 32.9028 5.97826 33.222 5.66473C33.2911 5.59514 33.3601 5.52555 33.4312 5.45385C33.5768 5.30789 33.7231 5.16266 33.8701 5.01814C34.0935 4.79787 34.3136 4.57465 34.5335 4.35095C34.676 4.20886 34.8187 4.06694 34.9616 3.92523C35.0266 3.85901 35.0916 3.79278 35.1586 3.72456C35.8265 3.07606 36.5978 2.71873 37.4999 3.12491Z" fill="white"/>
<path d="M14.599 3.57998C15.0764 4.02663 15.5474 4.47923 16.0127 4.9384C16.1326 5.05622 16.2532 5.17343 16.3743 5.29002C17.6398 6.50857 17.6398 6.50857 17.773 7.32421C17.7785 7.79592 17.6405 8.12547 17.3458 8.48998C16.9705 8.7848 16.7034 8.91584 16.2227 8.92333C16.1424 8.9261 16.0621 8.92887 15.9794 8.93172C15.3263 8.81739 14.8503 8.23879 14.4024 7.78807C14.3343 7.72019 14.2662 7.65231 14.1961 7.58237C14.053 7.43946 13.9102 7.29631 13.7677 7.15293C13.5494 6.93361 13.3301 6.71535 13.1107 6.49718C12.9715 6.35788 12.8324 6.21852 12.6934 6.07909C12.6279 6.01397 12.5624 5.94886 12.4949 5.88177C12.4342 5.8205 12.3735 5.75922 12.311 5.69609C12.2577 5.64262 12.2044 5.58915 12.1495 5.53406C11.8045 5.12717 11.7737 4.76315 11.7851 4.24498C11.8456 3.77302 12.1099 3.51213 12.4386 3.19213C13.2429 2.67507 13.9635 3.0056 14.599 3.57998Z" fill="white"/>
</g>
<defs>
<clipPath id="clip0_18633_75694">
<rect width="50" height="50" fill="white"/>
</clipPath>
</defs>
</svg>
