<svg width="50" height="50" viewBox="0 0 50 50" fill="none" xmlns="http://www.w3.org/2000/svg">
<g clip-path="url(#clip0_18638_75866)">
<path d="M9.00308 5.14525C10.0964 6.03879 10.5411 6.97329 10.7731 8.34349C10.7925 8.45322 10.8119 8.56295 10.8319 8.67601C10.888 8.9963 10.9429 9.31675 10.9972 9.63735C11.0391 9.8841 11.0815 10.1307 11.124 10.3774C11.2036 10.8396 11.2825 11.3019 11.3608 11.7644C11.3921 11.9489 11.4234 12.1335 11.4549 12.318C11.4994 12.5796 11.5432 12.8413 11.5868 13.1031C11.6002 13.1814 11.6136 13.2597 11.6274 13.3405C11.6946 13.7489 11.7335 14.135 11.7191 14.5508C11.3958 14.6144 11.0722 14.6773 10.7487 14.74C10.613 14.7667 10.613 14.7667 10.4746 14.794C9.91361 14.9022 9.35814 14.9836 8.78945 15.039C8.57711 14.3824 8.47969 13.7114 8.37174 13.031C8.35089 12.9022 8.32998 12.7735 8.309 12.6447C8.22053 12.1011 8.13291 11.5574 8.04618 11.0135C7.99289 10.6795 7.93873 10.3457 7.88404 10.0119C7.85359 9.82452 7.82411 9.63693 7.79465 9.44935C7.65571 8.59952 7.65571 8.59952 7.32461 7.81248C6.96296 7.57138 6.66974 7.54182 6.25039 7.61717C5.94578 7.80921 5.79972 7.96358 5.7062 8.31634C5.57045 9.11806 5.46534 9.92295 5.36533 10.7298C5.34609 10.8832 5.32681 11.0367 5.30752 11.1901C5.2556 11.6037 5.20406 12.0173 5.1526 12.4309C5.09857 12.8647 5.04423 13.2985 4.98995 13.7323C4.89895 14.4599 4.8082 15.1874 4.7176 15.915C4.61286 16.756 4.50773 17.5971 4.40239 18.4381C4.30091 19.2484 4.1997 20.0587 4.09861 20.8691C4.05563 21.2136 4.01256 21.5581 3.96941 21.9025C3.91869 22.3075 3.86821 22.7126 3.81791 23.1176C3.79942 23.2663 3.78083 23.4149 3.76217 23.5636C3.73672 23.7663 3.71158 23.969 3.68651 24.1717C3.67236 24.2852 3.65821 24.3987 3.64363 24.5156C3.60696 24.821 3.60696 24.821 3.61367 25.1953C3.66126 25.1491 3.70884 25.1029 3.75787 25.0553C5.14478 23.7617 6.87357 22.8745 8.6918 22.3633C8.85853 22.3162 8.85853 22.3162 9.02863 22.2683C12.0268 21.5714 15.3186 22.1044 17.9264 23.7243C18.7803 24.2752 19.5902 24.8863 20.2416 25.6721C20.4148 25.8076 20.4148 25.8076 20.6791 25.7648C21.149 25.6445 21.6 25.4806 22.0566 25.3177C23.0112 25.0109 23.9604 24.9621 24.9577 24.9634C25.054 24.9633 25.054 24.9633 25.1522 24.9633C26.5527 24.967 27.7927 25.1669 29.0859 25.7191C29.3391 25.7935 29.4465 25.7886 29.6879 25.6836C29.8752 25.5171 29.8752 25.5171 30.0602 25.3052C31.0748 24.2624 32.2732 23.5377 33.5941 22.9492C33.7486 22.8786 33.7486 22.8786 33.9062 22.8065C36.659 21.6448 39.9461 21.755 42.7006 22.821C43.8034 23.2715 44.7928 23.8411 45.7035 24.6094C45.2528 22.7674 44.7993 20.9262 44.3444 19.0853C44.2265 18.6081 44.1087 18.1308 43.991 17.6534C43.693 16.4446 43.3944 15.2359 43.0943 14.0275C42.9569 13.4743 42.8199 12.9209 42.6836 12.3674C42.5535 11.8391 42.4225 11.3111 42.2909 10.7832C42.2421 10.5868 42.1936 10.3904 42.1455 10.1939C42.0789 9.92256 42.0112 9.6515 41.9433 9.38049C41.9148 9.26267 41.9148 9.26267 41.8858 9.14247C41.7598 8.64686 41.6137 8.13266 41.309 7.71483C40.9095 7.50244 40.5982 7.50796 40.1554 7.58055C39.8123 7.72857 39.7347 7.78911 39.5512 8.10545C39.4854 8.37109 39.4334 8.62585 39.3902 8.8951C39.3767 8.97341 39.3633 9.05173 39.3494 9.13242C39.3058 9.38808 39.2637 9.64397 39.2216 9.89989C39.1918 10.0758 39.162 10.2517 39.1321 10.4276C39.057 10.8709 38.9831 11.3143 38.9097 11.7578C38.8453 12.1459 38.7799 12.5339 38.7146 12.9219C38.6015 13.5948 38.4898 14.268 38.3793 14.9414C38.0437 15.0523 37.7941 15.0262 37.4481 14.9666C37.345 14.9491 37.2418 14.9316 37.1355 14.9135C37.0283 14.8945 36.9211 14.8755 36.8107 14.8559C36.7031 14.8377 36.5956 14.8194 36.4847 14.8006C35.6917 14.664 35.6917 14.664 35.352 14.5508C35.4084 13.7062 35.5182 12.8796 35.659 12.0453C35.6796 11.9218 35.7003 11.7984 35.7215 11.6712C35.7649 11.4118 35.8087 11.1525 35.8528 10.8932C35.9085 10.5644 35.963 10.2354 36.0172 9.90641C36.0699 9.58772 36.1239 9.26927 36.1778 8.95079C36.1969 8.83448 36.2159 8.71818 36.2355 8.59835C36.4742 7.21285 36.8013 6.07051 37.9582 5.19408C39.1622 4.42016 40.5429 4.28738 41.9354 4.55664C42.8914 4.86768 43.7583 5.57455 44.2548 6.45076C44.6944 7.3653 44.9241 8.33659 45.1778 9.31452C45.2307 9.51575 45.2837 9.71695 45.3367 9.91815C45.8233 11.7688 46.298 13.6227 46.7703 15.4771C47.0864 16.7176 47.4053 17.9572 47.7324 19.1949C50.2672 28.796 50.2672 28.796 50.1907 32.6568C50.1894 32.7225 50.1881 32.7882 50.1868 32.8558C50.1448 34.6603 49.9637 36.5311 49.2497 38.208C49.2162 38.2885 49.1828 38.369 49.1483 38.452C48.5881 39.7605 47.8328 40.8475 46.8754 41.8945C46.8054 41.9726 46.7354 42.0506 46.6633 42.131C45.6194 43.2377 44.3487 44.0142 42.9691 44.6289C42.8147 44.6995 42.8147 44.6995 42.6571 44.7716C40.4115 45.7192 37.5965 45.8742 35.2543 45.2148C35.1343 45.1816 35.0144 45.1484 34.8908 45.1141C31.8228 44.175 29.3938 42.0925 27.8378 39.3085C26.928 37.5658 26.5016 35.7719 26.5202 33.8135C26.5205 33.7455 26.5208 33.6776 26.5212 33.6076C26.5339 31.7903 26.9284 30.2794 27.6371 28.6133C26.4307 27.809 24.701 27.9773 23.3402 28.2226C23.0084 28.3051 22.6853 28.3996 22.3637 28.5156C22.4014 28.6103 22.4392 28.7049 22.4781 28.8025C23.745 32.0405 23.8722 35.4812 22.4804 38.6982C21.9324 39.9076 21.2061 40.9178 20.3129 41.8945C20.2429 41.9726 20.1729 42.0506 20.1008 42.131C19.0569 43.2377 17.7862 44.0142 16.4066 44.6289C16.3037 44.676 16.2007 44.7231 16.0946 44.7716C13.849 45.7192 11.034 45.8742 8.6918 45.2148C8.57183 45.1816 8.45186 45.1484 8.32826 45.1141C5.26033 44.175 2.83131 42.0925 1.27526 39.3085C0.858677 38.5105 0.519854 37.6886 0.293359 36.8164C0.269767 36.7301 0.246175 36.6438 0.221868 36.5549C-0.0920027 35.2297 -0.0903633 33.8758 -0.0984104 32.5203C-0.098907 32.4489 -0.0994038 32.3776 -0.0999154 32.304C-0.124869 27.7513 0.551358 23.2422 1.14713 18.7382C1.27469 17.7719 1.39781 16.805 1.51977 15.838C1.66764 14.6656 1.81806 13.4935 1.96949 12.3216C2.01236 11.9887 2.05481 11.6558 2.09717 11.3229C2.16361 10.802 2.2318 10.2815 2.30133 9.76103C2.32642 9.57136 2.35096 9.38161 2.37489 9.19179C2.58043 7.56646 2.89894 6.27252 4.22555 5.19064C5.62807 4.1927 7.57822 4.15966 9.00308 5.14525ZM5.61453 27.4944C4.00478 29.0703 3.0219 31.167 2.99059 33.4288C2.99476 36.0013 3.75808 38.1812 5.57633 40.057C7.25548 41.7215 9.48239 42.5195 11.8168 42.5781C14.1591 42.5559 16.3086 41.5671 17.9691 39.9414C19.8112 38.0157 20.4814 35.7702 20.4411 33.1489C20.3614 30.8659 19.2133 28.7982 17.5785 27.2461C14.1004 24.184 8.95661 24.3549 5.61453 27.4944ZM32.177 27.4944C30.5673 29.0703 29.5844 31.167 29.5531 33.4288C29.5573 36.0013 30.3206 38.1812 32.1388 40.057C33.818 41.7215 36.0449 42.5195 38.3793 42.5781C40.7216 42.5559 42.8711 41.5671 44.5316 39.9414C46.3737 38.0157 47.0439 35.7702 47.0036 33.1489C46.9239 30.8659 45.7758 28.7982 44.141 27.2461C40.6629 24.184 35.5191 24.3549 32.177 27.4944Z" fill="white"/>
</g>
<defs>
<clipPath id="clip0_18638_75866">
<rect width="50" height="50" fill="white"/>
</clipPath>
</defs>
</svg>
