<svg width="50" height="50" viewBox="0 0 50 50" fill="none" xmlns="http://www.w3.org/2000/svg">
<g clip-path="url(#clip0_18638_75771)">
<path d="M19.1408 0C23.008 0 26.8752 0 30.8596 0C30.8596 1.28906 30.8596 2.57812 30.8596 3.90625C29.5705 3.90625 28.2815 3.90625 26.9533 3.90625C26.9856 4.9375 27.0178 5.96875 27.051 7.03125C27.3471 7.06952 27.6431 7.10779 27.9482 7.14722C31.936 7.7029 35.5451 9.28248 38.6721 11.8164C39.0926 11.4725 39.4788 11.1111 39.8573 10.7212C39.9459 10.6301 40.0344 10.5391 40.1257 10.4452C40.2638 10.3028 40.4016 10.1601 40.5383 10.0163C40.6723 9.87585 40.808 9.73697 40.9437 9.59816C41.063 9.47411 41.063 9.47411 41.1847 9.34756C41.4065 9.17969 41.4065 9.17969 41.5982 9.20315C41.928 9.32619 42.1494 9.58403 42.3941 9.82857C42.4501 9.88386 42.5061 9.93915 42.5639 9.99612C42.6819 10.1131 42.7995 10.2304 42.9167 10.3481C43.0968 10.5283 43.2789 10.7063 43.4612 10.8843C43.5756 10.9982 43.6899 11.1121 43.804 11.2263C43.8588 11.2795 43.9136 11.3327 43.9701 11.3875C44.1203 11.5405 44.1203 11.5405 44.3361 11.8164C44.2903 12.262 43.9793 12.5032 43.6735 12.8006C43.6173 12.8564 43.5611 12.9122 43.5032 12.9697C43.3237 13.1475 43.1433 13.3242 42.9628 13.501C42.8409 13.6215 42.719 13.742 42.5972 13.8626C42.2987 14.1579 41.9993 14.4522 41.6994 14.7461C42.0167 15.2311 42.3388 15.7026 42.7004 16.156C43.2676 16.9078 43.7074 17.7203 44.1408 18.5547C44.1786 18.6265 44.2164 18.6984 44.2553 18.7724C45.6172 21.3915 46.4794 24.3955 46.5078 27.3586C46.5088 27.4416 46.5098 27.5245 46.5107 27.61C46.5277 29.4771 46.5003 31.2741 46.094 33.1055C46.0762 33.1879 46.0584 33.2703 46.0401 33.3552C45.2278 37.0162 43.4269 40.3723 40.8659 43.1004C40.6745 43.3064 40.4923 43.5146 40.3139 43.7317C39.997 44.1051 39.6327 44.4126 39.258 44.7266C39.1703 44.8022 39.0825 44.8779 38.9921 44.9558C36.0349 47.4767 32.3652 49.2217 28.5158 49.8047C28.4128 49.8216 28.3097 49.8386 28.2035 49.8561C27.1566 50.0149 26.1246 50.0389 25.0673 50.0366C24.9774 50.0366 24.8874 50.0366 24.7947 50.0366C23.3014 50.0331 21.8727 49.9338 20.4104 49.6094C20.3279 49.5916 20.2455 49.5738 20.1606 49.5555C17.5691 48.9805 15.0692 47.9037 12.8908 46.3867C12.7994 46.3239 12.708 46.2611 12.6139 46.1964C11.8887 45.6842 11.2148 45.1151 10.5471 44.5312C10.4976 44.4881 10.4482 44.445 10.3973 44.4005C9.81562 43.8904 9.28426 43.367 8.78926 42.7734C8.70807 42.6813 8.62687 42.5891 8.54321 42.4942C7.46881 41.2691 6.61653 39.9168 5.85957 38.4766C5.82346 38.4082 5.78735 38.3398 5.75014 38.2694C4.38444 35.644 3.5122 32.6271 3.49599 29.6555C3.49496 29.529 3.49496 29.529 3.49391 29.4001C3.49221 29.1297 3.49158 28.8593 3.49141 28.5889C3.49134 28.4966 3.49128 28.4043 3.49121 28.3092C3.49271 26.9885 3.52594 25.7089 3.80879 24.4141C3.82555 24.3319 3.84231 24.2498 3.85958 24.1652C4.57251 20.7018 6.07687 17.5884 8.30098 14.8437C7.95703 14.4232 7.59572 14.037 7.20578 13.6585C7.06916 13.5257 7.06916 13.5257 6.92979 13.3902C6.78738 13.252 6.64463 13.1143 6.5009 12.9775C6.36042 12.8435 6.22155 12.7078 6.08273 12.5721C6.00004 12.4926 5.91734 12.4131 5.83213 12.3311C5.66426 12.1094 5.66426 12.1094 5.68773 11.9176C5.81076 11.5878 6.0686 11.3664 6.31314 11.1217C6.36843 11.0657 6.42373 11.0097 6.4807 10.9519C6.59763 10.834 6.71495 10.7164 6.83263 10.5991C7.01284 10.419 7.19087 10.2369 7.36886 10.0546C7.48273 9.94021 7.59672 9.82596 7.71085 9.71184C7.79067 9.62961 7.79067 9.62961 7.87211 9.54572C8.02511 9.39548 8.02511 9.39548 8.30098 9.17969C8.74655 9.22552 8.98779 9.53652 9.28517 9.8423C9.34098 9.89852 9.39678 9.95474 9.45428 10.0127C9.63207 10.1921 9.80881 10.3725 9.98555 10.553C10.106 10.6749 10.2266 10.7968 10.3472 10.9186C10.6425 11.2171 10.9368 11.5165 11.2307 11.8164C11.7447 11.478 12.2491 11.1319 12.7443 10.7666C15.7636 8.59569 19.2721 7.43984 22.9494 7.03125C22.9816 6 23.0139 4.96875 23.0471 3.90625C21.758 3.90625 20.469 3.90625 19.1408 3.90625C19.1408 2.61719 19.1408 1.32812 19.1408 0ZM12.3495 16.36C10.1749 18.5472 8.63244 21.4215 7.91036 24.4141C7.89121 24.4903 7.87206 24.5666 7.85232 24.6452C7.24272 27.1698 7.27063 30.1029 7.91036 32.6172C7.93077 32.6998 7.95117 32.7824 7.9722 32.8675C9.14612 37.4884 12.2439 41.3457 16.3067 43.7675C18.4248 44.9947 20.8049 45.7593 23.2424 45.9961C23.3399 46.0059 23.3399 46.0059 23.4393 46.0159C27.9645 46.444 32.5717 45.0055 36.0763 42.1222C39.0239 39.6398 41.1807 36.3859 42.09 32.6172C42.1092 32.5409 42.1283 32.4646 42.1481 32.3861C42.7577 29.8614 42.7298 26.9283 42.09 24.4141C42.0696 24.3315 42.0492 24.2489 42.0282 24.1638C40.8543 19.5429 37.7565 15.6856 33.6937 13.2637C31.9522 12.2548 30.0929 11.6258 28.1252 11.2305C28.0123 11.2076 27.8994 11.1846 27.783 11.161C22.0566 10.1518 16.4007 12.3524 12.3495 16.36Z" fill="white"/>
<path d="M25.293 15.625C26.0517 16.1054 26.8057 16.5924 27.5574 17.0837C27.6597 17.1505 27.7619 17.2173 27.8673 17.2861C28.116 17.4485 28.3647 17.6109 28.6133 17.7734C28.4478 18.2707 28.1599 18.6792 27.8721 19.112C27.7876 19.2401 27.7876 19.2401 27.7014 19.3709C27.5805 19.554 27.4594 19.737 27.3381 19.9198C27.1632 20.1835 26.989 20.4475 26.8148 20.7117C25.5405 22.6391 24.2421 24.5495 22.9492 26.4648C26.7842 26.4971 30.6191 26.5293 34.5703 26.5625C34.1504 27.2224 33.7299 27.8807 33.3 28.5339C33.2459 28.6163 33.1917 28.6987 33.1359 28.7835C32.9591 29.0524 32.7821 29.3211 32.605 29.5898C32.5433 29.6836 32.4815 29.7773 32.4179 29.8738C31.4433 31.3528 30.4575 32.8239 29.4644 34.2905C28.4009 35.8616 27.3539 37.4432 26.3136 39.0297C25.2419 40.6631 25.2419 40.6631 24.707 41.4062C23.9483 40.9259 23.1943 40.4388 22.4426 39.9475C22.3403 39.8807 22.2381 39.8139 22.1327 39.7451C21.884 39.5828 21.6353 39.4203 21.3867 39.2578C21.5522 38.7605 21.8401 38.3521 22.1279 37.9192C22.1842 37.8338 22.2406 37.7484 22.2986 37.6604C22.4195 37.4773 22.5406 37.2943 22.6619 37.1115C22.8368 36.8478 23.011 36.5837 23.1852 36.3195C24.4595 34.3921 25.7579 32.4817 27.0508 30.5664C23.2158 30.5342 19.3809 30.502 15.4297 30.4688C15.8496 29.8089 16.2701 29.1506 16.7 28.4973C16.7541 28.4149 16.8083 28.3326 16.8641 28.2477C17.0409 27.9788 17.2179 27.7101 17.395 27.4414C17.4567 27.3477 17.5185 27.254 17.5821 27.1574C18.5567 25.6784 19.5425 24.2074 20.5356 22.7407C21.5991 21.1696 22.6461 19.5881 23.6864 18.0016C24.7581 16.3682 24.7581 16.3682 25.293 15.625Z" fill="white"/>
</g>
<defs>
<clipPath id="clip0_18638_75771">
<rect width="50" height="50" fill="white"/>
</clipPath>
</defs>
</svg>
