<svg width="28" height="28" viewBox="0 0 28 28" fill="none" xmlns="http://www.w3.org/2000/svg">
<path d="M22.5441 0C25.5573 1.08984e-05 27.9999 2.50724 27.9999 5.60003V22.4C27.9999 25.4928 25.5573 28 22.5441 28H6.17635C3.19393 28 0.770842 25.5437 0.72168 22.4945H2.222C2.27093 24.6931 4.02258 26.46 6.17635 26.46H22.5441C24.7286 26.46 26.4996 24.6422 26.4996 22.4V5.60003C26.4996 3.35776 24.7286 1.54001 22.5441 1.54H6.17635C4.17902 1.54003 2.52781 3.05958 2.2594 5.03378H0.748161C1.0247 2.20693 3.34938 3.22466e-05 6.17635 0H22.5441Z" fill="white"/>
<path d="M3.27377 20.3422V13.2623H5.09253V11.6133H3.25645V11.1652C3.25645 10.0898 3.60288 9.17566 4.6595 9.17566C5.05789 9.17566 5.33504 9.24736 5.57754 9.33698L5.71611 7.63421C5.387 7.52667 4.93664 7.41913 4.36503 7.41913C3.6202 7.41913 2.78877 7.65214 2.16519 8.26155C1.43769 8.9785 1.14322 10.1077 1.14322 11.2369V11.6133H0V13.2623H1.14322V20.3422H3.27377Z" fill="white"/>
<path d="M6.43211 20.3422H8.56266V15.1981C8.56266 14.9471 8.59731 14.6783 8.66659 14.499C8.89177 13.8359 9.4807 13.2085 10.3295 13.2085C11.49 13.2085 11.9404 14.1585 11.9404 15.4132V20.3422H14.0709V15.1622C14.0709 12.402 12.5466 11.4161 11.0743 11.4161C9.67124 11.4161 8.7532 12.2406 8.37213 12.9217H8.32016L8.21623 11.6133H6.36283C6.39747 12.3661 6.43211 13.2085 6.43211 14.2123V20.3422Z" fill="white"/>
<path d="M16.1195 8.69172V10.5199H21.4372V10.5558L16.6911 20.3422H18.9255L23.689 10.1077V8.69172H16.1195Z" fill="white"/>
</svg>
