<svg width="52" height="41" viewBox="0 0 52 41" fill="none" xmlns="http://www.w3.org/2000/svg">
<g clip-path="url(#clip0_18638_75954)">
<path d="M11.8182 40.3032V19.8037L5.58736 13.9876L0 10.76V36.6856C0 38.6873 1.58945 40.3032 3.54555 40.3032H11.8182Z" fill="#4285F4"/>
<path d="M40.1816 40.303H48.4543C50.4163 40.303 51.9999 38.681 51.9999 36.6854V10.76L45.6713 14.4568L40.1816 19.8035V40.303Z" fill="#34A853"/>
<path d="M11.8181 19.8035L10.9702 11.7938L11.8181 4.12769L25.9998 14.9803L40.1816 4.12769L41.13 11.3799L40.1816 19.8035L25.9998 30.6562L11.8181 19.8035Z" fill="#EA4335"/>
<path d="M40.1816 4.12771V19.8036L51.9999 10.7598V5.93641C51.9999 1.46284 46.9949 -1.08742 43.491 1.59548L40.1816 4.12771Z" fill="#FBBC04"/>
<path d="M0 10.7599L5.43542 14.9195L11.8182 19.8037V4.1278L8.50891 1.59557C4.99891 -1.08753 0 1.46293 0 5.9363V10.7599Z" fill="#C5221F"/>
</g>
<defs>
<clipPath id="clip0_18638_75954">
<rect width="52" height="40" fill="white" transform="translate(0 0.5)"/>
</clipPath>
</defs>
</svg>
