<svg width="50" height="50" viewBox="0 0 50 50" fill="none" xmlns="http://www.w3.org/2000/svg">
<g clip-path="url(#clip0_18638_75775)">
<path d="M33.0079 1.95318C33.1117 2.00932 33.2154 2.06547 33.3223 2.12331C34.3448 2.69517 35.251 3.39889 36.1081 4.19508C36.2612 4.33384 36.4196 4.46694 36.5815 4.59524C36.9358 4.88161 37.2095 5.21703 37.5001 5.56646C37.5434 5.61776 37.5866 5.66906 37.6312 5.72191C40.6432 9.30763 41.7908 13.6367 41.4843 18.267C41.1694 21.5339 39.7367 24.4279 37.7958 27.0146C36.6208 28.6117 35.9169 30.42 35.5165 32.3487C35.4931 32.461 35.4931 32.461 35.4692 32.5756C35.2116 33.926 35.2354 35.3122 35.2231 36.6814C35.2211 36.8721 35.2191 37.0629 35.217 37.2536C35.2116 37.7509 35.2068 38.2483 35.202 38.7456C35.1971 39.255 35.1917 39.7644 35.1863 40.2737C35.1759 41.2697 35.166 42.2657 35.1564 43.2618C34.0607 43.2618 32.965 43.2618 31.8361 43.2618C31.8139 43.5256 31.7917 43.7895 31.7689 44.0613C31.5975 45.7431 30.859 47.0466 29.6876 48.2422C29.6298 48.3035 29.5721 48.3648 29.5125 48.428C28.2194 49.6868 26.4521 50.0522 24.7147 50.0482C22.9385 50.0036 21.4704 49.2983 20.215 48.0469C20.1383 47.9725 20.0616 47.8981 19.9826 47.8215C19.115 46.9274 18.6145 45.8428 18.3595 44.629C18.3373 44.5262 18.3152 44.4235 18.2924 44.3177C18.2535 43.9677 18.2618 43.6139 18.2618 43.2618C17.1339 43.2618 16.006 43.2618 14.8439 43.2618C14.8424 42.9781 14.841 42.6944 14.8396 42.4022C14.8346 41.4585 14.8281 40.5149 14.8208 39.5712C14.8165 38.9998 14.8127 38.4284 14.81 37.857C14.8075 37.3042 14.8035 36.7514 14.7986 36.1987C14.797 35.9892 14.7959 35.7796 14.7953 35.5701C14.7845 32.2275 13.936 29.1278 11.8607 26.4532C11.3611 25.8063 10.9426 25.1285 10.547 24.4141C10.5138 24.3553 10.4806 24.2966 10.4464 24.236C9.30964 22.2 8.58799 19.795 8.57403 17.4569C8.57347 17.3819 8.57292 17.307 8.57234 17.2298C8.57143 17.0718 8.57078 16.9137 8.57041 16.7556C8.56947 16.5201 8.56644 16.2847 8.56335 16.0492C8.55348 14.6144 8.74635 13.2305 9.15539 11.8531C9.1929 11.7249 9.1929 11.7249 9.23116 11.5942C9.47454 10.7898 9.7865 10.0311 10.1564 9.2774C10.1853 9.21733 10.2142 9.15727 10.244 9.09539C10.9825 7.57646 11.9631 6.22664 13.1446 5.02267C13.2738 4.89063 13.4007 4.75635 13.5274 4.62194C15.5095 2.55978 18.2351 1.08536 20.9962 0.390678C21.1155 0.360088 21.1155 0.360088 21.2373 0.32888C25.1553 -0.626441 29.5019 0.00276432 33.0079 1.95318ZM20.8986 3.61333C20.789 3.64833 20.6795 3.68333 20.5667 3.71938C16.9555 5.00194 14.2556 7.7528 12.6178 11.164C11.8699 12.8273 11.562 14.6179 11.5785 16.4307C11.5788 16.5005 11.5791 16.5703 11.5794 16.6422C11.5866 17.8019 11.6813 18.9036 12.0118 20.0196C12.0328 20.0909 12.0537 20.1622 12.0753 20.2357C12.5763 21.8855 13.3773 23.3486 14.3956 24.7353C16.1981 27.1964 17.3764 30.004 17.7259 33.046C17.7347 33.3794 17.7347 33.3794 17.8712 33.4961C18.048 33.5053 18.2252 33.5076 18.4022 33.5072C18.5156 33.5072 18.629 33.5072 18.7458 33.5072C18.8692 33.5067 18.9926 33.5062 19.1198 33.5057C19.2453 33.5055 19.3709 33.5054 19.5003 33.5053C19.8347 33.5049 20.1691 33.5039 20.5036 33.5028C20.8446 33.5019 21.1856 33.5014 21.5266 33.5009C22.1962 33.4999 22.8657 33.4982 23.5353 33.4961C23.6777 32.1148 23.7738 30.7334 23.8282 29.3458C23.8343 29.1934 23.8343 29.1934 23.8404 29.0381C23.9256 26.5994 23.9061 24.4955 22.1804 22.6321C21.8655 22.3076 21.5337 22.0057 21.1915 21.7103C21.1355 21.6618 21.0794 21.6134 21.0217 21.5635C20.3284 20.9709 19.608 20.4267 18.8478 19.9219C19.09 19.4134 19.467 19.0676 19.861 18.6707C19.936 18.5925 20.011 18.5142 20.0883 18.4336C20.1611 18.3602 20.2338 18.2867 20.3088 18.211C20.4082 18.1097 20.4082 18.1097 20.5096 18.0063C20.7032 17.8711 20.7032 17.8711 20.8855 17.8884C21.1532 17.9917 21.2948 18.1346 21.4968 18.3385C21.575 18.4167 21.6531 18.4949 21.7337 18.5754C21.8171 18.6604 21.9005 18.7453 21.9865 18.8328C22.0727 18.9194 22.1588 19.006 22.2476 19.0951C22.4761 19.325 22.7039 19.5555 22.9315 19.7863C23.164 20.0218 23.3974 20.2565 23.6306 20.4913C24.0879 20.9518 24.5443 21.4131 25.0001 21.8751C25.5346 21.4296 26.0294 20.9564 26.5195 20.4629C26.5966 20.3856 26.6736 20.3084 26.753 20.2289C26.997 19.9844 27.2406 19.7395 27.4842 19.4947C27.6505 19.328 27.8167 19.1613 27.983 18.9946C28.3887 18.5878 28.7941 18.1808 29.1993 17.7735C29.5592 18.078 29.9168 18.3806 30.2488 18.7157C30.3082 18.7755 30.3677 18.8353 30.429 18.8969C30.4885 18.9572 30.548 19.0175 30.6092 19.0796C30.6714 19.1422 30.7335 19.2048 30.7975 19.2692C30.9486 19.4215 31.0995 19.5739 31.2501 19.7266C31.1079 20.0807 30.9363 20.2253 30.6203 20.4329C28.9728 21.561 26.8751 23.0606 26.4347 25.13C26.2017 26.517 26.2293 27.9329 26.2819 29.3335C26.2857 29.436 26.2895 29.5384 26.2935 29.644C26.3453 30.9331 26.4488 32.2095 26.5626 33.4961C28.4318 33.4961 30.3009 33.4961 32.2267 33.4961C32.3878 32.626 32.5489 31.7559 32.715 30.8594C32.8386 30.3934 32.9589 29.9554 33.1178 29.5044C33.1549 29.3966 33.1921 29.2887 33.2304 29.1776C33.8179 27.5333 34.6693 26.1043 35.6994 24.7037C37.8977 21.7006 38.925 18.1373 38.3966 14.4088C38.3379 14.0623 38.2652 13.7207 38.1837 13.379C38.1685 13.3124 38.1533 13.2459 38.1376 13.1774C37.7428 11.5046 36.9743 9.86677 35.9376 8.49615C35.8719 8.40891 35.8062 8.32167 35.7385 8.23179C33.595 5.50765 30.5186 3.5543 27.0501 3.08533C24.9438 2.84863 22.9267 2.96139 20.8986 3.61333ZM17.8712 36.5235C17.8712 37.7481 17.8712 38.9727 17.8712 40.2344C22.5763 40.2344 27.2814 40.2344 32.129 40.2344C32.129 39.0098 32.129 37.7852 32.129 36.5235C27.4239 36.5235 22.7189 36.5235 17.8712 36.5235ZM21.2892 43.2618C21.4139 44.5089 21.769 45.3518 22.6686 46.2098C23.5698 46.9249 24.5648 47.1027 25.6833 47.0003C26.5896 46.8726 27.3344 46.3811 27.9298 45.7032C28.5077 44.8992 28.6983 44.2556 28.8087 43.2618C26.3273 43.2618 23.8458 43.2618 21.2892 43.2618Z" fill="white"/>
</g>
<defs>
<clipPath id="clip0_18638_75775">
<rect width="50" height="50" fill="white"/>
</clipPath>
</defs>
</svg>
