<svg width="44" height="44" viewBox="0 0 44 44" fill="none" xmlns="http://www.w3.org/2000/svg">
<g clip-path="url(#clip0_18638_75718)">
<path d="M0 0C1.13437 0 2.26875 0 3.4375 0C3.46586 10.9751 3.49422 21.9502 3.52344 33.2578C4.00555 32.0951 4.48766 30.9323 4.98438 29.7344C5.48739 28.5253 5.48739 28.5253 5.73087 27.9415C5.83445 27.6931 5.93799 27.4447 6.04152 27.1963C6.37413 26.3983 6.70689 25.6003 7.03977 24.8024C7.90657 22.7245 8.77058 20.6455 9.625 18.5625C9.88117 18.6777 10.0601 18.8044 10.258 19.003C10.3135 19.0582 10.3689 19.1134 10.426 19.1702C10.5158 19.2609 10.5158 19.2609 10.6073 19.3534C10.6711 19.4172 10.7348 19.4809 10.8005 19.5466C11.0111 19.7573 11.2211 19.9686 11.431 20.1799C11.5769 20.3261 11.7229 20.4723 11.8689 20.6184C12.2529 21.0032 12.6365 21.3884 13.02 21.7738C13.4114 22.167 13.8033 22.5596 14.1951 22.9524C14.9639 23.723 15.7321 24.4941 16.5 25.2656C16.9358 24.3463 17.3026 23.4 17.6773 22.4545C17.7516 22.2675 17.8259 22.0805 17.9003 21.8936C18.0586 21.4952 18.2169 21.0968 18.375 20.6984C18.7485 19.7574 19.1226 18.8166 19.4967 17.8759C19.5813 17.6631 19.6659 17.4503 19.7505 17.2375C20.5713 15.1725 21.3954 13.1089 22.2211 11.0459C22.3171 10.8062 22.413 10.5665 22.5089 10.3268C22.8548 9.46261 23.2008 8.59846 23.5469 7.73438C23.632 7.73438 23.717 7.73438 23.8047 7.73438C23.9135 7.84922 23.9135 7.84922 24.0232 8.01359C24.0651 8.07551 24.107 8.13744 24.1502 8.20124C24.1955 8.27006 24.2408 8.33888 24.2874 8.40979C24.3356 8.48152 24.3838 8.55326 24.4334 8.62716C24.5935 8.86611 24.7523 9.10589 24.9111 9.3457C25.0229 9.51311 25.1347 9.68047 25.2466 9.8478C25.5981 10.3742 25.9477 10.9018 26.2969 11.4297C26.3525 11.5137 26.4081 11.5978 26.4654 11.6844C26.9969 12.4879 27.5271 13.2923 28.0562 14.0974C28.8676 15.3319 29.6868 16.561 30.5078 17.7891C31.389 15.6943 32.2256 13.582 33.0641 11.4699C33.4735 10.4387 33.8836 9.40777 34.2938 8.37689C34.3343 8.27507 34.3748 8.17325 34.4165 8.06835C35.1483 6.22926 35.8846 4.39205 36.6255 2.55664C36.6501 2.49557 36.6748 2.4345 36.7002 2.37157C36.9847 1.66684 37.2695 0.962237 37.5547 0.257812C37.6398 0.257812 37.7248 0.257812 37.8125 0.257812C38.4095 1.48513 39.0026 2.71373 39.5742 3.95312C39.9527 4.77364 40.3396 5.58957 40.7344 6.40234C41.1765 7.31273 41.607 8.22799 42.0308 9.14708C42.4289 10.008 42.8398 10.8624 43.2551 11.7152C43.3897 11.992 43.5231 12.2694 43.6562 12.5469C43.6938 12.623 43.7313 12.6992 43.77 12.7777C43.8024 12.8457 43.8347 12.9136 43.8681 12.9836C43.896 13.0411 43.9239 13.0986 43.9526 13.1578C44.0161 13.3755 44.0185 13.4601 43.9141 13.6641C43.7217 13.7853 43.5429 13.8817 43.338 13.9766C43.251 14.0185 43.251 14.0185 43.1623 14.0612C43.0395 14.1201 42.9163 14.1783 42.793 14.236C42.6048 14.3241 42.4177 14.4139 42.2306 14.5041C42.111 14.5611 41.9914 14.618 41.8717 14.6748C41.8159 14.7015 41.7601 14.7282 41.7027 14.7557C41.4105 14.8917 41.1399 14.9926 40.8203 15.0391C40.1286 13.6202 39.4429 12.1993 38.7838 10.7649C38.5273 10.2077 38.2628 9.65594 37.9844 9.10938C37.8473 9.31506 37.7598 9.47705 37.6695 9.70217C37.642 9.7702 37.6145 9.83822 37.5862 9.90831C37.5565 9.98285 37.5267 10.0574 37.496 10.1342C37.4642 10.2133 37.4324 10.2924 37.3996 10.3738C37.2931 10.6385 37.1871 10.9033 37.081 11.1682C37.0056 11.3559 36.9302 11.5436 36.8548 11.7313C36.6937 12.1324 36.5328 12.5336 36.372 12.9349C36.1628 13.4569 35.9532 13.9789 35.7435 14.5008C34.9521 16.4706 34.1628 18.4412 33.3849 20.4165C33.29 20.6575 33.1949 20.8986 33.0998 21.1396C33.039 21.2936 32.9782 21.4477 32.9175 21.6018C32.8882 21.6759 32.859 21.75 32.8289 21.8264C32.6575 22.2613 32.487 22.6965 32.3172 23.1321C32.2133 23.3981 32.1087 23.6637 32.0038 23.9293C31.956 24.0511 31.9084 24.173 31.8613 24.2951C31.7978 24.4592 31.7331 24.6228 31.6683 24.7865C31.6327 24.8776 31.5971 24.9688 31.5604 25.0627C31.4531 25.2656 31.4531 25.2656 31.1953 25.3516C31.1568 25.2928 31.1568 25.2928 31.1175 25.2329C29.7898 23.2091 28.4531 21.1918 27.0972 19.1868C26.9956 19.0366 26.894 18.8863 26.7924 18.7361C26.7432 18.6634 26.694 18.5907 26.6434 18.5158C26.1579 17.7975 25.6762 17.0767 25.1958 16.355C25.1589 16.2995 25.122 16.2441 25.0839 16.1869C24.8865 15.8903 24.6893 15.5937 24.4922 15.2969C24.2354 15.794 24.0149 16.2958 23.8097 16.8162C23.7776 16.897 23.7455 16.9778 23.7124 17.0611C23.606 17.3287 23.5001 17.5965 23.3941 17.8643C23.3185 18.0547 23.2429 18.2451 23.1672 18.4356C23.0063 18.8405 22.8456 19.2456 22.6851 19.6506C22.309 20.5994 21.932 21.5477 21.555 22.4961C21.4709 22.7077 21.3867 22.9194 21.3026 23.1311C20.56 24.9994 19.8131 26.8659 19.0613 28.7305C18.9814 28.9288 18.9015 29.127 18.8217 29.3253C18.6985 29.631 18.5753 29.9366 18.452 30.2422C18.3867 30.4039 18.3215 30.5656 18.2563 30.7273C18.2182 30.8215 18.1801 30.9158 18.1408 31.0129C18.1079 31.0944 18.075 31.176 18.041 31.26C17.9898 31.3835 17.9348 31.5055 17.875 31.625C17.6188 31.5098 17.4399 31.3831 17.242 31.1845C17.1865 31.1293 17.1311 31.0741 17.074 31.0173C16.9842 30.9266 16.9842 30.9266 16.8927 30.8341C16.8289 30.7703 16.7652 30.7066 16.6995 30.6409C16.4889 30.4302 16.2789 30.2189 16.069 30.0076C15.9231 29.8614 15.7771 29.7152 15.6311 29.5691C15.2471 29.1843 14.8635 28.7991 14.48 28.4137C14.0886 28.0205 13.6967 27.6279 13.3049 27.2351C12.5361 26.4645 11.7679 25.6934 11 24.9219C10.8289 25.093 10.7754 25.1917 10.686 25.4107C10.6588 25.4767 10.6316 25.5427 10.6036 25.6106C10.5742 25.6831 10.5448 25.7556 10.5146 25.8303C10.4833 25.9065 10.452 25.9827 10.4198 26.0612C10.3516 26.2274 10.2836 26.3936 10.2158 26.56C10.0694 26.9188 9.92217 27.2772 9.77495 27.6356C9.69781 27.8235 9.62072 28.0113 9.54367 28.1992C9.14654 29.1672 8.7443 30.133 8.34131 31.0986C8.26973 31.2702 8.19816 31.4418 8.12659 31.6134C8.01859 31.8723 7.91059 32.1313 7.80257 32.3902C7.54621 33.0047 7.29025 33.6193 7.03445 34.234C6.92359 34.5003 6.81273 34.7667 6.70186 35.033C6.63379 35.1966 6.56573 35.3601 6.4977 35.5237C5.79821 37.2057 5.0897 38.8836 4.38281 40.5625C17.4565 40.5625 30.5302 40.5625 44 40.5625C44 41.6969 44 42.8312 44 44C29.48 44 14.96 44 0 44C0 29.48 0 14.96 0 0Z" fill="white"/>
</g>
<defs>
<clipPath id="clip0_18638_75718">
<rect width="44" height="44" fill="white"/>
</clipPath>
</defs>
</svg>
