<svg width="80" height="81" viewBox="0 0 80 81" fill="none" xmlns="http://www.w3.org/2000/svg">
<rect width="80" height="80" transform="translate(0 0.5)" fill="white"/>
<path d="M47.1873 3.46882C47.374 3.52018 47.5607 3.57154 47.7531 3.62446C51.9602 4.88967 55.6825 7.80038 57.856 11.634C59.7507 15.1989 60.2137 18.703 60.1755 22.6876C60.174 22.9773 60.1725 23.267 60.1713 23.5567C60.1679 24.2566 60.1625 24.9564 60.156 25.6563C60.3491 25.6541 60.5422 25.6518 60.7412 25.6495C61.1895 25.6497 61.6045 25.6653 62.0432 25.7656C62.2025 25.8017 62.2025 25.8017 62.365 25.8387C62.4739 25.8655 62.5828 25.8923 62.6951 25.92C62.8109 25.9482 62.9268 25.9765 63.0462 26.0056C67.1261 27.042 70.6276 29.7335 72.8123 33.3126C74.3868 36.084 75.0477 38.7745 75.0452 41.9506C75.0461 42.1864 75.0471 42.4223 75.0483 42.6581C75.0511 43.2942 75.0518 43.9302 75.052 44.5662C75.0523 44.9652 75.0529 45.3641 75.0537 45.7631C75.0566 47.1593 75.0579 48.5556 75.0577 49.9519C75.0575 51.246 75.0608 52.5401 75.0657 53.8342C75.0698 54.9512 75.0715 56.0682 75.0713 57.1852C75.0712 57.8497 75.0721 58.5141 75.0754 59.1786C75.1026 64.9924 74.024 69.5417 69.9546 73.8472C68.1754 75.5714 65.8213 76.8712 63.4373 77.5313C63.2997 77.5706 63.1621 77.6098 63.0204 77.6502C61.2385 78.0956 59.4847 78.0673 57.6586 78.0632C57.2993 78.0641 56.9399 78.0652 56.5806 78.0665C55.6102 78.0692 54.6398 78.0691 53.6693 78.0682C52.8567 78.0677 52.044 78.0686 51.2314 78.0696C49.2035 78.0719 47.1755 78.0714 45.1476 78.0695C43.3925 78.0679 41.6373 78.0699 39.8822 78.0737C38.0736 78.0775 36.2649 78.0789 34.4563 78.0779C33.4435 78.0774 32.4307 78.0778 31.4178 78.0805C30.4648 78.0829 29.5118 78.0823 28.5587 78.0793C28.2109 78.0788 27.863 78.0792 27.5152 78.0809C22.6255 78.1022 18.3699 76.6204 14.8435 73.1563C12.1897 70.3364 10.301 66.5314 10.2903 62.6077C10.2894 62.4097 10.2885 62.2118 10.2876 62.0078C10.2874 61.7912 10.2872 61.5746 10.2871 61.3579C10.2864 61.1276 10.2856 60.8972 10.2847 60.6669C10.2827 60.0431 10.2817 59.4193 10.281 58.7955C10.2805 58.4048 10.2799 58.014 10.2792 57.6232C10.277 56.3976 10.2755 55.172 10.2749 53.9463C10.2742 52.5372 10.2715 51.1281 10.267 49.7191C10.2636 48.6262 10.262 47.5334 10.2618 46.4406C10.2616 45.7897 10.2607 45.1388 10.2579 44.4878C10.2553 43.8743 10.255 43.2608 10.2564 42.6472C10.2565 42.4239 10.2558 42.2007 10.2543 41.9774C10.2243 37.4277 12.0119 33.4262 15.1169 30.1583C19.0664 26.3741 23.896 25.4408 29.1795 25.4646C29.4601 25.4647 29.7407 25.4646 30.0213 25.4645C30.7733 25.4644 31.5253 25.4662 32.2773 25.4684C33.0668 25.4704 33.8563 25.4705 34.6458 25.4709C36.1365 25.4719 37.6272 25.4744 39.1179 25.4776C40.8168 25.4811 42.5158 25.4828 44.2147 25.4843C47.7056 25.4876 51.1964 25.4931 54.6873 25.5001C54.6676 24.7934 54.6475 24.0868 54.6269 23.3802C54.62 23.1405 54.6132 22.9007 54.6066 22.661C54.4844 18.2596 53.7687 14.5768 50.4392 11.4083C47.9386 9.29338 44.8088 8.37495 41.5623 8.62507C38.305 9.13955 35.0876 11.1101 33.0893 13.7191C32.3556 14.7435 31.7763 15.8321 31.2302 16.9649C30.7167 18.03 30.1864 18.9924 29.1599 19.6407C28.2492 19.8142 27.4987 19.8668 26.6697 19.3966C25.9383 18.871 25.5549 18.3328 25.3989 17.4501C25.2264 14.7083 27.0092 11.4644 28.7485 9.44538C28.8521 9.32936 28.9556 9.21335 29.0623 9.09382C29.1658 8.96813 29.2693 8.84245 29.376 8.71296C33.5535 3.78011 40.9892 1.60863 47.1873 3.46882ZM19.3748 33.1563C19.2626 33.2429 19.1504 33.3295 19.0348 33.4188C17.011 35.0614 15.8534 37.5275 15.3123 40.0313C15.2318 40.8204 15.2263 41.6042 15.2314 42.3964C15.2305 42.6241 15.2294 42.8518 15.2281 43.0795C15.2252 43.6909 15.2263 44.3023 15.2283 44.9138C15.2299 45.558 15.2284 46.2021 15.2274 46.8463C15.2263 47.9275 15.2278 49.0086 15.2308 50.0898C15.2342 51.3343 15.2331 52.5788 15.2296 53.8234C15.2268 54.8978 15.2264 55.9721 15.228 57.0465C15.229 57.6856 15.2292 58.3247 15.2271 58.9639C15.2252 59.5652 15.2266 60.1664 15.2301 60.7676C15.2309 60.9864 15.2307 61.2052 15.2293 61.424C15.2118 64.4598 16.2455 67.1419 18.281 69.4063C18.362 69.5018 18.4429 69.5973 18.5264 69.6956C20.4215 71.7812 23.3813 72.9823 26.1488 73.183C27.1444 73.2263 28.1404 73.2202 29.1367 73.217C29.4689 73.2176 29.801 73.2184 30.1331 73.2195C31.0286 73.2216 31.9241 73.2208 32.8197 73.2193C33.7607 73.2181 34.7018 73.2192 35.6428 73.2199C37.2226 73.2208 38.8024 73.2197 40.3821 73.2174C42.2037 73.2149 44.0252 73.2157 45.8468 73.2183C47.416 73.2204 48.9852 73.2207 50.5544 73.2195C51.4893 73.2188 52.4242 73.2186 53.3591 73.2202C54.2384 73.2216 55.1177 73.2206 55.997 73.2179C56.318 73.2173 56.639 73.2175 56.9601 73.2185C60.6629 73.2294 63.9882 72.6204 66.7478 69.9337C70.0798 66.5548 70.2312 62.3691 70.219 57.9022C70.2178 57.3221 70.2189 56.7419 70.2196 56.1618C70.2205 55.1884 70.2194 54.215 70.2171 53.2416C70.2146 52.1235 70.2154 51.0055 70.218 49.8874C70.2201 48.9196 70.2204 47.9518 70.2192 46.9839C70.2185 46.4093 70.2183 45.8347 70.2199 45.2601C70.2306 40.7352 69.9097 36.9103 66.6385 33.5323C64.5418 31.5573 61.8021 30.432 58.9078 30.503C58.5031 30.5196 58.0984 30.5378 57.6938 30.5574C57.2458 30.5758 56.7978 30.5925 56.3497 30.6092C56.1798 30.6157 56.1798 30.6157 56.0065 30.6223C54.1717 30.6902 52.3356 30.68 50.4998 30.6764C50.1679 30.6758 49.8359 30.6756 49.504 30.6754C44.6716 30.6725 39.8397 30.6171 35.0078 30.5557C31.2829 30.5083 31.2829 30.5083 27.5577 30.4842C27.3781 30.483 27.1985 30.4818 27.0134 30.4806C24.111 30.4779 21.6426 31.3175 19.3748 33.1563Z" fill="#EF4D4D"/>
<path d="M43.7506 44.3622C44.5222 44.7755 45.0075 45.2778 45.3263 46.0887C45.4739 46.6118 45.5094 47.0415 45.5117 47.5839C45.5139 47.8734 45.5139 47.8734 45.5162 48.1687C45.5162 48.3773 45.516 48.586 45.5158 48.7946C45.5164 49.011 45.5171 49.2273 45.5178 49.4437C45.519 49.8963 45.5189 50.3489 45.5181 50.8014C45.5172 51.3786 45.5199 51.9558 45.5235 52.5329C45.5258 52.9796 45.5259 53.4263 45.5254 53.8729C45.5255 54.1883 45.5277 54.5037 45.5299 54.819C45.5186 57.0788 45.5186 57.0788 44.726 58.0091C44.6327 58.0802 44.5395 58.1513 44.4434 58.2245C44.3497 58.2985 44.2561 58.3724 44.1596 58.4485C43.4615 58.9347 42.6976 58.8441 41.875 58.7812C41.0476 58.5054 40.663 58.0553 40.1563 57.3749C39.9304 56.9231 39.9764 56.5283 39.9724 56.0235C39.9714 55.9167 39.9703 55.81 39.9693 55.7C39.9662 55.346 39.9644 54.9921 39.9628 54.6381C39.9622 54.5172 39.9615 54.3962 39.9609 54.2716C39.9576 53.6313 39.9554 52.991 39.9539 52.3506C39.9522 51.69 39.9468 51.0294 39.9406 50.3688C39.9365 49.8603 39.9352 49.3517 39.9347 48.8431C39.9339 48.5997 39.9321 48.3562 39.9292 48.1128C39.9254 47.7713 39.9255 47.43 39.9266 47.0885C39.9257 46.8945 39.9248 46.7004 39.9238 46.5005C40.0456 45.6508 40.4297 45.1787 41.1036 44.6699C41.9286 44.1959 42.8352 44.0339 43.7506 44.3622Z" fill="#EF4D4D"/>
<path d="M7.49686 21.8787C7.6591 21.8767 7.82135 21.8747 7.98851 21.8726C8.1646 21.8715 8.3407 21.8703 8.52214 21.8691C8.70291 21.8679 8.88369 21.8666 9.06994 21.8653C9.45335 21.8631 9.83676 21.8615 10.2202 21.8602C10.8052 21.8576 11.3902 21.8507 11.9752 21.8438C12.3476 21.8422 12.72 21.8409 13.0924 21.8398C13.267 21.8371 13.4415 21.8344 13.6213 21.8315C14.6398 21.8344 15.2677 21.9196 16.0935 22.5314C16.7723 23.2816 16.9083 24.0462 16.8748 25.0314C16.7508 25.8473 16.4369 26.311 15.7908 26.8185C15.1468 27.2739 14.6022 27.3935 13.8201 27.4003C13.6803 27.4018 13.5405 27.4033 13.3965 27.4048C13.2464 27.4055 13.0963 27.4062 12.9417 27.4068C12.786 27.4077 12.6303 27.4086 12.4699 27.4095C12.1405 27.411 11.8111 27.412 11.4817 27.4126C10.9804 27.4142 10.4791 27.419 9.97782 27.4239C9.65719 27.425 9.33655 27.4258 9.01591 27.4264C8.86711 27.4283 8.7183 27.4302 8.56499 27.4322C7.43198 27.4285 6.53612 27.2816 5.64433 26.5255C4.97898 25.7232 4.93159 25.1087 4.95036 24.0804C5.03983 23.2564 5.43448 22.8553 6.03495 22.3263C6.56998 21.9461 6.84719 21.8857 7.49686 21.8787Z" fill="#EF4D4D"/>
<path d="M14.2293 5.80081C14.796 6.11599 15.2273 6.57277 15.6812 7.03014C15.8384 7.18596 15.8384 7.18596 15.9989 7.34494C16.2192 7.56414 16.4387 7.78415 16.6575 8.00491C16.9909 8.3405 17.3279 8.67218 17.6654 9.00371C17.8799 9.21802 18.0941 9.43255 18.3081 9.64732C18.4082 9.74535 18.5083 9.84338 18.6114 9.94438C19.3339 10.682 19.7759 11.3927 19.8828 12.4482C19.7727 13.3426 19.501 14.0321 18.9062 14.7187C18.1644 15.2583 17.4468 15.3044 16.5625 15.1875C15.5014 14.8548 14.7702 14.2901 14.0045 13.5035C13.9032 13.4022 13.8019 13.3009 13.6975 13.1965C13.4856 12.9838 13.2746 12.7701 13.0646 12.5555C12.7434 12.2277 12.4189 11.9034 12.0938 11.5794C11.8874 11.3714 11.6812 11.1631 11.4752 10.9547C11.3787 10.8582 11.2822 10.7616 11.1828 10.6621C10.4561 9.9153 10.1129 9.31969 10.0977 8.25389C10.116 7.40309 10.2595 6.95404 10.7812 6.28123C11.8863 5.42427 12.9452 5.2349 14.2293 5.80081Z" fill="#EF4D4D"/>
</svg>
