<svg width="64" height="44" viewBox="0 0 64 44" fill="none" xmlns="http://www.w3.org/2000/svg">
<g clip-path="url(#clip0_18617_74094)">
<path d="M6.91275 28.6979C6.91275 31.156 7.44925 33.0432 8.15025 34.1848C9.0695 35.6803 10.4403 36.3137 11.838 36.3137C13.6407 36.3137 15.29 35.8636 18.468 31.4424C21.0142 27.8988 24.0145 22.9244 26.033 19.806L29.4517 14.5228C31.8265 10.8537 34.575 6.77498 37.7267 4.01016C40.299 1.75354 43.0745 0.5 45.8675 0.5C50.557 0.5 55.0238 3.23339 58.4425 8.35995C62.1838 13.9743 64 21.0462 64 28.3441C64 32.6826 63.15 35.8704 61.7033 38.389C60.3055 40.8247 57.5812 43.2581 52.9987 43.2581V36.3137C56.9225 36.3137 57.9017 32.6871 57.9017 28.5368C57.9017 22.6224 56.5308 16.0585 53.5107 11.3687C51.3672 8.04185 48.5898 6.00928 45.534 6.00928C42.229 6.00928 39.5692 8.51636 36.5802 12.9874C34.9912 15.3624 33.3597 18.257 31.5282 21.523L29.5117 25.1161C25.461 32.3401 24.435 33.9854 22.4097 36.701C18.8598 41.4561 15.8288 43.2581 11.838 43.2581C7.10425 43.2581 4.1105 41.1961 2.25675 38.089C0.74325 35.5571 0 32.235 0 28.4495L6.91275 28.6979Z" fill="#0081FB"/>
<path d="M5.4502 8.85005C8.6197 3.93648 13.1932 0.5 18.4389 0.5C21.4772 0.5 24.4972 1.40451 27.6509 3.99457C31.1004 6.82628 34.7772 11.4894 39.3642 19.1748L41.0092 21.9326C44.9794 28.586 47.2384 32.0087 48.5604 33.6231C50.2609 35.6959 51.4517 36.3137 52.9984 36.3137C56.9222 36.3137 57.9014 32.6871 57.9014 28.5368L63.9997 28.3441C63.9997 32.6826 63.1497 35.8704 61.7029 38.389C60.3052 40.8247 57.5809 43.2581 52.9984 43.2581C50.1497 43.2581 47.6259 42.6357 44.8349 39.9873C42.6894 37.9548 40.1812 34.3438 38.2514 31.0976L32.5114 21.4536C29.6317 16.6137 26.9897 13.0052 25.4609 11.3707C23.8164 9.61349 21.7019 7.49115 18.3279 7.49115C15.5972 7.49115 13.2779 9.41885 11.3372 12.367L5.4502 8.85005Z" fill="url(#paint0_linear_18617_74094)"/>
<path d="M18.328 7.49115C15.5972 7.49115 13.278 9.41885 11.3372 12.367C8.59325 16.5332 6.91275 22.7385 6.91275 28.6979C6.91275 31.156 7.44925 33.0432 8.15025 34.1848L2.25675 38.089C0.74325 35.5571 0 32.235 0 28.4495C0 21.5655 1.8785 14.3908 5.4505 8.85005C8.62 3.93648 13.1935 0.5 18.4393 0.5L18.328 7.49115Z" fill="url(#paint1_linear_18617_74094)"/>
</g>
<defs>
<linearGradient id="paint0_linear_18617_74094" x1="818" y1="2392.13" x2="5219.61" y2="2613.15" gradientUnits="userSpaceOnUse">
<stop stop-color="#0064E1"/>
<stop offset="0.4" stop-color="#0064E1"/>
<stop offset="0.83" stop-color="#0073EE"/>
<stop offset="1" stop-color="#0082FB"/>
</linearGradient>
<linearGradient id="paint1_linear_18617_74094" x1="1001.53" y1="3112.2" x2="1001.53" y2="1478.01" gradientUnits="userSpaceOnUse">
<stop stop-color="#0082FB"/>
<stop offset="1" stop-color="#0064E0"/>
</linearGradient>
<clipPath id="clip0_18617_74094">
<rect width="64" height="43" fill="white" transform="translate(0 0.5)"/>
</clipPath>
</defs>
</svg>
