<svg width="44" height="45" viewBox="0 0 44 45" fill="none" xmlns="http://www.w3.org/2000/svg">
<path d="M26.7905 11.4133V18.9442L29.425 20.6011C29.5202 20.6215 29.6186 20.6215 29.7138 20.6011L41.041 12.9643C41.0328 12.5937 40.8972 12.2372 40.657 11.9548C40.4169 11.6723 40.0869 11.4811 39.7224 11.4133H26.7905Z" fill="#0072C6"/>
<path d="M26.7904 21.7533L29.1925 23.4033C29.3049 23.4721 29.4341 23.5085 29.5658 23.5085C29.6976 23.5085 29.8268 23.4721 29.9391 23.4033C29.5266 23.6522 41.0395 16.0085 41.0395 16.0085V29.8493C41.0695 30.1298 41.0379 30.4134 40.9469 30.6803C40.8558 30.9473 40.7075 31.1912 40.5124 31.3948C40.3172 31.5985 40.0799 31.757 39.8171 31.8594C39.5543 31.9618 39.2722 32.0054 38.9908 31.9874H26.789L26.7904 21.7533ZM14.3549 18.2814C13.9558 18.2796 13.5636 18.3858 13.2199 18.5886C12.8762 18.7915 12.5937 19.0834 12.4024 19.4337C11.88 20.3623 11.6293 21.4191 11.6791 22.4834C11.6249 23.5455 11.8758 24.6009 12.4024 25.5249C12.5928 25.8608 12.8683 26.1407 13.2012 26.3364C13.5341 26.5321 13.9126 26.6367 14.2987 26.6398C14.6848 26.6428 15.065 26.5442 15.4009 26.3538C15.7368 26.1635 16.0168 25.888 16.2125 25.5552C16.7344 24.6358 16.9802 23.5856 16.9206 22.5302C16.9802 21.4417 16.7426 20.3575 16.2331 19.3938C16.0506 19.0553 15.7793 18.7729 15.4484 18.5769C15.1175 18.3809 14.7395 18.2788 14.3549 18.2814Z" fill="#0072C6"/>
<path d="M2.96045 7.58813V37.0503L25.3729 41.75V3.25L2.96045 7.58813ZM17.9589 27.3001C17.5398 27.8913 16.9823 28.3709 16.3352 28.697C15.6881 29.0232 14.971 29.1861 14.2464 29.1715C13.5402 29.184 12.8413 29.0258 12.2093 28.7103C11.5773 28.3948 11.0309 27.9313 10.6164 27.3593C9.63368 25.987 9.14201 24.3236 9.22082 22.6375C9.13742 20.8688 9.63796 19.1217 10.6453 17.6655C11.0701 17.0634 11.6364 16.575 12.2943 16.2431C12.9522 15.9113 13.6816 15.7462 14.4183 15.7625C15.1194 15.7489 15.8131 15.9074 16.4388 16.224C17.0644 16.5407 17.6029 17.0059 18.0071 17.5789C18.98 18.9809 19.4633 20.6647 19.3821 22.3694C19.4681 24.1254 18.9674 25.8601 17.9589 27.3001Z" fill="#0072C6"/>
</svg>
