<svg width="50" height="50" viewBox="0 0 50 50" fill="none" xmlns="http://www.w3.org/2000/svg">
<g clip-path="url(#clip0_18638_75850)">
<path d="M0 0C11.6338 0 23.2676 0 35.2539 0C35.2539 16.5 35.2539 33 35.2539 50C23.6201 50 11.9863 50 0 50C0 33.5 0 17 0 0ZM2.92969 2.92969C2.92969 17.4961 2.92969 32.0625 2.92969 47.0703C12.5977 47.0703 22.2656 47.0703 32.2266 47.0703C32.2266 32.5039 32.2266 17.9375 32.2266 2.92969C22.5586 2.92969 12.8906 2.92969 2.92969 2.92969Z" fill="white"/>
<path d="M39.0622 6.05469C42.6716 6.05469 46.281 6.05469 49.9997 6.05469C50.0256 10.2654 50.0472 14.4761 50.0596 18.6869C50.061 19.1847 50.0626 19.6826 50.0641 20.1804C50.0644 20.2795 50.0647 20.3786 50.065 20.4807C50.0701 22.0825 50.0794 23.6843 50.0901 25.2861C50.1011 26.9314 50.1076 28.5766 50.11 30.2219C50.1116 31.236 50.1166 32.2501 50.1262 33.2642C50.1324 33.9609 50.1343 34.6575 50.1327 35.3542C50.132 35.7555 50.1331 36.1564 50.1394 36.5576C50.1651 38.2681 50.1236 39.64 48.9828 41.0149C48.7036 41.3681 48.4767 41.7552 48.2419 42.1387C48.1445 42.2934 48.0468 42.4481 47.9489 42.6025C47.9006 42.6791 47.8523 42.7556 47.8025 42.8345C47.656 43.0664 47.5095 43.2983 47.363 43.5303C47.3146 43.6069 47.2663 43.6835 47.2164 43.7624C47.1192 43.9164 47.0219 44.0704 46.9246 44.2244C46.6744 44.6206 46.4241 45.0169 46.174 45.4132C45.6603 46.2269 45.1463 47.0404 44.6286 47.8516C44.2135 47.4719 43.9415 47.0717 43.6582 46.5881C43.5638 46.4303 43.4691 46.2727 43.3744 46.1151C43.2996 45.9907 43.2996 45.9907 43.2233 45.8637C42.9517 45.4174 42.6701 44.9775 42.3886 44.5374C42.272 44.3548 42.1554 44.1722 42.0388 43.9896C41.9819 43.9004 41.9249 43.8112 41.8662 43.7193C41.4666 43.0926 41.0708 42.4635 40.6743 41.8348C40.5177 41.5867 40.3608 41.3387 40.204 41.0908C40.1242 40.9647 40.1242 40.9647 40.0428 40.836C39.9413 40.6754 39.8396 40.5148 39.738 40.3543C39.6921 40.2817 39.6462 40.2092 39.599 40.1344C39.5589 40.0711 39.5188 40.0077 39.4774 39.9424C39.4371 39.8776 39.3968 39.8128 39.3552 39.7461C39.3051 39.6734 39.255 39.6007 39.2033 39.5258C39.0404 39.2163 39.0258 39.0272 39.0262 38.6792C39.0256 38.5626 39.025 38.4459 39.0244 38.3258C39.0253 38.198 39.0261 38.0702 39.027 37.9386C39.0269 37.8012 39.0266 37.6638 39.0262 37.5264C39.0256 37.149 39.0268 36.7715 39.0282 36.394C39.0295 35.987 39.0291 35.5799 39.0288 35.1729C39.0287 34.4676 39.0296 33.7624 39.0313 33.0571C39.0336 32.0374 39.0344 31.0177 39.0348 29.9981C39.0354 28.3437 39.0374 26.6894 39.0401 25.0351C39.0428 23.428 39.0449 21.8209 39.0461 20.2138C39.0462 20.1147 39.0463 20.0157 39.0464 19.9136C39.0468 19.4167 39.0471 18.9198 39.0475 18.4229C39.0505 14.3002 39.0559 10.1774 39.0622 6.05469ZM42.0896 9.08203C42.0896 10.5 42.0896 11.918 42.0896 13.3789C43.7331 13.3789 45.3767 13.3789 47.07 13.3789C47.07 11.9609 47.07 10.543 47.07 9.08203C45.4265 9.08203 43.7829 9.08203 42.0896 9.08203ZM42.0896 16.4062C42.0896 22.4648 42.0896 28.5234 42.0896 34.7656C43.7331 34.7656 45.3767 34.7656 47.07 34.7656C47.07 28.707 47.07 22.6484 47.07 16.4062C45.4265 16.4062 43.7829 16.4062 42.0896 16.4062ZM42.0896 37.6953C42.0714 38.36 42.0714 38.36 42.3543 38.8607C42.4395 38.991 42.4395 38.991 42.5263 39.1239C42.6183 39.2597 42.6183 39.2597 42.7121 39.3982C42.8373 39.5885 42.9624 39.7789 43.0875 39.9693C43.1498 40.0631 43.2121 40.1569 43.2763 40.2535C43.5347 40.6457 43.7832 41.0437 44.0305 41.4429C44.1096 41.5698 44.1887 41.6967 44.2678 41.8236C44.3224 41.9114 44.377 41.9993 44.4333 42.0898C44.8028 41.9667 44.8445 41.846 45.0444 41.518C45.1052 41.4195 45.1659 41.321 45.2285 41.2195C45.2924 41.1139 45.3563 41.0084 45.4221 40.8997C45.5536 40.6848 45.6852 40.4701 45.8169 40.2554C45.8808 40.151 45.9447 40.0466 46.0105 39.9391C46.1637 39.6925 46.3206 39.45 46.483 39.2094C46.5242 39.148 46.5654 39.0867 46.6078 39.0235C46.7141 38.8668 46.8217 38.7109 46.9293 38.5551C47.1147 38.2457 47.1147 38.2457 47.07 37.6953C45.4265 37.6953 43.7829 37.6953 42.0896 37.6953Z" fill="white"/>
<path d="M7.32422 33.2031C14.124 33.2031 20.9238 33.2031 27.9297 33.2031C27.9297 34.2021 27.9297 35.2012 27.9297 36.2305C21.1299 36.2305 14.3301 36.2305 7.32422 36.2305C7.32422 35.2314 7.32422 34.2324 7.32422 33.2031Z" fill="white"/>
<path d="M7.32422 26.7578C14.124 26.7578 20.9238 26.7578 27.9297 26.7578C27.9297 27.7568 27.9297 28.7559 27.9297 29.7852C21.1299 29.7852 14.3301 29.7852 7.32422 29.7852C7.32422 28.7861 7.32422 27.7871 7.32422 26.7578Z" fill="white"/>
<path d="M7.32422 20.2148C14.124 20.2148 20.9238 20.2148 27.9297 20.2148C27.9297 21.2139 27.9297 22.2129 27.9297 23.2422C21.1299 23.2422 14.3301 23.2422 7.32422 23.2422C7.32422 22.2432 7.32422 21.2441 7.32422 20.2148Z" fill="white"/>
<path d="M7.32422 13.7695C14.124 13.7695 20.9238 13.7695 27.9297 13.7695C27.9297 14.7686 27.9297 15.7676 27.9297 16.7969C21.1299 16.7969 14.3301 16.7969 7.32422 16.7969C7.32422 15.7979 7.32422 14.7988 7.32422 13.7695Z" fill="white"/>
<path d="M7.32422 39.7461C14.124 39.7461 20.9238 39.7461 27.9297 39.7461C27.9297 40.7129 27.9297 41.6797 27.9297 42.6758C21.1299 42.6758 14.3301 42.6758 7.32422 42.6758C7.32422 41.709 7.32422 40.7422 7.32422 39.7461Z" fill="white"/>
<path d="M7.32422 7.32422C14.124 7.32422 20.9238 7.32422 27.9297 7.32422C27.9297 8.29102 27.9297 9.25781 27.9297 10.2539C21.1299 10.2539 14.3301 10.2539 7.32422 10.2539C7.32422 9.28711 7.32422 8.32031 7.32422 7.32422Z" fill="white"/>
</g>
<defs>
<clipPath id="clip0_18638_75850">
<rect width="50" height="50" fill="white"/>
</clipPath>
</defs>
</svg>
