<svg width="50" height="50" viewBox="0 0 50 50" fill="none" xmlns="http://www.w3.org/2000/svg">
<g clip-path="url(#clip0_18638_75706)">
<path d="M2.9068 0.108062C3.38245 0.401798 3.69835 0.74392 3.90625 1.26964C3.96208 1.63351 3.95968 1.99267 3.95693 2.36026C3.95767 2.46931 3.9584 2.57836 3.95915 2.69072C3.96113 3.0557 3.96034 3.42062 3.95956 3.7856C3.96041 4.0474 3.96142 4.30919 3.96262 4.57099C3.9649 5.13439 3.96575 5.69778 3.96564 6.26118C3.96547 7.07576 3.96746 7.89032 3.96997 8.7049C3.97398 10.0266 3.97626 11.3482 3.97744 12.6699C3.9786 13.9536 3.98057 15.2373 3.98364 16.521C3.98393 16.6397 3.98393 16.6397 3.98422 16.7608C3.98517 17.158 3.98614 17.5551 3.98712 17.9523C3.9952 21.2456 4.00048 24.5388 4.00391 27.8321C4.42285 27.4156 4.84146 26.9988 5.25978 26.5816C5.40185 26.44 5.54401 26.2986 5.68626 26.1572C5.89183 25.9528 6.09708 25.7481 6.30226 25.5433C6.36495 25.4811 6.42765 25.4189 6.49224 25.3549C6.86515 24.982 7.21917 24.5981 7.56253 24.1978C7.79373 23.9333 8.0412 23.6868 8.29163 23.4407C8.34323 23.3894 8.39483 23.3382 8.44799 23.2854C8.66467 23.0703 8.88193 22.8558 9.09915 22.6412C9.63766 22.1087 10.1712 21.5781 10.6634 21.0017C12.5813 18.8195 14.5554 17.0986 17.5659 16.8737C19.7583 16.7992 21.5681 17.6106 23.1905 19.0356C24.0813 19.8087 24.849 20.0985 26.0334 20.0559C27.6339 19.8821 28.6956 18.5999 29.7707 17.5176C29.8871 17.401 30.0036 17.2845 30.1201 17.1681C30.3618 16.9262 30.6032 16.684 30.8444 16.4415C31.1537 16.1304 31.4637 15.8201 31.774 15.5099C32.0134 15.2704 32.2526 15.0307 32.4918 14.7908C32.6061 14.6762 32.7205 14.5616 32.835 14.4471C32.9939 14.288 33.1525 14.1285 33.3109 13.969C33.4012 13.8784 33.4914 13.7878 33.5844 13.6944C33.7917 13.4947 33.7917 13.4947 33.8867 13.2814C33.9512 13.2814 34.0156 13.2814 34.082 13.2814C34.1075 13.2241 34.133 13.1669 34.1593 13.1079C34.2847 12.8772 34.4184 12.7262 34.6043 12.5416C34.704 12.4419 34.704 12.4419 34.8057 12.3402C34.8773 12.2696 34.9489 12.199 35.0227 12.1263C35.1329 12.0165 35.1329 12.0165 35.2452 11.9046C35.4796 11.6713 35.7146 11.4387 35.9497 11.2062C36.1088 11.048 36.2679 10.8898 36.4269 10.7316C36.8167 10.344 37.2069 9.95701 37.5977 9.57042C37.4592 9.25476 37.2929 9.04772 37.0473 8.80719C36.9746 8.73545 36.9019 8.6637 36.827 8.58978C36.7483 8.51308 36.6697 8.43637 36.5887 8.35734C36.4224 8.19307 36.2561 8.02878 36.0899 7.86449C35.8279 7.60667 35.5656 7.34911 35.303 7.09182C35.0494 6.84292 34.7966 6.5931 34.544 6.34318C34.466 6.26727 34.3879 6.19136 34.3075 6.11314C33.545 5.35741 32.9938 4.6098 32.9707 3.50445C32.9724 2.77754 32.988 2.1892 33.3984 1.56261C33.4399 1.49488 33.4813 1.42715 33.5239 1.35738C33.9911 0.662494 34.6423 0.21616 35.4492 0.000105739C35.7944 -0.0289536 36.1385 -0.0285832 36.4848 -0.0282661C36.5879 -0.0289221 36.6911 -0.029578 36.7973 -0.0302539C37.1377 -0.0321066 37.4781 -0.0324906 37.8185 -0.0327007C38.056 -0.0333285 38.2934 -0.0339856 38.5308 -0.0346706C39.0285 -0.0358397 39.5263 -0.036202 40.024 -0.0360862C40.6599 -0.0360664 41.2958 -0.0387301 41.9317 -0.0420964C42.4223 -0.0442747 42.9128 -0.044664 43.4033 -0.0445609C43.6377 -0.0447905 43.872 -0.0456496 44.1063 -0.0471648C44.4351 -0.0490915 44.7639 -0.0485119 45.0927 -0.0473396C45.2362 -0.0489859 45.2362 -0.0489859 45.3825 -0.0506655C46.64 -0.0393471 47.7675 0.522365 48.6939 1.35509C49.399 2.08911 50.0088 3.22688 50.0144 4.25757C50.0154 4.39205 50.0154 4.39205 50.0165 4.52925C50.0169 4.67574 50.0169 4.67574 50.0173 4.8252C50.0182 4.98033 50.0182 4.98033 50.0192 5.13859C50.0212 5.48099 50.0223 5.82339 50.0233 6.1658C50.0237 6.28286 50.0241 6.39992 50.0245 6.52052C50.0265 7.14016 50.0279 7.7598 50.0288 8.37945C50.0299 9.01869 50.0333 9.65789 50.0371 10.2971C50.0397 10.7893 50.0405 11.2815 50.0409 11.7737C50.0413 12.0093 50.0425 12.2449 50.0443 12.4805C50.0467 12.8108 50.0466 13.1409 50.0459 13.4712C50.0471 13.5679 50.0484 13.6646 50.0497 13.7642C50.0421 14.7854 49.6275 15.5757 48.9258 16.3087C48.0192 17.0294 47.0134 17.0893 45.8984 16.9923C44.8917 16.8153 44.0348 15.945 43.4326 15.1551C43.1352 14.6097 43.1662 13.9762 43.2617 13.379C43.4662 12.8701 43.81 12.4163 44.31 12.1646C44.6227 12.0867 44.9176 12.0964 45.2393 12.1007C45.3626 12.102 45.486 12.1032 45.6131 12.1045C45.7073 12.1062 45.8014 12.1078 45.8984 12.1095C45.9158 11.1918 45.932 10.2741 45.9468 9.35642C45.9537 8.93025 45.9609 8.50409 45.9691 8.07794C45.977 7.66638 45.9838 7.25481 45.99 6.84321C45.9925 6.6865 45.9954 6.52979 45.9987 6.3731C46.0032 6.15293 46.0064 5.93278 46.0093 5.71259C46.0126 5.5249 46.0126 5.5249 46.0159 5.33342C45.9948 4.95728 45.9321 4.64991 45.8008 4.29698C45.2364 3.9238 44.6421 3.96432 43.9835 3.97197C43.8739 3.97215 43.7644 3.97233 43.6516 3.97252C43.4198 3.97318 43.188 3.97453 42.9562 3.97655C42.6078 3.97955 42.2594 3.98054 41.9109 3.98112C40.6332 3.98553 39.361 4.01796 38.0859 4.10167C38.2145 4.22712 38.2145 4.22712 38.3456 4.35511C38.6666 4.66895 38.9862 4.98414 39.3055 5.29972C39.4432 5.43551 39.5813 5.57094 39.7197 5.70599C41.8008 7.73724 41.8008 7.73724 41.834 9.28737C41.8293 11.1121 40.9875 12.0689 39.7344 13.3229C39.6365 13.4217 39.5385 13.5204 39.4406 13.6192C39.1767 13.8852 38.9122 14.1506 38.6475 14.4158C38.4815 14.5822 38.3157 14.7487 38.1498 14.9152C37.5694 15.498 36.9884 16.0802 36.407 16.662C35.868 17.2013 35.3303 17.7419 34.7933 18.2831C34.3296 18.7502 33.865 19.2163 33.3996 19.6817C33.1228 19.9586 32.8464 20.2358 32.571 20.5141C32.3115 20.7762 32.0508 21.037 31.7892 21.2971C31.6498 21.4362 31.5116 21.5765 31.3734 21.7169C30.4108 22.6689 29.3114 23.3846 28.0273 23.8282C27.9445 23.8593 27.8617 23.8904 27.7763 23.9225C25.8806 24.5221 23.7734 24.1488 22.0427 23.2696C21.3619 22.9032 20.7891 22.4265 20.2271 21.8984C19.5459 21.2724 18.6463 20.952 17.7181 20.9695C16.7723 21.0758 16.0221 21.4266 15.332 22.0704C15.2422 22.1539 15.2422 22.1539 15.1505 22.239C14.8713 22.5095 14.6133 22.7935 14.3623 23.0901C13.8029 23.7319 13.1859 24.3196 12.5805 24.9176C11.8617 25.6211 11.8617 25.6211 11.1847 26.3642C10.6318 27.0131 10.0055 27.5974 9.39961 28.1962C8.8487 28.7412 8.30364 29.2821 7.80106 29.8726C7.3057 30.4266 6.76145 30.9384 6.23288 31.4605C5.4135 32.2682 5.4135 32.2682 4.64649 33.1252C4.49219 33.3009 4.49219 33.3009 4.24243 33.4819C3.87779 33.9516 3.93521 34.395 3.93951 34.9741C3.93849 35.0942 3.93746 35.2143 3.93641 35.338C3.93408 35.6665 3.9339 35.9949 3.93468 36.3234C3.93499 36.6669 3.93254 37.0105 3.93039 37.354C3.92673 38.0042 3.92554 38.6544 3.92525 39.3046C3.92479 40.045 3.92157 40.7854 3.91813 41.5258C3.9111 43.0485 3.90754 44.5712 3.90625 46.0939C4.00076 46.0936 4.09528 46.0934 4.19265 46.0932C9.79256 46.0801 15.3925 46.07 20.9924 46.0639C21.6646 46.0632 22.3368 46.0624 23.0089 46.0617C23.0758 46.0616 23.1427 46.0615 23.2116 46.0614C25.3796 46.0589 27.5475 46.0545 29.7154 46.0491C32.0064 46.0435 34.2975 46.04 36.5886 46.0387C37.9611 46.0379 39.3335 46.0354 40.706 46.0306C41.6468 46.0275 42.5876 46.0266 43.5284 46.0274C44.0714 46.0277 44.6144 46.0271 45.1574 46.024C45.6546 46.0212 46.1517 46.021 46.6489 46.023C46.8287 46.0233 47.0086 46.0225 47.1884 46.0207C48.8116 46.0051 48.8116 46.0051 49.4562 46.5255C49.939 47.0118 50.0269 47.3587 50.061 48.0348C50.0435 48.6034 49.9393 48.967 49.609 49.4271C49.0749 49.9268 48.6153 50.058 47.9076 50.0498C47.8269 50.0504 47.7463 50.0511 47.6632 50.0517C47.3929 50.0533 47.1227 50.0522 46.8524 50.051C46.6566 50.0516 46.4609 50.0524 46.2652 50.0533C45.7273 50.0553 45.1894 50.0549 44.6515 50.054C44.0714 50.0536 43.4913 50.0553 42.9113 50.0568C41.7748 50.0593 40.6383 50.0596 39.5019 50.0592C38.5782 50.0588 37.6546 50.0591 36.731 50.06C36.5983 50.0601 36.4656 50.0602 36.3329 50.0603C36.133 50.0605 35.933 50.0607 35.733 50.0609C33.8738 50.0625 32.0146 50.0634 30.1555 50.0625C30.0854 50.0625 30.0153 50.0625 29.9431 50.0625C29.5878 50.0623 29.2326 50.0621 28.8774 50.062C28.7716 50.0619 28.7716 50.0619 28.6636 50.0619C28.521 50.0618 28.3783 50.0617 28.2356 50.0617C26.0157 50.0606 23.7957 50.0622 21.5758 50.0658C19.0815 50.0698 16.5873 50.0719 14.093 50.0711C13.827 50.071 13.5611 50.071 13.2951 50.0709C13.2296 50.0709 13.1641 50.0709 13.0967 50.0709C12.1081 50.0706 11.1196 50.0719 10.1311 50.074C9.0069 50.0763 7.88268 50.0766 6.75844 50.0742C6.18475 50.0731 5.6111 50.0729 5.03741 50.0752C4.51224 50.0773 3.98714 50.0767 3.46197 50.074C3.27198 50.0735 3.082 50.0739 2.89202 50.0755C1.18435 50.0885 1.18435 50.0885 0.554136 49.6065C0.0797521 49.0484 -0.0579831 48.6224 -0.0497004 47.9077C-0.0503267 47.827 -0.0509531 47.7464 -0.0515983 47.6633C-0.0532198 47.393 -0.0520622 47.1228 -0.0509154 46.8525C-0.0515054 46.6568 -0.052265 46.461 -0.0531797 46.2653C-0.0551915 45.7274 -0.0547604 45.1895 -0.0539257 44.6516C-0.0534445 44.0715 -0.0552034 43.4914 -0.0566673 42.9114C-0.0591594 41.7749 -0.059508 40.6384 -0.05905 39.502C-0.058692 38.5784 -0.0590357 37.6548 -0.0598751 36.7311C-0.0599928 36.5984 -0.0601102 36.4657 -0.0602274 36.333C-0.0604046 36.1331 -0.060582 35.9331 -0.060761 35.7331C-0.0624074 33.8739 -0.0632543 32.0147 -0.0624394 30.1556C-0.0624089 30.0855 -0.0623783 30.0154 -0.0623469 29.9432C-0.0621895 29.588 -0.0620244 29.2327 -0.0618561 28.8775C-0.0618227 28.807 -0.0617892 28.7364 -0.0617547 28.6637C-0.061687 28.5211 -0.061619 28.3784 -0.0615506 28.2357C-0.0605042 26.0158 -0.0620532 23.7958 -0.0656587 21.5759C-0.0697049 19.0816 -0.0718 16.5874 -0.0710151 14.0931C-0.0709378 13.8271 -0.0708672 13.5612 -0.0708007 13.2952C-0.070783 13.2297 -0.0707653 13.1642 -0.070747 13.0968C-0.0705193 12.1082 -0.0718176 11.1197 -0.0738889 10.1312C-0.0762423 9.007 -0.0764937 7.88278 -0.0741253 6.75854C-0.072973 6.18485 -0.0727661 5.6112 -0.0751023 5.03752C-0.077216 4.51234 -0.0766256 3.98724 -0.0738793 3.46207C-0.0733603 3.27209 -0.0738307 3.0821 -0.0753902 2.89212C-0.0884976 1.17628 -0.0884976 1.17628 0.431725 0.540531C1.10204 -0.110593 2.02674 -0.243713 2.9068 0.108062Z" fill="white"/>
</g>
<defs>
<clipPath id="clip0_18638_75706">
<rect width="50" height="50" fill="white"/>
</clipPath>
</defs>
</svg>
