<svg width="50" height="50" viewBox="0 0 50 50" fill="none" xmlns="http://www.w3.org/2000/svg">
<g clip-path="url(#clip0_18638_75742)">
<path d="M20.592 1.4795C20.8682 1.58929 21.0198 1.7455 21.2296 1.9561C21.3148 2.04087 21.4 2.12564 21.4877 2.21298C21.5813 2.30761 21.6749 2.40226 21.7685 2.49693C21.8676 2.5961 21.9667 2.69521 22.0659 2.79427C22.3351 3.06336 22.6034 3.33336 22.8715 3.60352C23.1519 3.88569 23.433 4.16704 23.7141 4.44848C24.2463 4.98155 24.7777 5.51537 25.3088 6.04945C25.9136 6.65745 26.5191 7.26461 27.1247 7.87171C28.3705 9.12058 29.6153 10.3705 30.8594 11.6211C30.9688 11.5278 31.0782 11.4345 31.1876 11.3411C31.2485 11.2891 31.3094 11.2371 31.3722 11.1836C31.5717 11.0102 31.761 10.8274 31.9519 10.6445C32.9302 9.77457 34.0577 9.42326 35.3462 9.44785C36.6348 9.55496 37.5923 10.1182 38.4766 11.0352C39.3481 12.0668 39.5564 13.2491 39.4707 14.5601C39.3309 16.0383 38.3256 17.0024 37.3047 17.9687C37.7873 18.5509 38.3091 19.084 38.8446 19.6174C38.94 19.7128 39.0353 19.8081 39.1306 19.9035C39.3876 20.1605 39.6449 20.4172 39.9023 20.6739C40.1719 20.9429 40.4412 21.2121 40.7105 21.4813C41.2197 21.9902 41.7292 22.4989 42.2388 23.0075C42.8192 23.5869 43.3994 24.1665 43.9796 24.7462C45.1723 25.9379 46.3653 27.1292 47.5586 28.3203C47.4654 28.4297 47.3721 28.539 47.2787 28.6483C47.2268 28.7092 47.1749 28.7701 47.1213 28.8328C46.9463 29.0342 46.7631 29.2246 46.5736 29.4125C46.505 29.4807 46.4364 29.549 46.3657 29.6194C46.2961 29.6882 46.2265 29.757 46.1548 29.8279C46.0829 29.8993 46.011 29.9708 45.937 30.0444C45.7616 30.2186 45.586 30.3926 45.4102 30.5664C44.8429 30.0958 44.3232 29.5886 43.8049 29.0649C43.7242 28.9837 43.6434 28.9025 43.5602 28.8189C43.3628 28.6204 43.1657 28.4216 42.9688 28.2226C42.2475 28.4268 41.5496 28.6736 40.8501 28.9421C40.7406 28.9837 40.631 29.0254 40.5182 29.0683C39.9703 29.2768 39.4229 29.4868 38.876 29.6979C38.5533 29.8225 38.2304 29.9466 37.9074 30.0705C37.8423 30.0955 37.7771 30.1205 37.71 30.1463C36.7588 30.5105 35.8012 30.846 34.8343 31.1661C32.0288 32.109 29.934 33.0428 28.125 35.4492C28.5497 35.958 28.997 36.4299 29.4693 36.8945C29.5429 36.9673 29.6164 37.0401 29.6923 37.1151C29.8509 37.2721 30.0096 37.429 30.1685 37.5857C30.5057 37.9189 30.8421 38.2529 31.1785 38.587C31.804 39.208 32.4299 39.8287 33.0573 40.4477C33.4947 40.8793 33.9309 41.312 34.3663 41.7456C34.5324 41.9106 34.6991 42.0752 34.8661 42.2393C35.0987 42.468 35.3298 42.6981 35.5606 42.9286C35.6303 42.9964 35.7001 43.0642 35.7719 43.1341C35.8342 43.1969 35.8965 43.2598 35.9607 43.3245C36.0155 43.3787 36.0702 43.4329 36.1267 43.4887C36.2305 43.6523 36.2305 43.6523 36.2132 43.851C36.0786 44.1723 35.8243 44.3937 35.5811 44.6357C35.4949 44.7232 35.4949 44.7232 35.4069 44.8124C35.2166 45.0049 35.0253 45.1963 34.8339 45.3876C34.7014 45.5208 34.5689 45.6541 34.4365 45.7873C34.1587 46.0664 33.8804 46.3448 33.6018 46.6229C33.2441 46.98 32.8883 47.3388 32.5329 47.6982C32.2599 47.9737 31.9858 48.2481 31.7113 48.5222C31.5796 48.6541 31.4482 48.7864 31.3173 48.919C31.1345 49.104 30.9502 49.2874 30.7654 49.4704C30.7113 49.5259 30.6571 49.5813 30.6013 49.6384C30.4482 49.7882 30.4482 49.7882 30.1758 50C29.8358 49.9717 29.6692 49.8227 29.4342 49.5866C29.3323 49.4853 29.3323 49.4853 29.2284 49.382C29.1549 49.3075 29.0814 49.2329 29.0057 49.1562C28.9276 49.078 28.8494 48.9999 28.7689 48.9194C28.5103 48.6607 28.2528 48.4009 27.9953 48.1411C27.8164 47.9616 27.6374 47.7822 27.4584 47.6029C27.0352 47.1787 26.6127 46.7539 26.1905 46.3288C25.7097 45.8448 25.2282 45.3616 24.7465 44.8785C23.7559 43.8847 22.7663 42.89 21.7773 41.8945C21.4083 42.2065 21.0437 42.5182 20.7024 42.8607C20.634 42.9291 20.5656 42.9975 20.4952 43.068C20.4239 43.1397 20.3527 43.2114 20.2793 43.2854C20.2044 43.3604 20.1295 43.4354 20.0523 43.5127C19.8153 43.7503 19.5787 43.9882 19.342 44.2261C19.1805 44.3881 19.019 44.5501 18.8574 44.7121C18.4633 45.1073 18.0694 45.5027 17.6758 45.8984C17.3511 45.7445 17.1371 45.5779 16.8839 45.3209C16.8102 45.2466 16.7366 45.1723 16.6607 45.0958C16.5848 45.0183 16.5089 44.9407 16.4307 44.8608C16.3532 44.7825 16.2758 44.7042 16.1961 44.6236C16.0053 44.4305 15.8149 44.2369 15.625 44.043C15.3049 44.1826 15.0981 44.3529 14.8556 44.6026C14.7826 44.6772 14.7096 44.7518 14.6343 44.8287C14.5564 44.9092 14.4785 44.9896 14.3982 45.0725C14.2322 45.2415 14.0661 45.4104 13.9 45.5793C13.6385 45.8463 13.3773 46.1137 13.1169 46.3818C12.8656 46.6402 12.6127 46.8971 12.3596 47.1538C12.2817 47.2349 12.2038 47.316 12.1235 47.3995C12.014 47.51 12.014 47.51 11.9022 47.6227C11.8384 47.6883 11.7745 47.7538 11.7087 47.8214C11.5234 47.9492 11.5234 47.9492 11.3436 47.9332C11.0635 47.8247 10.9123 47.667 10.7003 47.4542C10.6143 47.3687 10.5283 47.2831 10.4397 47.1949C10.3452 47.0993 10.2507 47.0037 10.1562 46.9082C10.0561 46.808 9.95598 46.7079 9.8558 46.6079C9.58399 46.3362 9.3131 46.0636 9.04236 45.7908C8.75928 45.5059 8.47537 45.2218 8.19154 44.9376C7.65419 44.3994 7.1176 43.8604 6.58126 43.3211C5.97064 42.7072 5.35918 42.0941 4.74765 41.4811C3.48969 40.2201 2.23278 38.9581 0.976562 37.6953C1.12878 37.3751 1.29109 37.1617 1.54366 36.9107C1.6199 36.8345 1.69614 36.7583 1.77468 36.6797C1.85698 36.5984 1.93928 36.5172 2.02408 36.4334C2.15047 36.3074 2.15047 36.3074 2.27941 36.1789C2.54861 35.9108 2.81848 35.6434 3.08838 35.376C3.27102 35.1943 3.45362 35.0126 3.63617 34.8308C4.08376 34.3854 4.5319 33.9405 4.98047 33.4961C4.676 33.1363 4.37337 32.7786 4.03824 32.4467C3.94855 32.3574 3.94855 32.3574 3.85704 32.2664C3.79674 32.2069 3.73644 32.1475 3.67432 32.0862C3.61175 32.024 3.54919 31.9619 3.48473 31.8979C3.33249 31.7468 3.17998 31.596 3.02734 31.4453C3.51456 30.8427 4.06557 30.3167 4.62765 29.7856C4.93343 29.4967 5.23806 29.2065 5.54277 28.9163C5.60769 28.8546 5.67261 28.7928 5.73949 28.7291C6.657 27.855 7.56463 26.9706 8.47262 26.0866C9.20735 25.3719 9.94513 24.6609 10.6914 23.9582C14.2829 20.572 16.9947 17.7134 18.2741 12.8587C18.5372 11.8815 18.9136 10.9454 19.2848 10.0053C19.4528 9.57744 19.6143 9.14724 19.7758 8.71696C19.9461 8.26352 20.1173 7.81066 20.2957 7.36031C20.3237 7.28859 20.3517 7.21686 20.3805 7.14296C20.4329 7.00892 20.4862 6.87521 20.5404 6.74189C20.6323 6.50487 20.704 6.29873 20.6996 6.04274C20.5559 5.76284 20.3502 5.58092 20.1225 5.36498C20.0245 5.27015 19.9264 5.17529 19.8284 5.08041C19.6734 4.93211 19.5181 4.78423 19.3622 4.63685C19.2118 4.49406 19.0629 4.3498 18.914 4.20532C18.8241 4.11984 18.7342 4.03436 18.6416 3.9463C18.457 3.71093 18.457 3.71093 18.4522 3.51269C18.6931 3.06051 19.1047 2.72038 19.4641 2.36206C19.5489 2.2745 19.6337 2.18695 19.721 2.09674C19.803 2.01448 19.8851 1.93221 19.9696 1.84745C20.0822 1.73381 20.0822 1.73381 20.197 1.61788C20.4102 1.46484 20.4102 1.46484 20.592 1.4795ZM23.1445 8.39843C23.1163 8.47487 23.0881 8.5513 23.059 8.63006C22.3299 10.6024 21.5921 12.5713 20.8496 14.5386C20.8072 14.6509 20.7648 14.7632 20.7212 14.8789C20.6381 15.099 20.555 15.319 20.4719 15.5391C20.3932 15.7475 20.3146 15.956 20.2362 16.1645C20.0791 16.5815 19.9214 16.9978 19.7521 17.41C19.7064 17.5221 19.6607 17.6343 19.6136 17.7498C19.5565 17.8848 19.5565 17.8848 19.4983 18.0226C19.4189 18.316 19.4421 18.4595 19.5312 18.75C19.7133 18.9896 19.7133 18.9896 19.9545 19.2202C19.9989 19.2649 20.0432 19.3096 20.0889 19.3556C20.2375 19.5049 20.3874 19.6527 20.5374 19.8005C20.6443 19.9073 20.7511 20.0141 20.8578 20.1211C21.1477 20.4111 21.4387 20.6998 21.73 20.9884C22.0343 21.2902 22.3374 21.5931 22.6407 21.8959C23.2151 22.4691 23.7904 23.0412 24.3662 23.613C25.0216 24.2641 25.6759 24.9163 26.3301 25.5685C27.6759 26.9102 29.023 28.2505 30.3711 29.5898C30.5247 29.5444 30.6783 29.4989 30.8319 29.4532C30.9174 29.4279 31.003 29.4025 31.0911 29.3764C31.4801 29.2558 31.8594 29.1127 32.2395 28.9669C32.3231 28.9352 32.4066 28.9035 32.4927 28.8708C32.6726 28.8025 32.8525 28.734 33.0323 28.6654C33.5169 28.4806 34.0019 28.2968 34.4868 28.1128C34.5879 28.0744 34.689 28.036 34.7932 27.9964C35.981 27.5455 37.1708 27.0997 38.3606 26.654C38.569 26.576 38.7773 26.4979 38.9857 26.4198C39.467 26.2394 39.9483 26.0591 40.4297 25.8789C40.459 25.5944 40.459 25.5944 40.3196 25.4393C40.2674 25.3872 40.2153 25.3351 40.1615 25.2815C40.1017 25.221 40.0419 25.1605 39.9803 25.0983C39.8801 24.9992 39.8801 24.9992 39.7778 24.8982C39.7077 24.8278 39.6376 24.7573 39.5654 24.6848C39.3288 24.4474 39.0911 24.2112 38.8535 23.9749C38.6842 23.8056 38.5151 23.6362 38.346 23.4668C37.9333 23.0537 37.5199 22.6412 37.1063 22.2291C36.625 21.7495 36.1446 21.2692 35.6642 20.7889C34.8073 19.9322 33.9497 19.0762 33.0918 18.2205C32.2583 17.3894 31.4253 16.5578 30.5928 15.7256C30.5159 15.6487 30.5159 15.6487 30.4374 15.5703C30.3341 15.467 30.2308 15.3638 30.1275 15.2605C30.0511 15.1841 30.0511 15.1841 29.9731 15.1062C29.9223 15.0554 29.8715 15.0046 29.8191 14.9522C29.027 14.1605 28.2345 13.3691 27.4419 12.5777C27.1542 12.2904 26.8665 12.003 26.5788 11.7157C26.0802 11.2175 25.5812 10.7195 25.082 10.2218C24.9158 10.0561 24.7497 9.89029 24.5837 9.72438C24.3582 9.49901 24.1324 9.27395 23.9064 9.04896C23.8398 8.98229 23.7733 8.91561 23.7046 8.84692C23.4616 8.54451 23.4616 8.54451 23.1445 8.39843ZM33.606 13.3484C33.5574 13.3983 33.5088 13.4482 33.4587 13.4996C33.3403 13.6215 33.2228 13.7442 33.1055 13.8672C33.6744 14.5662 34.3201 15.1881 34.9609 15.8203C35.3101 15.672 35.5371 15.4657 35.8032 15.1977C35.879 15.1225 35.9548 15.0472 36.0329 14.9696C36.3991 14.5553 36.4696 14.2389 36.4571 13.6963C36.3968 13.2731 36.1518 13.0159 35.8704 12.7136C34.9426 12.2372 34.2592 12.6606 33.606 13.3484ZM17.406 21.2539C17.3304 21.3295 17.2549 21.4051 17.1771 21.483C17.0475 21.6124 17.0475 21.6124 16.9152 21.7445C16.8187 21.8413 16.7223 21.9382 16.6258 22.035C16.5247 22.1361 16.4237 22.2371 16.3227 22.3381C16.0474 22.6133 15.7725 22.8888 15.4977 23.1643C15.2107 23.4519 14.9235 23.7392 14.6363 24.0265C14.0921 24.571 13.5481 25.1158 13.0042 25.6607C12.3851 26.2808 11.7658 26.9006 11.1465 27.5205C9.8721 28.7959 8.59804 30.0716 7.32422 31.3476C7.80425 31.9265 8.32262 32.4569 8.8552 32.9874C8.94959 33.0817 9.04397 33.1761 9.13832 33.2705C9.39269 33.5249 9.64736 33.779 9.90209 34.0331C10.1689 34.2993 10.4355 34.5658 10.7021 34.8323C11.2061 35.336 11.7104 35.8395 12.2148 36.3429C12.7894 36.9164 13.3636 37.4901 13.9379 38.0639C15.1185 39.2434 16.2993 40.4226 17.4805 41.6016C17.8186 41.4562 18.0372 41.2643 18.2962 41.0046C18.3806 40.9205 18.4649 40.8364 18.5518 40.7498C18.6445 40.6564 18.7372 40.5631 18.8298 40.4697C18.928 40.3715 19.0262 40.2733 19.1244 40.1752C19.3907 39.9089 19.6565 39.642 19.9221 39.375C20.1999 39.096 20.4782 38.8176 20.7565 38.5391C21.2833 38.0117 21.8096 37.4838 22.3357 36.9557C22.9347 36.3546 23.5342 35.7539 24.1338 35.1533C25.3672 33.9179 26.5998 32.6818 27.832 31.4453C27.6867 31.1075 27.495 30.8886 27.2357 30.6295C27.1518 30.5452 27.0679 30.4608 26.9814 30.3739C26.8882 30.2813 26.7949 30.1886 26.7017 30.096C26.6037 29.9978 26.5057 29.8996 26.4077 29.8014C26.1418 29.535 25.8753 29.2693 25.6087 29.0037C25.3301 28.7259 25.0519 28.4475 24.7737 28.1693C24.3066 27.7023 23.8392 27.2358 23.3716 26.7694C22.8302 26.2296 22.2893 25.6892 21.7487 25.1485C21.2292 24.6289 20.7094 24.1096 20.1894 23.5905C19.9678 23.3693 19.7463 23.1479 19.5249 22.9265C19.2645 22.6663 19.0039 22.4063 18.7431 22.1465C18.6472 22.0508 18.5513 21.955 18.4555 21.8592C18.3254 21.729 18.1949 21.5991 18.0644 21.4693C17.9913 21.3963 17.9181 21.3234 17.8428 21.2482C17.6247 21.0402 17.6247 21.0402 17.406 21.2539ZM6.93641 35.8148C6.82134 35.9314 6.82134 35.9314 6.70395 36.0504C6.62086 36.1341 6.53778 36.2178 6.45218 36.3041C6.36532 36.3926 6.27846 36.4811 6.18896 36.5723C6.10135 36.6608 6.01373 36.7493 5.92346 36.8404C5.70635 37.0599 5.4897 37.2797 5.27344 37.5C5.83998 38.1939 6.4789 38.8154 7.11288 39.4466C7.23468 39.5682 7.35645 39.6899 7.4782 39.8115C7.79682 40.1298 8.11574 40.4477 8.43471 40.7656C8.76091 41.0908 9.08683 41.4163 9.41277 41.7417C10.0509 42.3789 10.6894 43.0157 11.3281 43.6523C11.6528 43.4984 11.8668 43.3319 12.1201 43.0748C12.1937 43.0005 12.2673 42.9262 12.3432 42.8497C12.4191 42.7722 12.495 42.6946 12.5732 42.6147C12.6507 42.5364 12.7281 42.4581 12.8078 42.3775C12.9986 42.1844 13.189 41.9908 13.3789 41.7969C12.8128 41.1049 12.1775 40.4818 11.5463 39.8502C11.425 39.7286 11.3037 39.607 11.1824 39.4853C10.9294 39.2318 10.6763 38.9784 10.423 38.7252C10.0978 38.4 9.77334 38.0742 9.44901 37.7482C9.19936 37.4975 8.94927 37.2472 8.69905 36.997C8.57913 36.877 8.45936 36.7568 8.33975 36.6364C8.17333 36.469 8.0063 36.3023 7.83911 36.1357C7.78959 36.0856 7.74008 36.0356 7.68906 35.984C7.34072 35.6018 7.34072 35.6018 6.93641 35.8148ZM25.5888 37.8656C25.4737 37.9822 25.4737 37.9822 25.3563 38.1012C25.2732 38.1849 25.1901 38.2686 25.1045 38.3549C25.0177 38.4434 24.9308 38.5319 24.8413 38.623C24.7537 38.7115 24.6661 38.8 24.5758 38.8912C24.3587 39.1106 24.142 39.3305 23.9258 39.5508C24.085 39.9547 24.3781 40.2246 24.6811 40.5236C24.7383 40.5808 24.7955 40.638 24.8544 40.697C25.0431 40.8855 25.2325 41.0734 25.4219 41.2613C25.553 41.3921 25.6841 41.5229 25.8152 41.6537C26.1599 41.9977 26.5052 42.3411 26.8507 42.6844C27.2032 43.0349 27.5552 43.386 27.9072 43.737C28.5977 44.4255 29.2889 45.1133 29.9805 45.8008C30.3403 45.4963 30.6979 45.1937 31.0299 44.8585C31.0894 44.7987 31.1489 44.739 31.2101 44.6773C31.2696 44.617 31.3291 44.5567 31.3904 44.4946C31.4525 44.4321 31.5146 44.3695 31.5786 44.305C31.7297 44.1528 31.8806 44.0003 32.0312 43.8476C31.4652 43.1557 30.8299 42.5326 30.1987 41.901C30.0774 41.7794 29.9561 41.6577 29.8348 41.5361C29.5818 41.2826 29.3286 41.0292 29.0753 40.776C28.7502 40.4508 28.4257 40.125 28.1014 39.799C27.8517 39.5483 27.6016 39.298 27.3514 39.0478C27.2315 38.9278 27.1117 38.8076 26.9921 38.6872C26.8257 38.5198 26.6586 38.3531 26.4915 38.1865C26.4419 38.1364 26.3924 38.0863 26.3414 38.0348C25.9931 37.6525 25.9931 37.6525 25.5888 37.8656Z" fill="white"/>
<path d="M34.5702 0C35.2205 0.072182 35.7983 0.215758 36.4196 0.421143C36.5131 0.450033 36.6065 0.478924 36.7028 0.50869C36.7915 0.537832 36.8802 0.566975 36.9716 0.597C37.052 0.622972 37.1324 0.648943 37.2153 0.675702C37.4023 0.78125 37.4023 0.78125 37.4731 0.946964C37.5095 1.25207 37.4322 1.4598 37.3348 1.75099C37.2963 1.86764 37.2578 1.98429 37.2182 2.10448C37.1752 2.2313 37.1321 2.3581 37.0891 2.48489C37.0455 2.61521 37.0021 2.74555 36.9587 2.87592C36.8676 3.14884 36.7758 3.42151 36.6835 3.69401C36.5652 4.04349 36.4483 4.39343 36.3319 4.74354C36.2423 5.01262 36.1521 5.28149 36.0617 5.5503C36.0183 5.67929 35.9752 5.80832 35.9321 5.93741C35.8719 6.1176 35.8109 6.29751 35.7498 6.4774C35.7152 6.57988 35.6807 6.68236 35.6451 6.78795C35.5468 7.03125 35.5468 7.03125 35.3515 7.22656C34.4814 6.93652 33.6112 6.64648 32.7148 6.34766C32.6155 5.85151 32.6307 5.72231 32.7853 5.26607C32.8244 5.1488 32.8635 5.03153 32.9038 4.9107C32.9475 4.78378 32.9911 4.65686 33.0348 4.52995C33.0788 4.39932 33.1228 4.26865 33.1666 4.13794C33.282 3.79483 33.3987 3.4522 33.5158 3.10966C33.6351 2.75972 33.7531 2.40934 33.8712 2.05898C34.1029 1.37221 34.3361 0.685952 34.5702 0Z" fill="white"/>
<path d="M48.1445 11.5236C48.2227 11.7137 48.2916 11.9077 48.3559 12.103C48.4144 12.2797 48.4144 12.2797 48.4741 12.4599C48.4941 12.5215 48.5142 12.5832 48.5348 12.6467C48.5959 12.835 48.6581 13.0228 48.7206 13.2106C49.0234 14.1316 49.0234 14.1316 49.0234 14.3556C48.2248 14.6233 47.426 14.8907 46.6271 15.1578C46.2561 15.2817 45.8852 15.4058 45.5144 15.5302C45.1567 15.6501 44.799 15.7698 44.4411 15.8892C44.3044 15.9349 44.1678 15.9807 44.0311 16.0266C43.8402 16.0907 43.6491 16.1544 43.458 16.2181C43.3492 16.2545 43.2403 16.291 43.1281 16.3285C42.8711 16.4064 42.8711 16.4064 42.6758 16.4064C42.55 16.0364 42.4249 15.6663 42.3003 15.2959C42.2578 15.17 42.2152 15.0441 42.1724 14.9183C42.1109 14.7373 42.05 14.5562 41.9891 14.375C41.9523 14.2661 41.9155 14.1572 41.8776 14.045C41.7969 13.7697 41.7969 13.7697 41.7969 13.4767C42.5954 13.2068 43.3941 12.9376 44.1933 12.6695C44.5643 12.5449 44.9352 12.4201 45.3059 12.2947C45.6635 12.1738 46.0212 12.0535 46.3792 11.9338C46.5159 11.8879 46.6526 11.8418 46.7892 11.7954C46.98 11.7306 47.1711 11.6667 47.3623 11.6031C47.4711 11.5664 47.58 11.5298 47.6922 11.492C47.9492 11.4259 47.9492 11.4259 48.1445 11.5236Z" fill="white"/>
<path d="M43.2617 3.51562C43.7895 3.76616 44.1504 4.16917 44.5618 4.57764C44.6447 4.65732 44.7276 4.73701 44.813 4.81911C44.9298 4.93486 44.9298 4.93486 45.0489 5.05295C45.1206 5.1233 45.1922 5.19366 45.2661 5.26614C45.4102 5.46875 45.4102 5.46875 45.394 5.65098C45.2882 5.92157 45.1402 6.06678 44.9339 6.27127C44.8136 6.39146 44.8136 6.39146 44.691 6.51409C44.6039 6.59965 44.5168 6.68522 44.4271 6.77338C44.3384 6.86169 44.2496 6.95001 44.1582 7.04101C43.9227 7.27541 43.6863 7.50892 43.4497 7.74226C43.2083 7.98067 42.9677 8.21991 42.7271 8.45909C42.2551 8.92797 41.7821 9.39592 41.3086 9.86328C40.9407 9.55234 40.5771 9.24203 40.2378 8.89969C40.1739 8.83549 40.11 8.77129 40.0442 8.70514C39.9801 8.64018 39.9159 8.57523 39.8499 8.5083C39.7831 8.44108 39.7163 8.37386 39.6475 8.3046C39.4848 8.14079 39.3224 7.97675 39.1602 7.8125C39.3026 7.48438 39.4833 7.27031 39.7362 7.01895C39.8535 6.90168 39.8535 6.90168 39.9732 6.78205C40.0576 6.69862 40.142 6.61519 40.229 6.52924C40.3155 6.44309 40.4019 6.35693 40.4909 6.26817C40.7202 6.03985 40.9498 5.81196 41.1797 5.58426C41.4144 5.35157 41.6485 5.11831 41.8827 4.8851C42.3419 4.42809 42.8016 3.97165 43.2617 3.51562Z" fill="white"/>
</g>
<defs>
<clipPath id="clip0_18638_75742">
<rect width="50" height="50" fill="white"/>
</clipPath>
</defs>
</svg>
