<svg width="50" height="50" viewBox="0 0 50 50" fill="none" xmlns="http://www.w3.org/2000/svg">
<path d="M23.5352 0C24.502 0 25.4688 0 26.4648 0C26.4648 0.902344 26.4648 1.80469 26.4648 2.73438C26.7871 2.73438 27.1094 2.73438 27.4414 2.73438C27.6184 2.75056 27.7951 2.77109 27.9705 2.79922C28.0615 2.81378 28.1525 2.82834 28.2463 2.84333C28.3412 2.85974 28.4361 2.87616 28.5339 2.89307C28.6356 2.91061 28.7373 2.92816 28.842 2.94623C33.2977 3.74561 37.2667 5.75712 40.5273 8.88672C40.6097 8.96508 40.6097 8.96508 40.6937 9.04503C41.5328 9.84733 42.2857 10.6821 42.9688 11.6211C43.0137 11.6828 43.0586 11.7445 43.1049 11.808C45.1894 14.6977 46.4979 17.9337 47.1008 21.4417C47.1176 21.538 47.1344 21.6344 47.1516 21.7338C47.1667 21.8268 47.1818 21.9199 47.1973 22.0158C47.2106 22.097 47.2239 22.1783 47.2375 22.262C47.2776 22.6846 47.2656 23.1107 47.2656 23.5352C48.168 23.5352 49.0703 23.5352 50 23.5352C50 24.502 50 25.4688 50 26.4648C49.0977 26.4648 48.1953 26.4648 47.2656 26.4648C47.2656 26.7871 47.2656 27.1094 47.2656 27.4414C47.2494 27.6184 47.2289 27.7951 47.2008 27.9705C47.1862 28.0615 47.1717 28.1525 47.1567 28.2463C47.1403 28.3412 47.1238 28.4361 47.1069 28.5339C47.0894 28.6356 47.0718 28.7373 47.0538 28.842C46.4885 31.9926 45.3515 35.0909 43.457 37.6953C43.3892 37.7897 43.3213 37.8841 43.2514 37.9814C41.8732 39.8597 40.2774 41.6066 38.3789 42.9688C38.3178 43.0131 38.2567 43.0575 38.1937 43.1032C35.3036 45.1888 32.0673 46.4977 28.5583 47.1008C28.4138 47.126 28.4138 47.126 28.2662 47.1516C28.1732 47.1667 28.0801 47.1818 27.9842 47.1973C27.8623 47.2172 27.8623 47.2172 27.738 47.2375C27.3154 47.2776 26.8893 47.2656 26.4648 47.2656C26.4648 48.168 26.4648 49.0703 26.4648 50C25.498 50 24.5312 50 23.5352 50C23.5352 49.0977 23.5352 48.1953 23.5352 47.2656C23.2129 47.2656 22.8906 47.2656 22.5586 47.2656C22.377 47.2484 22.1958 47.2267 22.0158 47.1973C21.9227 47.1823 21.8296 47.1672 21.7338 47.1516C21.6374 47.1349 21.541 47.1181 21.4417 47.1008C21.3393 47.0832 21.237 47.0657 21.1316 47.0475C20.1911 46.8802 19.2731 46.665 18.3594 46.3867C18.2835 46.3637 18.2076 46.3408 18.1294 46.3171C16.0531 45.6734 14.0762 44.7174 12.3047 43.457C12.2001 43.3829 12.0955 43.3087 11.9877 43.2323C11.6977 43.02 11.4143 42.8017 11.1328 42.5781C10.9882 42.4635 10.9882 42.4635 10.8406 42.3466C9.41503 41.1906 8.10186 39.8711 7.03125 38.3789C6.96471 38.2872 6.96471 38.2872 6.89683 38.1937C4.79771 35.2849 3.4966 32.066 2.89307 28.5339C2.87669 28.4391 2.8603 28.3442 2.84343 28.2465C2.82884 28.1554 2.81425 28.0643 2.79922 27.9705C2.78659 27.8917 2.77395 27.8129 2.76093 27.7318C2.72246 27.3111 2.73438 26.8872 2.73438 26.4648C1.83203 26.4648 0.929688 26.4648 0 26.4648C0 25.498 0 24.5312 0 23.5352C0.902344 23.5352 1.80469 23.5352 2.73438 23.5352C2.73438 23.2129 2.73438 22.8906 2.73438 22.5586C3.0376 18.967 4.40873 15.2142 6.54297 12.3047C6.64456 12.1634 6.64456 12.1634 6.7482 12.0193C8.12576 10.1404 9.7226 8.39337 11.6211 7.03125C11.6822 6.98689 11.7433 6.94253 11.8063 6.89683C14.6964 4.81123 17.9327 3.50225 21.4417 2.89917C21.538 2.8824 21.6344 2.86564 21.7338 2.84836C21.8268 2.83328 21.9199 2.8182 22.0158 2.80266C22.097 2.7894 22.1783 2.77614 22.262 2.76248C22.6846 2.72243 23.1107 2.73438 23.5352 2.73438C23.5352 1.83203 23.5352 0.929688 23.5352 0ZM10.865 11.7729C9.29843 13.4696 8.02883 15.4531 7.12891 17.5781C7.07893 17.6957 7.02895 17.8133 6.97746 17.9344C5.08775 22.5766 5.25623 27.8466 7.14748 32.4475C8.01125 34.4849 9.64949 37.9302 11.7188 38.9648C11.7359 38.9079 11.753 38.851 11.7707 38.7924C12.5045 36.3734 13.4065 34.2982 15.1367 32.4219C15.2557 32.2925 15.2557 32.2925 15.377 32.1606C16.2828 31.2182 17.2786 30.49 18.4285 29.8784C18.8745 29.6409 18.8745 29.6409 19.2383 29.2969C19.1568 29.2307 19.0754 29.1644 18.9915 29.0962C16.9083 27.3829 15.4365 25.1725 15.07 22.4449C14.8326 19.5668 15.4358 16.8051 17.3279 14.5569C19.0021 12.6434 21.3789 11.2888 23.947 11.1111C27.0108 11.0074 29.6009 11.6688 31.9153 13.7451C33.7064 15.4257 34.892 17.9625 34.9823 20.414C35.0521 23.4137 34.1343 25.8906 32.1342 28.1437C31.7173 28.5771 31.2429 28.9379 30.7617 29.2969C31.0596 29.6159 31.4121 29.7953 31.7932 29.9988C32.4498 30.3593 33.0311 30.7523 33.5938 31.25C33.677 31.3226 33.7602 31.3953 33.8459 31.4701C34.0903 31.6867 34.3308 31.9069 34.5703 32.1289C34.6282 32.1804 34.6861 32.2319 34.7458 32.2849C36.6307 34.0397 37.6115 36.5436 38.2812 38.9648C39.7513 37.7824 40.8637 36.195 41.7969 34.5703C41.8493 34.4794 41.8493 34.4794 41.9028 34.3867C44.3893 30.0327 44.9575 24.8273 43.7044 19.9947C42.339 15.0201 39.0398 10.7703 34.5703 8.20312C34.5097 8.16816 34.4492 8.1332 34.3867 8.09717C32.134 6.8107 29.7098 6.09916 27.1484 5.76172C27.0562 5.74875 26.9639 5.73579 26.8688 5.72243C20.9162 5.02937 14.9826 7.54666 10.865 11.7729ZM20.0378 15.9889C18.6437 17.4379 17.9095 19.2253 17.928 21.2371C17.9994 23.2255 18.8416 24.9244 20.2591 26.3081C21.6904 27.5658 23.4921 28.1803 25.3906 28.125C26.912 28.019 28.3492 27.4834 29.4922 26.4648C29.5566 26.4152 29.6211 26.3656 29.6875 26.3145C31.0123 25.2641 31.8225 23.5209 32.0312 21.875C32.209 19.8857 31.6321 18.0297 30.3955 16.4612C29.1402 15.0466 27.4286 14.1792 25.5493 13.9771C23.4783 13.8791 21.56 14.57 20.0378 15.9889ZM17.2016 34.523C15.8527 36.0857 14.8126 38.0688 14.5508 40.1367C14.5369 40.2284 14.5231 40.32 14.5088 40.4144C14.4599 40.9326 14.4599 40.9326 14.6889 41.378C14.9261 41.5438 15.1703 41.668 15.4297 41.7969C15.5487 41.8639 15.6673 41.9316 15.7856 41.9998C17.9078 43.2018 20.3278 43.9741 22.7539 44.2383C22.8399 44.249 22.9259 44.2597 23.0145 44.2707C27.1686 44.7101 31.9265 43.7864 35.3516 41.3086C35.5087 41.1515 35.4735 40.9897 35.4797 40.7715C35.4507 38.2778 34.0749 35.8844 32.4036 34.1187C30.9878 32.7696 29.2482 31.8073 27.3438 31.3477C27.2172 31.315 27.2172 31.315 27.0882 31.2817C23.4778 30.5125 19.7114 31.8968 17.2016 34.523Z" fill="white"/>
</svg>
