<svg width="50" height="50" viewBox="0 0 50 50" fill="none" xmlns="http://www.w3.org/2000/svg">
<g clip-path="url(#clip0_18638_75829)">
<path d="M16.1196 0.695843C16.3341 0.845571 16.5141 0.98661 16.6994 1.17192C17.2866 1.13251 17.8432 0.955684 18.4084 0.799603C19.2109 0.584028 20.0124 0.403285 20.8315 0.262494C20.9216 0.24697 21.0117 0.231447 21.1046 0.215454C22.0049 0.0668937 22.8955 -0.0150063 23.8081 -0.0197939C23.896 -0.0204789 23.984 -0.0211639 24.0746 -0.0218697C24.3567 -0.0235686 24.6387 -0.0241989 24.9208 -0.0243716C25.0654 -0.0244704 25.0654 -0.0244704 25.2129 -0.0245712C26.6261 -0.0230349 28.0051 0.0126402 29.3947 0.293011C29.4828 0.310289 29.5709 0.327567 29.6616 0.345368C30.2937 0.472212 30.919 0.619825 31.5431 0.781292C31.6232 0.801764 31.7033 0.822237 31.7858 0.843329C32.9719 1.15352 34.0847 1.59523 35.2061 2.08921C35.3097 2.1347 35.4133 2.18019 35.52 2.22706C35.6124 2.26834 35.7048 2.30961 35.8 2.35214C36.039 2.45877 36.039 2.45877 36.3283 2.44145C36.5083 2.20969 36.5083 2.20969 36.6773 1.90739C36.7425 1.79724 36.8076 1.68709 36.8748 1.57361C36.9429 1.456 37.011 1.33838 37.079 1.22075C37.1482 1.10307 37.2174 0.985447 37.2867 0.867886C37.4565 0.579156 37.6253 0.289872 37.7931 4.25056e-05C38.1177 0.053774 38.3685 0.125253 38.6511 0.293393C38.752 0.352944 38.752 0.352944 38.855 0.413699C38.9255 0.456452 38.9961 0.499206 39.0688 0.543255C39.1796 0.609652 39.1796 0.609652 39.2927 0.67739C41.14 1.79185 42.9832 3.08028 44.4853 4.64138C44.6473 4.80831 44.6473 4.80831 44.9221 5.02324C45.2167 5.27491 45.4566 5.53826 45.7067 5.83271C45.9169 6.0759 46.1364 6.30864 46.3564 6.54301C47.601 7.91045 48.622 9.47631 49.579 11.0535C49.6227 11.1237 49.6663 11.194 49.7113 11.2663C50.0021 11.7551 50.0021 11.7551 49.9942 12.0125C49.858 12.3016 49.6621 12.3868 49.3872 12.5443C49.2826 12.6047 49.1781 12.6651 49.0703 12.7274C48.9603 12.7893 48.8502 12.8513 48.7367 12.9151C48.5722 13.0103 48.5722 13.0103 48.4043 13.1073C47.5887 13.5743 47.5887 13.5743 47.3635 13.5743C47.4017 13.6535 47.4017 13.6535 47.4407 13.7343C48.9366 16.8597 50.0017 20.3145 50.02 23.8079C50.0207 23.8959 50.0214 23.9838 50.0221 24.0744C50.0238 24.3565 50.0244 24.6386 50.0246 24.9207C50.0247 25.0653 50.0247 25.0653 50.0248 25.2129C50.0233 26.6268 49.984 28.0038 49.7072 29.3946C49.6889 29.4894 49.6706 29.5843 49.6517 29.6821C49.4531 30.694 49.2359 31.6918 48.887 32.6638C48.8183 32.9523 48.8348 33.1173 48.926 33.3985C49.0472 33.59 49.0472 33.59 49.2006 33.7647C50.0399 34.8299 50.1029 35.9971 50.0002 37.3047C49.76 38.4921 48.9606 39.544 47.9616 40.21C46.9056 40.8334 45.6257 40.9876 44.4338 40.7227C44.4107 40.7767 44.3877 40.8307 44.364 40.8863C44.0697 41.4186 43.5834 41.8475 43.1642 42.2852C43.1012 42.351 43.0382 42.4168 42.9733 42.4846C42.0816 43.4097 41.1746 44.2616 40.1369 45.0196C40.0245 45.1034 39.9121 45.1872 39.7997 45.271C38.9998 45.8606 38.1683 46.3839 37.3049 46.875C37.2432 46.9106 37.1815 46.9462 37.1179 46.9829C33.8565 48.8496 29.9378 50.0006 26.1709 50.0199C26.0808 50.0206 25.9907 50.0213 25.8979 50.022C22.1591 50.0441 22.1591 50.0441 20.508 49.7071C20.3595 49.678 20.3595 49.678 20.2079 49.6483C16.7935 48.9654 13.4845 47.6379 10.6447 45.6055C10.5806 45.5599 10.5166 45.5144 10.4506 45.4674C9.50877 44.7928 8.64173 44.07 7.81267 43.2618C7.74071 43.1923 7.66875 43.1229 7.59461 43.0513C6.61337 42.1019 5.67749 41.1516 4.88299 40.0391C4.83929 39.9786 4.79559 39.9182 4.75057 39.8559C2.51534 36.747 0.987057 33.2628 0.293141 29.4922C0.269585 29.3749 0.269585 29.3749 0.245553 29.2553C-0.328013 26.323 -0.225425 22.9344 0.390797 20.0196C0.412245 19.9178 0.433693 19.8161 0.45579 19.7113C1.33451 15.6827 3.16269 11.9155 5.85955 8.78911C5.92148 8.71634 5.98342 8.64358 6.04723 8.56862C6.55298 7.99033 7.09376 7.44731 7.63567 6.90312C7.71113 6.8272 7.78659 6.75129 7.86434 6.67307C8.97407 5.56645 8.97407 5.56645 9.27752 5.56645C9.2614 5.49394 9.24529 5.42143 9.22869 5.34672C9.07141 4.1671 9.19265 2.96618 9.86345 1.95317C11.4151 -0.0480604 13.9241 -0.719243 16.1196 0.695843ZM12.4208 3.58281C12.2379 3.93903 12.1968 4.28922 12.2072 4.68754C12.3721 5.19206 12.6488 5.46741 13.0861 5.76176C13.4949 5.88069 13.7146 5.87556 14.1237 5.75566C14.551 5.51039 14.8159 5.23195 15.0392 4.7852C15.0786 4.27318 15.0256 3.94914 14.7463 3.51567C14.2917 3.10542 14.0109 2.99278 13.4104 2.99954C12.9822 3.05216 12.7254 3.29923 12.4208 3.58281ZM18.0666 4.1016C18.0325 4.32232 18.0077 4.5445 17.9872 4.76689C17.8507 5.96304 17.4023 7.01166 16.4762 7.80949C15.3971 8.61671 14.2053 8.9097 12.8725 8.72197C12.4253 8.63593 12.0326 8.50202 11.6247 8.30082C11.4001 8.19046 11.1708 8.09867 10.9377 8.00786C8.44869 10.3117 6.41823 12.7321 4.98064 15.8204C4.94804 15.8903 4.91543 15.9602 4.88184 16.0323C3.7747 18.4438 3.02964 21.1678 3.00425 23.8335C3.00329 23.9166 3.00234 23.9997 3.00136 24.0853C2.98436 25.9554 3.01114 27.7555 3.41814 29.5899C3.43591 29.6723 3.45367 29.7547 3.47198 29.8396C4.54405 34.6711 7.38568 39.2678 11.3283 42.2852C11.3829 42.3272 11.4375 42.3692 11.4938 42.4125C12.3779 43.0892 13.2896 43.6897 14.258 44.2383C14.3158 44.2717 14.3736 44.305 14.4332 44.3393C16.6091 45.587 19.0202 46.3574 21.4846 46.7774C21.6065 46.7984 21.7285 46.8194 21.8542 46.8411C26.574 47.5572 31.3615 46.579 35.5471 44.336C35.6056 44.3048 35.6642 44.2736 35.7246 44.2415C38.0619 42.9862 40.3448 41.1495 41.9924 39.0625C41.9046 38.8359 41.8174 38.6129 41.704 38.3976C41.1787 37.3608 41.0929 36.1719 41.4064 35.0586C41.8252 33.8685 42.5377 33.0072 43.6525 32.4219C44.3847 32.1296 45.1118 31.9692 45.8986 31.9336C46.175 31.1125 46.4199 30.2913 46.6005 29.4434C46.6231 29.3396 46.6231 29.3396 46.6462 29.2337C46.9303 27.848 47.0128 26.4773 47.0095 25.0672C47.0094 24.9821 47.0093 24.8971 47.0093 24.8095C46.9997 21.4605 46.2721 18.2184 44.7267 15.2344C44.0466 15.5574 43.3954 15.906 42.7528 16.2986C42.2996 16.5749 41.8428 16.8445 41.3839 17.1112C41.2895 17.1662 41.2895 17.1662 41.1932 17.2223C40.9361 17.372 40.6791 17.5216 40.4216 17.6706C40.2387 17.7764 40.0562 17.8826 39.8737 17.989C39.7669 18.0509 39.6601 18.1128 39.5501 18.1766C39.2717 18.3509 39.0214 18.5394 38.7697 18.75C38.8063 18.8343 38.843 18.9185 38.8807 19.0052C39.1782 19.7075 39.428 20.4114 39.6242 21.1487C39.6532 21.2556 39.6532 21.2556 39.6828 21.3646C39.9881 22.5564 40.0766 23.7487 40.0698 24.9756C40.0695 25.0441 40.0693 25.1125 40.0691 25.183C40.0639 26.2529 40.0079 27.2795 39.7463 28.3204C39.7164 28.4427 39.7164 28.4427 39.6859 28.5675C39.3981 29.7205 39.0247 30.7824 38.4767 31.836C38.4236 31.9429 38.3705 32.0497 38.3158 32.1598C37.641 33.4762 36.7645 34.5846 35.7424 35.6446C35.6725 35.7206 35.6026 35.7966 35.5306 35.875C33.2289 38.3106 29.6158 39.8806 26.2868 40.0591C25.8862 40.0687 25.4863 40.0718 25.0856 40.0696C25.0148 40.0694 24.944 40.0692 24.8711 40.069C20.6761 40.049 16.9427 38.3907 13.9889 35.4233C13.3017 34.7107 12.7333 33.9424 12.2072 33.1055C12.167 33.0423 12.1268 32.979 12.0853 32.9139C11.5371 32.0384 11.1451 31.131 10.7972 30.1591C10.7671 30.0753 10.7371 29.9914 10.7061 29.905C10.68 29.83 10.6539 29.7551 10.627 29.6779C10.5527 29.4738 10.5527 29.4738 10.3517 29.2969C10.1558 29.2219 9.95817 29.1513 9.75969 29.0833C8.70798 28.6856 7.89034 28.0122 7.3942 26.9867C6.91095 25.8089 6.81072 24.4175 7.28739 23.2167C7.74682 22.3043 8.36792 21.5777 9.27752 21.0938C9.36932 21.0715 9.46112 21.0492 9.5557 21.0262C10.1725 20.8815 10.1725 20.8815 10.6229 20.4654C10.7575 20.1621 10.863 19.8602 10.9621 19.5435C11.0412 19.3211 11.1211 19.099 11.2016 18.8771C11.2584 18.7171 11.2584 18.7171 11.3163 18.5538C11.5405 17.9567 11.8573 17.4271 12.2072 16.8946C12.2623 16.8108 12.2623 16.8108 12.3185 16.7252C12.8918 15.8632 13.5403 15.0998 14.258 14.3555C14.3279 14.2795 14.3977 14.2034 14.4697 14.1251C16.3665 12.118 19.0242 10.87 21.6799 10.2539C21.745 10.238 21.8101 10.222 21.8771 10.2055C25.0244 9.45566 28.4025 10.0163 31.3478 11.2305C31.9238 10.2575 32.4926 9.28066 33.0568 8.30082C33.621 7.32099 34.1899 6.34412 34.7658 5.37114C34.5332 5.10477 34.3082 4.98902 33.9823 4.85653C33.8836 4.81639 33.785 4.77625 33.6833 4.73489C33.5773 4.69308 33.4712 4.65127 33.362 4.6082C33.2524 4.56488 33.1427 4.52156 33.0298 4.47692C30.8322 3.62472 28.4742 3.02828 26.1057 3.00412C26.0273 3.00316 25.949 3.0022 25.8683 3.00122C21.8635 2.95956 21.8635 2.95956 18.0666 4.1016ZM38.8674 4.19926C38.8123 4.29469 38.8123 4.29469 38.7561 4.39205C36.718 7.92479 34.6799 11.4575 32.6418 14.9903C32.5813 15.0951 32.5208 15.2 32.4585 15.308C32.3371 15.5184 32.2158 15.7287 32.0944 15.939C31.8114 16.4294 31.5285 16.9199 31.246 17.4106C31.1467 17.5831 31.0474 17.7555 30.948 17.928C30.824 18.1433 30.7 18.3587 30.5761 18.5742C30.5195 18.6725 30.4628 18.7708 30.4045 18.8721C30.3504 18.966 30.2964 19.0599 30.2408 19.1567C30.0304 19.5154 29.8101 19.8677 29.5872 20.2187C29.5559 20.2819 29.5246 20.3451 29.4924 20.4102C29.5246 20.4747 29.5568 20.5391 29.59 20.6055C30.8988 19.884 32.1822 19.1202 33.4663 18.3561C33.9275 18.0819 34.3893 17.8085 34.8512 17.5354C34.9364 17.4851 35.0215 17.4348 35.1092 17.3829C35.6104 17.0869 36.1123 16.7921 36.6148 16.4982C36.855 16.3577 37.0952 16.2172 37.3354 16.0767C37.3955 16.0416 37.4555 16.0064 37.5174 15.9702C38.4561 15.4208 39.3899 14.8638 40.3216 14.3026C41.0117 13.8875 41.7052 13.4787 42.4013 13.0738C42.4966 13.0183 42.5919 12.9629 42.69 12.9058C42.7847 12.8507 42.8794 12.7956 42.9769 12.7388C43.5731 12.3919 44.1687 12.0439 44.7634 11.6944C44.8552 11.6407 44.9469 11.5871 45.0415 11.5318C45.1257 11.4822 45.2099 11.4327 45.2967 11.3816C45.3707 11.3381 45.4448 11.2947 45.5211 11.2499C45.7165 11.1335 45.7165 11.1335 45.8986 10.9375C44.3347 8.81906 42.6217 6.77562 40.4954 5.20005C40.3275 5.07463 40.162 4.94635 39.9969 4.81724C39.891 4.73531 39.7851 4.65342 39.6791 4.57158C39.5861 4.4997 39.4931 4.42781 39.3972 4.35376C39.1666 4.17259 39.1666 4.17259 38.8674 4.19926ZM15.8571 16.9732C14.9357 18.0356 13.5744 19.7224 13.5744 21.1914C13.7445 21.3581 13.7445 21.3581 13.9711 21.5027C14.9577 22.2302 15.5113 23.2141 15.698 24.4187C15.809 25.7092 15.483 26.9288 14.6486 27.9297C14.4295 28.144 14.2047 28.3453 13.97 28.5424C13.7956 28.6892 13.6366 28.8417 13.4767 29.004C14.8398 32.2221 17.0457 34.8125 20.2905 36.2403C23.4204 37.5041 26.8556 37.4457 29.9556 36.1342C30.9677 35.6795 31.8822 35.1098 32.715 34.375C32.8347 34.2729 32.8347 34.2729 32.9569 34.1687C35.2686 32.1539 36.7437 29.423 37.1096 26.3672C37.2525 24.2451 37.0269 22.2836 36.2306 20.3125C35.8896 20.3781 35.6317 20.5149 35.3323 20.6887C35.2314 20.747 35.1305 20.8053 35.0266 20.8654C34.9184 20.9287 34.8101 20.992 34.6987 21.0572C34.5872 21.1219 34.4758 21.1866 34.361 21.2533C32.44 22.3562 32.44 22.3562 30.5666 23.5352C30.5827 23.656 30.5988 23.7769 30.6154 23.9014C30.7953 25.628 30.4842 27.2043 29.4374 28.6194C28.4543 29.7903 27.1041 30.4941 25.5861 30.6641C23.9331 30.7936 22.3745 30.3118 21.1061 29.2359C19.9751 28.1365 19.3358 26.6736 19.3117 25.0977C19.33 23.4925 19.8715 22.0555 20.9963 20.8985C22.266 19.7581 23.7926 19.248 25.4885 19.336C25.8796 19.3634 26.27 19.3961 26.6603 19.4336C26.7423 19.2841 26.7423 19.2841 26.8259 19.1315C27.4276 18.0385 28.0516 16.9595 28.6821 15.8829C29.0548 15.2464 29.4216 14.6066 29.7853 13.9649C29.5674 13.7171 29.3925 13.6161 29.0777 13.522C28.9549 13.4851 28.9549 13.4851 28.8296 13.4474C28.7014 13.4105 28.7014 13.4105 28.5707 13.3728C28.4887 13.3479 28.4067 13.3229 28.3222 13.2971C23.7507 11.9489 19.0472 13.5647 15.8571 16.9732ZM23.0471 23.0469C22.5306 23.6815 22.2104 24.3336 22.2349 25.1717C22.3485 25.9765 22.6717 26.6936 23.3255 27.1874C23.9549 27.6078 24.6259 27.8435 25.3908 27.7344C26.3249 27.4795 26.8933 27.1257 27.4126 26.3039C27.7851 25.6284 27.7858 24.9679 27.6369 24.2188C27.3984 23.4775 26.8681 22.9046 26.1965 22.522C25.1431 22.0523 23.8768 22.2273 23.0471 23.0469ZM10.2541 24.0235C9.93201 24.4851 9.87285 24.9411 9.96111 25.4883C10.1775 25.9211 10.3987 26.1676 10.84 26.3672C11.2929 26.5081 11.6035 26.4509 12.0287 26.27C12.429 26.0501 12.6007 25.7313 12.7382 25.3113C12.8336 24.8606 12.7359 24.5121 12.5002 24.1211C12.0338 23.6775 11.7157 23.5976 11.0884 23.6058C10.7198 23.646 10.5236 23.7737 10.2541 24.0235ZM44.4033 35.5835C44.1767 35.936 44.095 36.202 44.1805 36.6196C44.3394 37.1228 44.56 37.4144 45.0197 37.6954C45.457 37.8215 45.7901 37.8299 46.2221 37.6831C46.5618 37.4461 46.7877 37.1868 46.9728 36.8164C47.0279 36.3654 47.016 36.0256 46.8141 35.6141C46.5196 35.2807 46.2566 35.012 45.8055 34.9236C45.1851 34.8881 44.8307 35.1445 44.4033 35.5835Z" fill="white"/>
</g>
<defs>
<clipPath id="clip0_18638_75829">
<rect width="50" height="50" fill="white"/>
</clipPath>
</defs>
</svg>
