<svg width="43" height="43" viewBox="0 0 43 43" fill="none" xmlns="http://www.w3.org/2000/svg">
<g clip-path="url(#clip0_18642_76397)">
<path d="M21.5 43C33.3741 43 43 33.3741 43 21.5C43 9.62588 33.3741 0 21.5 0C9.62588 0 0 9.62588 0 21.5C0 33.3741 9.62588 43 21.5 43Z" fill="#FF4500"/>
<path d="M35.8023 21.7048C35.8023 19.962 34.3929 18.5777 32.6753 18.5777C31.8639 18.5766 31.0834 18.8889 30.4967 19.4493C28.3437 17.9112 25.3958 16.9118 22.1151 16.7837L23.5502 10.0681L28.2152 11.0675C28.2668 12.2467 29.2405 13.1952 30.4455 13.1952C31.6757 13.1952 32.6753 12.1958 32.6753 10.9649C32.6753 9.73469 31.6759 8.73511 30.4455 8.73511C29.5741 8.73511 28.8048 9.24775 28.446 9.99118L23.243 8.88897C23.0891 8.8631 22.9353 8.88897 22.8326 8.9659C22.7045 9.04283 22.6277 9.17082 22.6024 9.32468L21.0127 16.809C17.6807 16.9118 14.6816 17.9112 12.5031 19.475C11.9163 18.9146 11.1358 18.6024 10.3243 18.6036C8.58133 18.6036 7.19727 20.013 7.19727 21.7307C7.19727 23.0121 7.96606 24.0885 9.04291 24.5759C8.99062 24.8893 8.96488 25.2065 8.96598 25.5243C8.96598 30.3426 14.5795 34.2647 21.5 34.2647C28.4206 34.2647 34.0341 30.3685 34.0341 25.5243C34.0342 25.2066 34.0084 24.8894 33.9572 24.5759C35.0336 24.0885 35.8023 22.9862 35.8023 21.7048ZM14.3228 23.9346C14.3228 22.7044 15.3223 21.7048 16.5531 21.7048C17.7833 21.7048 18.7829 22.7042 18.7829 23.9346C18.7829 25.165 17.7835 26.1649 16.5531 26.1649C15.3224 26.1901 14.3228 25.165 14.3228 23.9346ZM26.8058 29.8557C25.2679 31.3938 22.3457 31.4964 21.5 31.4964C20.6286 31.4964 17.7066 31.3679 16.1938 29.8557C15.9636 29.625 15.9636 29.2661 16.1938 29.0355C16.4246 28.8052 16.7834 28.8052 17.0142 29.0355C17.9884 30.0097 20.039 30.3426 21.5 30.3426C22.961 30.3426 25.0371 30.0095 25.9854 29.0355C26.2162 28.8052 26.575 28.8052 26.8058 29.0355C27.0107 29.2661 27.0107 29.625 26.8058 29.8557ZM26.3954 26.1903C25.1651 26.1903 24.1656 25.1908 24.1656 23.9605C24.1656 22.7301 25.1651 21.7307 26.3954 21.7307C27.6261 21.7307 28.6255 22.7301 28.6255 23.9605C28.6255 25.1648 27.6261 26.1903 26.3954 26.1903Z" fill="white"/>
</g>
<defs>
<clipPath id="clip0_18642_76397">
<rect width="43" height="43" fill="white"/>
</clipPath>
</defs>
</svg>
