<svg width="50" height="50" viewBox="0 0 50 50" fill="none" xmlns="http://www.w3.org/2000/svg">
<g clip-path="url(#clip0_18638_75840)">
<path d="M22.1741 -0.0411006C22.2416 -0.0419277 22.3092 -0.0427548 22.3788 -0.043607C22.6011 -0.0458839 22.8234 -0.0459892 23.0458 -0.045869C23.2011 -0.0465629 23.3564 -0.0473148 23.5117 -0.0481221C23.8369 -0.0494338 24.1622 -0.0495888 24.4874 -0.0490161C24.903 -0.0484408 25.3185 -0.051426 25.7342 -0.0553752C26.0549 -0.0579068 26.3756 -0.0581828 26.6963 -0.0578272C26.8495 -0.057992 27.0026 -0.0589299 27.1558 -0.0606733C28.4989 -0.0742791 28.4989 -0.0742791 28.938 0.198844C29.4564 0.77376 29.5471 1.45553 29.67 2.20022C29.6921 2.32862 29.6921 2.32862 29.7147 2.45961C29.7612 2.73009 29.8066 3.00073 29.852 3.27139C29.8835 3.45603 29.9151 3.64067 29.9468 3.82529C30.0238 4.27529 30.0999 4.72544 30.1754 5.17569C30.2304 5.191 30.2854 5.20631 30.3421 5.22209C31.9798 5.67949 33.6 6.23719 35.0525 7.13873C35.3039 7.24844 35.388 7.21477 35.6442 7.12881C35.8201 7.02847 35.8201 7.02847 35.9906 6.90069C36.0563 6.85359 36.122 6.80648 36.1897 6.75795C36.2594 6.70712 36.3292 6.65628 36.401 6.60391C36.5491 6.49765 36.6972 6.39148 36.8454 6.28538C36.9589 6.20393 36.9589 6.20393 37.0746 6.12083C37.4393 5.8607 37.8079 5.60635 38.1772 5.35269C38.2435 5.30688 38.3099 5.26108 38.3783 5.21388C38.7883 4.93219 39.0293 4.76884 39.526 4.75455C39.6081 4.7509 39.6902 4.74724 39.7747 4.74348C40.3178 4.82903 40.714 5.24052 41.0915 5.61724C41.1788 5.70393 41.2661 5.79062 41.3561 5.87994C41.4495 5.97374 41.5429 6.06756 41.6363 6.16141C41.7335 6.25847 41.8307 6.3555 41.928 6.4525C42.1309 6.6551 42.3334 6.85805 42.5357 7.06124C42.7946 7.32132 43.0545 7.58051 43.3146 7.83945C43.5152 8.03932 43.7153 8.23966 43.9153 8.44015C44.0109 8.53591 44.1067 8.63154 44.2026 8.72701C44.3365 8.86042 44.4697 8.99453 44.6029 9.12867C44.6788 9.20469 44.7547 9.28071 44.8328 9.35904C45.1977 9.7725 45.2776 10.1266 45.2618 10.6692C45.1686 11.1978 44.8428 11.5883 44.5309 12.0116C44.426 12.1576 44.3212 12.3037 44.2166 12.4499C43.9969 12.7562 43.7756 13.0612 43.5532 13.3655C43.5033 13.4347 43.4534 13.5038 43.402 13.5751C43.3135 13.6974 43.2239 13.8188 43.1326 13.939C42.9205 14.2122 42.9205 14.2122 42.8968 14.5419C42.9734 14.7604 43.0683 14.9487 43.182 15.1504C43.846 16.3554 44.369 17.5714 44.8246 18.8692C44.8566 18.9588 44.8886 19.0483 44.9215 19.1405C44.9368 19.2061 44.9521 19.2716 44.9678 19.3391C45.0282 19.5599 45.0881 19.7305 45.2145 19.9218C45.4904 20.0679 45.7695 20.0976 46.077 20.1339C46.1619 20.147 46.2468 20.1602 46.3343 20.1737C46.6056 20.2152 46.8773 20.2518 47.1493 20.288C47.4202 20.3263 47.6908 20.3656 47.9612 20.4065C48.1293 20.4317 48.2977 20.4552 48.4663 20.4769C48.9674 20.5492 49.3096 20.6599 49.7067 20.996C50.0017 21.3919 50.0374 21.6855 50.0407 22.1743C50.0415 22.2419 50.0423 22.3094 50.0432 22.379C50.0454 22.6014 50.0456 22.8237 50.0454 23.046C50.0461 23.2013 50.0469 23.3566 50.0477 23.5119C50.049 23.8372 50.0492 24.1624 50.0486 24.4876C50.048 24.9033 50.051 25.3188 50.0549 25.7344C50.0575 26.0551 50.0578 26.3758 50.0574 26.6965C50.0576 26.8497 50.0585 27.0029 50.0602 27.156C50.0739 28.5008 50.0739 28.5008 49.7724 28.9458C49.1501 29.5498 48.2704 29.5919 47.4463 29.7228C47.2463 29.7547 47.0464 29.7878 46.8466 29.8211C45.7833 29.9944 45.7833 29.9944 45.3122 29.9804C45.2919 30.0787 45.2716 30.177 45.2507 30.2783C44.817 32.2942 43.9856 34.1012 43.0661 35.9374C43.1241 36.018 43.1821 36.0985 43.2419 36.1815C43.7124 36.8365 44.1774 37.4949 44.6347 38.1591C44.6812 38.2266 44.7278 38.294 44.7757 38.3636C45.2306 39.0263 45.2306 39.0263 45.245 39.5263C45.2487 39.6083 45.2523 39.6904 45.2561 39.775C45.1705 40.3181 44.759 40.7142 44.3823 41.0917C44.2956 41.179 44.2089 41.2663 44.1196 41.3563C44.0258 41.4497 43.932 41.5432 43.8382 41.6366C43.7411 41.7338 43.6441 41.831 43.5471 41.9282C43.3445 42.1311 43.1415 42.3336 42.9383 42.5359C42.6782 42.7949 42.4191 43.0547 42.1601 43.3148C41.9602 43.5154 41.7599 43.7155 41.5594 43.9155C41.4637 44.0111 41.368 44.1069 41.2726 44.2028C41.1391 44.3368 41.005 44.47 40.8709 44.6032C40.7949 44.679 40.7189 44.7549 40.6405 44.8331C40.2271 45.198 39.873 45.2778 39.3303 45.2621C38.802 45.1689 38.4107 44.8434 37.9879 44.5312C37.7589 44.3651 37.5295 44.1994 37.3002 44.0338C37.1417 43.9189 36.9838 43.8033 36.8264 43.6871C36.7535 43.6335 36.6806 43.58 36.6055 43.5248C36.5402 43.4765 36.475 43.4282 36.4077 43.3784C36.2207 43.2445 36.2207 43.2445 35.9372 43.164C35.7023 43.2822 35.4836 43.4059 35.2597 43.5424C33.638 44.4882 31.8474 45.312 29.9801 45.6054C29.9644 45.7088 29.9487 45.8122 29.9325 45.9188C29.8736 46.3045 29.8127 46.6899 29.7512 47.0752C29.725 47.2417 29.6992 47.4082 29.674 47.5748C29.6375 47.815 29.5992 48.0549 29.5605 48.2947C29.5497 48.3686 29.5389 48.4425 29.5278 48.5186C29.4341 49.0816 29.2639 49.5126 28.7891 49.8671C28.4492 50.032 28.2026 50.0384 27.8253 50.0409C27.7577 50.0417 27.6902 50.0426 27.6206 50.0434C27.3982 50.0457 27.1759 50.0458 26.9536 50.0457C26.7982 50.0464 26.6429 50.0471 26.4876 50.0479C26.1624 50.0492 25.8372 50.0494 25.5119 50.0488C25.0963 50.0483 24.6808 50.0512 24.2652 50.0552C23.9444 50.0577 23.6238 50.058 23.303 50.0576C23.1499 50.0578 22.9967 50.0587 22.8435 50.0605C21.4987 50.0741 21.4987 50.0741 21.0538 49.7722C20.3856 49.085 20.3779 48.0285 20.245 47.119C20.2229 46.972 20.2007 46.825 20.1785 46.6781C20.1245 46.3206 20.0715 45.9631 20.0192 45.6054C19.8634 45.5695 19.8634 45.5695 19.7046 45.5329C17.8051 45.0892 15.8536 44.3694 14.2487 43.2422C14.1871 43.2164 14.1256 43.1906 14.0622 43.164C13.7859 43.2795 13.5502 43.4361 13.308 43.6107C13.2398 43.6595 13.1717 43.7083 13.1015 43.7586C13.0298 43.8101 12.9581 43.8616 12.8842 43.9147C12.7345 44.0205 12.5847 44.1262 12.4348 44.2317C12.1875 44.406 11.942 44.5818 11.6978 44.7604C11.1914 45.1138 10.8171 45.2907 10.1937 45.2769C9.67364 45.1382 9.28067 44.7546 8.90784 44.3826C8.82053 44.2959 8.73322 44.2092 8.64327 44.1199C8.54982 44.0261 8.4564 43.9323 8.363 43.8384C8.26581 43.7413 8.16859 43.6443 8.07134 43.5473C7.86846 43.3447 7.66593 43.1418 7.46364 42.9386C7.20468 42.6785 6.94484 42.4193 6.68474 42.1604C6.48416 41.9605 6.28404 41.7602 6.08407 41.5597C5.98843 41.4639 5.89265 41.3683 5.79672 41.2728C5.66281 41.1394 5.52959 41.0053 5.39641 40.8711C5.32054 40.7951 5.24468 40.7191 5.16651 40.6408C4.8016 40.2273 4.72176 39.8732 4.73752 39.3306C4.83072 38.8022 5.15628 38.4112 5.46841 37.9882C5.57561 37.8399 5.68266 37.6915 5.78961 37.543C5.96013 37.3064 6.13106 37.0701 6.3039 36.8352C6.35713 36.7626 6.41035 36.69 6.46519 36.6153C6.51301 36.5505 6.56082 36.4858 6.61008 36.419C6.74057 36.2265 6.85371 36.0589 6.93326 35.8397C6.88526 35.6545 6.88526 35.6545 6.76961 35.4781C6.7294 35.4077 6.6892 35.3373 6.64777 35.2648C6.60301 35.1887 6.55824 35.1125 6.51211 35.0341C5.63298 33.4523 5.03208 31.7556 4.68716 29.9804C4.59517 29.9737 4.59517 29.9737 4.50132 29.967C3.73138 29.9048 2.97592 29.7895 2.21524 29.6569C2.03425 29.6275 2.03425 29.6275 1.8496 29.5976C0.565947 29.3738 0.565947 29.3738 0.134477 28.7897C-0.0328819 28.4493 -0.0387871 28.2043 -0.0413448 27.8255C-0.0421719 27.7579 -0.042999 27.6904 -0.0438511 27.6208C-0.0461281 27.3984 -0.0462333 27.1762 -0.0461131 26.9538C-0.046807 26.7985 -0.047559 26.6432 -0.0483662 26.4879C-0.049678 26.1626 -0.0498329 25.8374 -0.0492603 25.5122C-0.0486849 25.0965 -0.0516694 24.681 -0.0556186 24.2654C-0.0581502 23.9447 -0.058427 23.624 -0.0580713 23.3033C-0.0582361 23.1501 -0.059174 22.9969 -0.0609174 22.8438C-0.0745232 21.5007 -0.0745232 21.5007 0.1986 21.0616C0.756285 20.5587 1.37868 20.4677 2.10423 20.3784C2.26059 20.3564 2.41693 20.3342 2.57325 20.3118C2.81654 20.2778 3.05978 20.245 3.3036 20.215C3.54119 20.1852 3.77777 20.151 4.01463 20.1159C4.12404 20.1042 4.12404 20.1042 4.23565 20.0921C4.46998 20.0629 4.46998 20.0629 4.78482 19.9218C4.93954 19.6745 5.00893 19.4222 5.07779 19.1405C5.10436 19.0658 5.13093 18.9911 5.1583 18.9141C5.17919 18.8535 5.20008 18.7929 5.2216 18.7305C5.52823 17.859 5.87102 17.0148 6.26797 16.1803C6.30858 16.0947 6.34918 16.0091 6.39102 15.9209C6.56353 15.5648 6.73266 15.2308 6.96873 14.9127C7.154 14.6657 7.154 14.6657 7.10575 14.4119C7.02815 14.1508 6.93686 13.9897 6.77456 13.7725C6.72204 13.7012 6.66951 13.6299 6.6154 13.5564C6.55916 13.4817 6.50292 13.407 6.44497 13.33C6.32942 13.1734 6.21396 13.0167 6.0986 12.86C6.04151 12.7828 5.98442 12.7057 5.9256 12.6262C5.69453 12.3111 5.47052 11.9915 5.24869 11.6698C5.14521 11.5203 5.14521 11.5203 5.03964 11.3677C4.82315 11.044 4.76544 10.8604 4.7543 10.4735C4.74883 10.3504 4.74883 10.3504 4.74324 10.2248C4.82878 9.68172 5.24028 9.28557 5.61699 8.90808C5.70369 8.82078 5.79038 8.73347 5.8797 8.64352C5.97349 8.55007 6.06732 8.45665 6.16116 8.36325C6.25822 8.26606 6.35525 8.16883 6.45226 8.07159C6.65486 7.8687 6.8578 7.66617 7.061 7.46389C7.32108 7.20492 7.58027 6.94509 7.83921 6.68499C8.03908 6.4844 8.23942 6.28429 8.4399 6.08431C8.53567 5.98868 8.63129 5.89289 8.72676 5.79697C8.86018 5.66306 8.99429 5.52984 9.12842 5.39665C9.20445 5.32079 9.28047 5.24492 9.3588 5.16675C9.77226 4.80185 10.1263 4.72201 10.669 4.73776C11.1977 4.83102 11.5879 5.15695 12.0114 5.46866C12.1562 5.57245 12.3012 5.67607 12.4463 5.77955C12.7504 5.99728 13.0535 6.2163 13.3557 6.43683C13.4604 6.5124 13.4604 6.5124 13.5672 6.58951C13.6993 6.68673 13.8295 6.78655 13.9574 6.88915C14.2914 7.15504 14.2914 7.15504 14.7 7.2299C15.0055 7.10182 15.2896 6.94619 15.5758 6.78091C16.1785 6.44698 16.7936 6.17738 17.4374 5.93252C17.518 5.90161 17.5985 5.8707 17.6815 5.83885C18.3842 5.57748 19.1016 5.37481 19.8239 5.17569C19.8328 5.12316 19.8417 5.07063 19.8509 5.0165C19.9443 4.46805 20.0397 3.91997 20.1362 3.37205C20.1719 3.16773 20.2072 2.96333 20.2419 2.75884C20.292 2.46431 20.3439 2.17014 20.3961 1.87598C20.4112 1.78501 20.4262 1.69405 20.4418 1.60032C20.5518 0.994163 20.6928 0.518314 21.2101 0.133395C21.5502 -0.0323114 21.7962 -0.0385492 22.1741 -0.0411006ZM23.3395 2.92959C23.2936 3.20478 23.2476 3.47996 23.2003 3.76349C23.1549 4.03114 23.1092 4.29874 23.0635 4.56634C23.032 4.75174 23.0009 4.9372 22.9701 5.12271C22.9256 5.39001 22.88 5.65708 22.8341 5.92413C22.8206 6.00655 22.8072 6.08897 22.7933 6.17389C22.6933 6.74624 22.5752 7.23397 22.1241 7.63312C21.6645 7.90718 21.1307 8.0101 20.6173 8.142C18.7186 8.65556 17.0406 9.38289 15.3408 10.3786C14.99 10.5739 14.7567 10.6374 14.3551 10.6444C13.7158 10.4513 13.2437 10.1467 12.7133 9.74722C12.637 9.69093 12.5607 9.63463 12.4822 9.57663C12.3301 9.46438 12.1784 9.35178 12.0269 9.23882C11.7427 9.02736 11.456 8.81963 11.1691 8.61197C11.0267 8.50824 10.8842 8.40449 10.7418 8.30069C10.3741 8.45331 10.1426 8.68217 9.86447 8.96368C9.8195 9.00893 9.77454 9.05417 9.72821 9.10078C9.58548 9.2446 9.44344 9.38908 9.30142 9.5336C9.20444 9.63155 9.10742 9.72946 9.01036 9.82733C8.7732 10.0666 8.53666 10.3065 8.30044 10.5468C8.43564 10.8314 8.58994 11.0876 8.76851 11.3471C8.82172 11.4247 8.87494 11.5022 8.92977 11.5821C8.98595 11.6634 9.04213 11.7447 9.1 11.8285C9.15706 11.9116 9.21412 11.9947 9.27291 12.0803C9.62193 12.5878 9.97405 13.0929 10.3344 13.5924C10.5799 13.972 10.5885 14.3053 10.5465 14.746C10.3349 15.3086 10.006 15.8089 9.68594 16.3146C8.63868 18.0044 8.0333 19.8625 7.49085 21.7659C7.37442 22.1131 7.24025 22.3614 6.93326 22.5585C6.05452 22.83 5.12195 22.9565 4.21719 23.1139C3.7922 23.1884 3.36722 23.263 2.92935 23.3397C2.92935 24.4355 2.92935 25.5312 2.92935 26.6601C3.98665 26.8367 3.98665 26.8367 5.04441 27.0105C6.77814 27.3013 6.77814 27.3013 7.15494 27.8012C7.4299 28.2954 7.53844 28.8395 7.65347 29.3883C8.10731 31.3975 8.88252 33.2823 10.0064 35.0127C10.2903 35.4704 10.3342 35.9009 10.2536 36.4257C10.0418 36.9484 9.67764 37.3898 9.34605 37.8413C9.28874 37.9196 9.23142 37.9979 9.17236 38.0786C9.05599 38.2366 8.93853 38.3939 8.81993 38.5503C8.76558 38.6233 8.71122 38.6964 8.65521 38.7717C8.60575 38.8371 8.5563 38.9025 8.50534 38.9699C8.36613 39.1804 8.36613 39.1804 8.3981 39.5507C8.59835 39.8052 8.59835 39.8052 8.86807 40.0588C8.9396 40.1295 8.9396 40.1295 9.01258 40.2016C9.16493 40.3518 9.31859 40.5006 9.47232 40.6493C9.57591 40.751 9.67942 40.8527 9.78284 40.9545C10.0364 41.2038 10.2911 41.4518 10.5465 41.6991C10.8367 41.5617 11.0965 41.4031 11.3606 41.2208C11.4404 41.1659 11.5202 41.111 11.6024 41.0544C11.685 40.9973 11.7676 40.9401 11.8527 40.8813C12.0945 40.7146 12.3363 40.548 12.5787 40.3822C12.7082 40.2927 12.8368 40.2019 12.9637 40.1087C13.4525 39.7567 13.8706 39.7514 14.4528 39.8437C14.7753 39.965 15.0459 40.141 15.3317 40.3319C17.3252 41.6127 19.4718 42.4474 21.7843 42.9702C22.1765 43.1022 22.4519 43.2455 22.6443 43.6279C22.8943 44.3119 22.9925 45.0428 23.1137 45.758C23.1882 46.191 23.2627 46.6241 23.3395 47.0702C24.4352 47.0702 25.5309 47.0702 26.6598 47.0702C26.8366 46.0363 26.8366 46.0363 27.0103 45.0018C27.0332 44.8711 27.0563 44.7404 27.0794 44.6097C27.0901 44.5432 27.1007 44.4766 27.1117 44.408C27.2111 43.86 27.4097 43.4414 27.8504 43.0919C28.2232 42.9244 28.5995 42.843 28.9975 42.755C31.1475 42.2425 33.3143 41.417 35.0834 40.0626C35.5331 39.742 36.0959 39.7647 36.6208 39.8437C37.0192 40.0181 37.3486 40.2662 37.695 40.5272C37.8333 40.6294 37.9716 40.7315 38.11 40.8336C38.4949 41.119 38.8767 41.4082 39.2575 41.6991C39.6253 41.5465 39.8567 41.3176 40.1349 41.0361C40.1798 40.9909 40.2248 40.9456 40.2711 40.899C40.4138 40.7552 40.5559 40.6107 40.6979 40.4662C40.7949 40.3683 40.8919 40.2703 40.989 40.1725C41.2261 39.9332 41.4627 39.6933 41.6989 39.453C41.5625 39.1651 41.4055 38.9075 41.2239 38.6458C41.1695 38.5669 41.1151 38.488 41.059 38.4067C41.0023 38.325 40.9455 38.2433 40.8871 38.1591C40.6679 37.8427 40.4498 37.5257 40.234 37.2069C40.1853 37.1349 40.1365 37.0629 40.0863 36.9887C40.0421 36.9213 39.998 36.8538 39.9525 36.7843C39.9137 36.7254 39.8749 36.6666 39.835 36.606C39.6663 36.2651 39.6619 35.9123 39.7458 35.5468C39.9449 35.0868 40.1965 34.6535 40.4485 34.2209C41.4543 32.4888 42.1474 30.6401 42.5321 28.6723C42.6274 28.2182 42.7632 27.8923 43.0661 27.539C43.5514 27.2963 44.0097 27.1764 44.5427 27.0892C44.6073 27.078 44.6719 27.0668 44.7384 27.0552C44.9763 27.0141 45.2144 26.9745 45.4525 26.9347C46.2532 26.7988 46.2532 26.7988 47.07 26.6601C47.07 25.5644 47.07 24.4687 47.07 23.3397C46.8078 23.2938 46.5455 23.2479 46.2754 23.2005C46.0206 23.1552 45.766 23.1095 45.5113 23.0638C45.3347 23.0323 45.1581 23.0011 44.9814 22.9703C44.7269 22.9259 44.4727 22.8802 44.2185 22.8343C44.1398 22.8209 44.0612 22.8074 43.9801 22.7936C43.4245 22.6913 43.0336 22.56 42.6617 22.1107C42.4363 21.6967 42.3271 21.2919 42.2116 20.8373C41.6688 18.837 40.8317 16.9685 39.6786 15.2442C39.4319 14.8491 39.4153 14.5199 39.4528 14.0624C39.6844 13.4486 40.0787 12.9252 40.466 12.4023C40.5198 12.3285 40.5737 12.2547 40.6292 12.1787C40.9819 11.6969 41.3397 11.219 41.6989 10.7421C41.5463 10.3743 41.3174 10.1428 41.0359 9.86471C40.9906 9.81975 40.9454 9.77478 40.8988 9.72845C40.755 9.58572 40.6105 9.44369 40.466 9.30166C40.368 9.20469 40.2701 9.10767 40.1722 9.0106C39.9329 8.77344 39.693 8.5369 39.4528 8.30069C39.1682 8.43588 38.9119 8.59018 38.6525 8.76875C38.575 8.82196 38.4975 8.87517 38.4176 8.92999C38.2956 9.01427 38.2956 9.01427 38.171 9.10025C38.0876 9.15738 38.0042 9.2145 37.9182 9.27336C37.4904 9.56687 37.0686 9.86619 36.6513 10.1745C36.2078 10.4821 35.8206 10.6918 35.2601 10.6204C34.6746 10.4599 34.1632 10.1268 33.6414 9.82595C32.1027 8.94776 30.4531 8.34523 28.7289 7.94668C28.2967 7.84226 27.9741 7.72487 27.6364 7.42178C27.3455 6.93892 27.2545 6.47132 27.1653 5.92413C27.1505 5.83826 27.1357 5.75238 27.1205 5.66391C27.0739 5.39144 27.0286 5.11878 26.9833 4.8461C26.9518 4.66056 26.9202 4.47504 26.8885 4.28953C26.8111 3.8364 26.7355 3.38302 26.6598 2.92959C25.5641 2.92959 24.4684 2.92959 23.3395 2.92959Z" fill="white"/>
<path d="M28.418 10.8399C28.5305 10.8674 28.5305 10.8674 28.6453 10.8955C30.5492 11.3725 32.3119 12.2086 33.8868 13.3789C33.9782 13.4466 34.0696 13.5144 34.1637 13.5841C36.8737 15.7061 38.7303 18.6373 39.5508 21.9727C39.5978 22.1602 39.5978 22.1602 39.6458 22.3515C40.0854 24.3512 40.0617 26.8272 39.5508 28.8086C39.5325 28.8836 39.5141 28.9586 39.4952 29.0359C38.5512 32.8036 36.1058 36.1249 32.7881 38.147C31.4003 38.9646 29.9805 39.5482 28.418 39.9414C28.3506 39.9589 28.2832 39.9764 28.2138 39.9945C26.1828 40.4981 23.6043 40.4628 21.5821 39.9414C21.4696 39.9139 21.4696 39.9139 21.3548 39.8858C19.4509 39.4088 17.6882 38.5726 16.1133 37.4024C16.0219 37.3346 15.9305 37.2669 15.8364 37.1971C12.6824 34.7276 10.6518 31.1225 10.1563 27.1485C10.107 26.5795 10.104 26.0102 10.1075 25.4395C10.1076 25.3637 10.1078 25.2879 10.108 25.2098C10.1277 21.282 11.6404 17.7546 14.3555 14.9414C14.4326 14.8582 14.5096 14.775 14.589 14.6893C16.4367 12.7467 19.0005 11.475 21.5821 10.8399C21.7071 10.8085 21.8321 10.7772 21.9609 10.7449C23.9606 10.3053 26.4366 10.329 28.418 10.8399ZM16.2823 17.3107C14.2236 19.492 13.1399 22.3796 13.1531 25.3601C13.1533 25.4248 13.1535 25.4896 13.1538 25.5562C13.1713 28.924 14.562 31.742 16.9201 34.1084C19.0995 36.1653 22.1058 37.3192 25.0977 37.3047C28.5659 37.1768 31.559 35.7579 33.9356 33.2398C35.8446 31.0546 36.8598 28.3134 36.847 25.4212C36.8468 25.3564 36.8466 25.2917 36.8463 25.225C36.8288 21.8573 35.4381 19.0392 33.08 16.6729C28.2263 12.0921 20.8598 12.749 16.2823 17.3107Z" fill="white"/>
<path d="M29.6742 19.0871C30.5652 19.7932 31.2846 20.5828 31.836 21.5819C31.8808 21.6587 31.9257 21.7355 31.9718 21.8146C32.3539 22.5119 32.5317 23.2555 32.7149 24.0233C32.7954 24.0001 32.7954 24.0001 32.8774 23.9764C33.4448 23.8502 33.9989 23.8353 34.5216 24.0966C34.9597 24.4909 35.1414 24.7728 35.1808 25.3722C35.1986 25.8204 35.0181 26.1794 34.7345 26.5234C34.5777 26.6913 34.4171 26.854 34.2538 27.0156C34.1947 27.075 34.1355 27.1344 34.0746 27.1956C33.9501 27.3204 33.8251 27.4448 33.6998 27.5688C33.5086 27.7584 33.3191 27.9496 33.1296 28.1409C33.008 28.2623 32.8863 28.3836 32.7645 28.5049C32.7082 28.5618 32.6518 28.6188 32.5937 28.6775C32.1949 29.0694 31.8858 29.269 31.3172 29.3334C30.5813 29.2586 30.0617 28.8522 29.5545 28.3401C29.4999 28.2861 29.4453 28.2322 29.3891 28.1766C29.275 28.0631 29.1614 27.9492 29.0482 27.8348C28.8761 27.6613 28.7017 27.4902 28.527 27.3192C28.4156 27.208 28.3044 27.0966 28.1934 26.9851C28.116 26.9097 28.116 26.9097 28.0371 26.8327C27.6402 26.4257 27.362 25.9654 27.3342 25.3845C27.3717 24.9048 27.5268 24.5834 27.8321 24.2187C28.2105 23.9397 28.4706 23.892 28.9369 23.9074C29.0934 23.9113 29.0934 23.9113 29.2531 23.9154C29.332 23.9188 29.411 23.9222 29.4923 23.9257C28.9035 22.5819 28.0859 21.5755 26.7102 20.9903C25.3961 20.5287 24.1054 20.6301 22.8394 21.2035C21.7487 21.7918 20.9312 22.7371 20.5201 23.9074C20.1357 25.2421 20.2789 26.5606 20.9413 27.7888C21.5821 28.7901 22.5167 29.582 23.6665 29.9277C24.0815 30.012 24.5038 30.0554 24.926 30.0869C25.4895 30.1397 25.8305 30.3561 26.2513 30.7189C26.543 31.072 26.4975 31.5269 26.4913 31.9602C26.453 32.3467 26.3448 32.5352 26.0743 32.8124C25.3019 33.3686 24.512 33.2353 23.6207 33.0932C21.584 32.7284 19.818 31.6147 18.5964 29.9392C17.3309 28.1067 16.941 25.9525 17.3364 23.7789C17.7453 21.769 18.9367 20.0329 20.6222 18.8689C23.3744 17.0688 27.0204 17.1416 29.6742 19.0871Z" fill="white"/>
</g>
<defs>
<clipPath id="clip0_18638_75840">
<rect width="50" height="50" fill="white"/>
</clipPath>
</defs>
</svg>
