<svg width="50" height="50" viewBox="0 0 50 50" fill="none" xmlns="http://www.w3.org/2000/svg">
<g clip-path="url(#clip0_18638_75845)">
<path d="M25.6837 17.6758C26.1339 17.8891 26.3427 18.1142 26.5626 18.5547C26.6002 18.845 26.6002 18.845 26.6017 19.1708C26.603 19.2935 26.6043 19.4162 26.6057 19.5426C26.6057 19.6763 26.6057 19.81 26.6057 19.9436C26.6069 20.0828 26.6082 20.2219 26.6096 20.361C26.6131 20.7281 26.6151 21.0951 26.6166 21.4622C26.6193 22.1137 26.6237 22.7651 26.6301 23.4165C26.6311 23.5212 26.6311 23.5212 26.6322 23.6279C26.6635 26.5151 27.0771 29.1776 29.004 31.4453C29.0708 31.5279 29.1377 31.6105 29.2066 31.6956C30.5744 33.3137 32.4332 34.3519 34.4728 34.8633C34.5443 34.8813 34.6159 34.8992 34.6897 34.9178C37.013 35.4464 39.4065 35.0449 41.504 33.9844C41.6074 33.9322 41.7107 33.8799 41.8172 33.8261C43.9746 32.647 45.7345 30.532 46.4617 28.1754C46.5352 27.9134 46.6029 27.6508 46.6676 27.3865C46.6874 27.3059 46.7073 27.2252 46.7278 27.1421C46.9835 26.0067 46.9861 24.8386 46.9892 23.6797C46.9902 23.3987 46.9927 23.1177 46.9951 22.8367C46.9995 22.317 47.0033 21.7973 47.0046 21.2775C47.0056 20.9125 47.0084 20.5475 47.0125 20.1825C47.0137 20.0445 47.0142 19.9065 47.014 19.7685C47.0138 19.5761 47.0162 19.3836 47.0187 19.1912C47.0192 19.0821 47.0198 18.973 47.0204 18.8607C47.0973 18.3904 47.3202 18.0782 47.6934 17.7883C48.1572 17.5844 48.6253 17.6153 49.1212 17.6758C49.57 17.8884 49.7864 18.1117 50.0001 18.5547C50.0279 18.8172 50.0402 19.0567 50.038 19.3189C50.0388 19.4322 50.0388 19.4322 50.0396 19.5477C50.0408 19.7971 50.04 20.0464 50.039 20.2957C50.0392 20.4706 50.0395 20.6455 50.0399 20.8203C50.0403 21.1874 50.0397 21.5545 50.0383 21.9217C50.0366 22.3875 50.0376 22.8533 50.0393 23.3192C50.0404 23.681 50.0401 24.0428 50.0393 24.4046C50.0391 24.576 50.0393 24.7475 50.04 24.9189C50.0447 26.4022 49.894 27.8244 49.4081 29.2359C49.3792 29.3208 49.3502 29.4057 49.3205 29.4931C48.6647 31.3386 47.6278 32.8589 46.2892 34.2774C46.2234 34.3494 46.1577 34.4214 46.09 34.4956C44.7174 35.9453 42.9295 36.9509 41.0523 37.5916C40.9757 37.618 40.899 37.6444 40.82 37.6716C40.0098 37.9307 39.2369 38.0322 38.379 38.1836C38.3468 40.1172 38.3146 42.0508 38.2813 44.043C39.8941 44.0276 39.8941 44.0276 41.5067 44.0078C41.7095 44.0067 41.9123 44.0057 42.1151 44.0049C42.2197 44.0029 42.3242 44.0009 42.4319 43.9988C43.0339 43.9985 43.3918 44.0269 43.8478 44.4336C44.2439 44.9436 44.2163 45.474 44.1407 46.0938C43.9271 46.5448 43.7012 46.7497 43.2618 46.9727C43.0021 47.0098 43.0021 47.0098 42.7177 47.0105C42.5552 47.012 42.5552 47.012 42.3895 47.0135C42.2717 47.013 42.1538 47.0126 42.0324 47.0121C41.8451 47.0131 41.8451 47.0131 41.654 47.0142C41.3122 47.0159 40.9704 47.0158 40.6286 47.0153C40.343 47.015 40.0573 47.0155 39.7717 47.0161C39.0977 47.0175 38.4237 47.0174 37.7497 47.0162C37.055 47.0151 36.3603 47.0165 35.6657 47.0191C35.0686 47.0213 34.4715 47.0219 33.8745 47.0214C33.5181 47.021 33.1618 47.0213 32.8055 47.0229C32.4081 47.0247 32.0107 47.0234 31.6133 47.0217C31.4956 47.0226 31.378 47.0236 31.2567 47.0245C30.641 47.0191 30.2488 47.005 29.7853 46.5821C29.3891 46.072 29.4167 45.5417 29.4923 44.9219C29.704 44.4749 29.9217 44.2421 30.3712 44.043C30.7504 44.0024 31.1274 44.009 31.5084 44.0144C31.6058 44.0147 31.7032 44.015 31.8036 44.0153C32.1664 44.0168 32.5292 44.0209 32.8919 44.0247C33.7037 44.0307 34.5154 44.0368 35.3517 44.043C35.3194 42.1094 35.2872 40.1758 35.254 38.1836C34.5772 38.0547 33.9005 37.9258 33.2032 37.793C30.9942 37.0708 29.2325 36.0707 27.5392 34.4727C27.4672 34.407 27.3951 34.3413 27.321 34.2736C25.8712 32.9009 24.8656 31.113 24.225 29.2359C24.1985 29.1592 24.1721 29.0825 24.1449 29.0035C23.689 27.5776 23.5872 26.1549 23.5906 24.6693C23.5901 24.4935 23.5896 24.3178 23.589 24.142C23.5882 23.7774 23.5884 23.4128 23.5894 23.0482C23.5905 22.5818 23.5885 22.1155 23.5856 21.6491C23.5839 21.2878 23.5839 20.9264 23.5844 20.5651C23.5845 20.393 23.5839 20.221 23.5827 20.0489C23.5812 19.8092 23.5822 19.5697 23.5839 19.33C23.583 19.2598 23.582 19.1897 23.5811 19.1174C23.5882 18.6257 23.7166 18.3484 24.0235 17.9688C24.5336 17.5727 25.0639 17.6002 25.6837 17.6758Z" fill="white"/>
<path d="M39.4532 6.34767C39.5152 6.37337 39.5773 6.39906 39.6412 6.42554C40.6599 6.85573 41.4227 7.41086 42.1875 8.20314C42.2595 8.27212 42.3316 8.34111 42.4057 8.41218C42.8257 8.83866 43.1123 9.30425 43.3838 9.83278C43.4148 9.89241 43.4458 9.95204 43.4778 10.0135C44.0146 11.1183 44.1989 12.2249 44.1912 13.4436C44.1917 13.5809 44.1924 13.7182 44.1933 13.8556C44.195 14.2242 44.1944 14.5928 44.1931 14.9615C44.1921 15.3501 44.1931 15.7387 44.1937 16.1273C44.1944 16.7796 44.1935 17.432 44.1916 18.0843C44.1895 18.8347 44.1902 19.5851 44.1923 20.3356C44.1941 20.9838 44.1943 21.6319 44.1933 22.2801C44.1927 22.6656 44.1926 23.051 44.1939 23.4364C44.195 23.7991 44.1942 24.1618 44.192 24.5246C44.1912 24.7184 44.1924 24.9123 44.1936 25.1062C44.1829 26.2662 43.9389 27.3993 43.4021 28.4363C43.3693 28.5006 43.3365 28.5649 43.3027 28.6312C42.9366 29.3121 42.4472 29.8376 41.8946 30.3711C41.8256 30.4431 41.7566 30.5151 41.6855 30.5893C40.402 31.8533 38.5705 32.3557 36.8164 32.3731C34.8713 32.3538 33.0844 31.7362 31.7002 30.3421C31.6161 30.255 31.532 30.1679 31.4454 30.0781C31.3733 30.0092 31.3013 29.9402 31.2272 29.8691C30.8072 29.4426 30.5206 28.977 30.2491 28.4485C30.2181 28.3889 30.1871 28.3292 30.1551 28.2678C29.6165 27.1592 29.434 26.05 29.4417 24.8272C29.4412 24.6888 29.4405 24.5503 29.4396 24.4119C29.4378 24.0402 29.4385 23.6686 29.4398 23.2969C29.4408 22.9052 29.4398 22.5136 29.4392 22.1219C29.4385 21.4646 29.4394 20.8072 29.4413 20.1499C29.4434 19.3934 29.4427 18.6369 29.4406 17.8803C29.4388 17.2271 29.4386 16.5738 29.4396 15.9206C29.4402 15.532 29.4403 15.1435 29.439 14.755C29.4378 14.3894 29.4387 14.024 29.4409 13.6584C29.4417 13.4628 29.4405 13.2671 29.4393 13.0715C29.4497 11.9359 29.7135 10.8645 30.2308 9.85109C30.28 9.75394 30.28 9.75394 30.3302 9.65482C30.6955 8.97068 31.1839 8.44537 31.7383 7.91017C31.8073 7.83816 31.8763 7.76616 31.9474 7.69197C32.5863 7.06277 33.3645 6.69692 34.1797 6.34767C34.2838 6.30285 34.3879 6.25804 34.4952 6.21187C35.9913 5.68405 37.9958 5.72333 39.4532 6.34767ZM33.6125 10.3104C32.5282 11.5087 32.4071 12.889 32.4077 14.4366C32.4074 14.549 32.4071 14.6614 32.4067 14.7772C32.4058 15.1468 32.4056 15.5164 32.4055 15.8859C32.4053 16.079 32.405 16.272 32.4048 16.4651C32.404 17.0716 32.4038 17.6781 32.4038 18.2846C32.4039 18.9071 32.4029 19.5295 32.4013 20.152C32.4 20.6892 32.3995 21.2264 32.3996 21.7636C32.3996 22.0832 32.3992 22.4028 32.3983 22.7224C32.3973 23.0796 32.3976 23.4369 32.3982 23.7941C32.3976 23.8977 32.3971 24.0014 32.3965 24.1081C32.4032 25.7185 32.7083 27.0152 33.8456 28.204C34.2179 28.5409 34.608 28.7851 35.0586 29.0039C35.1553 29.0536 35.1553 29.0536 35.2539 29.1042C36.1376 29.4788 37.3896 29.4408 38.2874 29.1382C39.4611 28.6221 40.4349 27.78 40.9163 26.5681C41.213 25.6767 41.2398 24.7317 41.2363 23.8003C41.2366 23.6878 41.2369 23.5754 41.2373 23.4595C41.2381 23.0921 41.2376 22.7247 41.2369 22.3572C41.2371 22.0993 41.2372 21.8414 41.2375 21.5835C41.2378 21.0448 41.2374 20.506 41.2364 19.9672C41.2354 19.3476 41.2357 18.728 41.2368 18.1085C41.2378 17.5082 41.2377 16.9079 41.2371 16.3075C41.237 16.054 41.2371 15.8005 41.2376 15.547C41.2381 15.1916 41.2373 14.8363 41.2363 14.481C41.2366 14.378 41.237 14.2749 41.2374 14.1688C41.2285 12.5601 40.9235 11.265 39.7873 10.0773C37.9297 8.39645 35.3796 8.61985 33.6125 10.3104Z" fill="white"/>
<path d="M8.00759 3.02723C8.57049 3.26847 8.7513 3.66046 8.98416 4.1991C9.1446 4.62843 9.28851 5.06274 9.43191 5.49801C9.47521 5.62802 9.51856 5.75803 9.56197 5.88801C9.67888 6.23866 9.79508 6.58954 9.91115 6.94047C10.0328 7.30802 10.1552 7.67534 10.2775 8.0427C10.5087 8.73734 10.7392 9.43219 10.9695 10.1271C11.2319 10.9187 11.495 11.71 11.7581 12.5013C12.2991 14.1282 12.8391 15.7554 13.3787 17.3827C13.5437 17.1352 13.6455 16.934 13.7536 16.6611C13.7885 16.5735 13.8234 16.4859 13.8594 16.3956C13.8972 16.2997 13.935 16.2038 13.9739 16.105C14.0342 15.9532 14.0342 15.9532 14.0957 15.7984C14.1831 15.5785 14.2703 15.3585 14.3574 15.1385C14.4954 14.7903 14.6339 14.4424 14.7726 14.0945C15.167 13.1052 15.561 12.1158 15.953 11.1256C16.1927 10.5201 16.4337 9.9152 16.6755 9.31053C16.7674 9.07998 16.8589 8.84925 16.9499 8.61833C17.0772 8.29525 17.2061 7.97282 17.3354 7.6505C17.3726 7.55501 17.4098 7.45951 17.4481 7.36113C17.7045 6.72833 17.9767 6.3421 18.5545 5.95691C18.8188 5.92411 18.8188 5.92411 19.1221 5.92029C19.2214 5.91752 19.3207 5.91475 19.4231 5.9119C19.8259 5.97169 20.0046 6.07775 20.3123 6.34754C20.5179 6.65014 20.6765 6.97149 20.8372 7.29969C20.8856 7.39537 20.9339 7.49105 20.9838 7.58963C21.1209 7.86172 21.2566 8.1345 21.3918 8.40758C21.5625 8.75135 21.7352 9.09412 21.9076 9.43706C22.2891 10.1967 22.6684 10.9574 23.0467 11.7186C23.1235 11.7195 23.2003 11.7205 23.2794 11.7214C23.6291 11.7267 23.9787 11.7348 24.3284 11.743C24.4492 11.7444 24.5701 11.7458 24.6946 11.7472C25.8298 11.7778 25.8298 11.7778 26.2693 12.2069C26.6654 12.7169 26.6379 13.2473 26.5623 13.8671C26.3501 14.3149 26.1293 14.5389 25.6834 14.746C25.3681 14.7896 25.0556 14.7894 24.7377 14.7883C24.6466 14.7888 24.5555 14.7893 24.4616 14.7899C24.2693 14.7905 24.0769 14.7904 23.8846 14.7895C23.5912 14.7887 23.2979 14.7915 23.0045 14.7946C22.8173 14.7948 22.63 14.7947 22.4428 14.7944C22.3555 14.7955 22.2682 14.7966 22.1783 14.7977C21.6406 14.7918 21.316 14.7264 20.8982 14.3554C20.7303 14.1172 20.7303 14.1172 20.5984 13.8533C20.5246 13.7085 20.5246 13.7085 20.4492 13.5608C20.3754 13.4103 20.3754 13.4103 20.3001 13.2567C20.2501 13.1579 20.2001 13.0591 20.1486 12.9573C20.0064 12.6753 19.8661 12.3924 19.7263 12.1093C19.6494 11.9551 19.5723 11.801 19.4952 11.6469C19.4426 11.5417 19.3899 11.4364 19.3357 11.328C19.0258 11.9249 18.7671 12.531 18.5215 13.1568C18.4609 13.3099 18.4609 13.3099 18.3991 13.466C18.3119 13.6864 18.2249 13.9067 18.1381 14.1272C18.0005 14.4762 17.8624 14.8251 17.7241 15.1739C17.3314 16.1652 16.9394 17.1569 16.548 18.1487C16.3082 18.7565 16.0676 19.3639 15.8267 19.9712C15.7352 20.2023 15.6439 20.4335 15.5529 20.6648C15.4257 20.9881 15.2977 21.311 15.1695 21.6338C15.1323 21.7291 15.095 21.8244 15.0566 21.9226C14.529 23.244 14.529 23.244 13.867 23.535C13.3345 23.6146 12.8496 23.6013 12.3533 23.3886C11.7569 22.7922 11.5472 21.9047 11.2887 21.1227C11.2473 20.9989 11.2059 20.8752 11.1644 20.7514C11.0527 20.4177 10.9418 20.0838 10.831 19.7498C10.7147 19.3996 10.5978 19.0496 10.481 18.6996C10.2853 18.1125 10.09 17.5253 9.89496 16.938C9.66947 16.2589 9.44324 15.5801 9.21662 14.9014C8.99836 14.2477 8.7806 13.5938 8.56307 12.9398C8.47056 12.6617 8.37787 12.3836 8.28505 12.1056C8.15572 11.7182 8.02711 11.3305 7.89859 10.9428C7.85994 10.8273 7.82128 10.7118 7.78146 10.5927C7.74669 10.4875 7.71193 10.3822 7.6761 10.2737C7.63041 10.1363 7.63041 10.1363 7.5838 9.99612C7.51931 9.76551 7.51931 9.76551 7.51931 9.47254C7.45486 9.47254 7.39041 9.47254 7.324 9.47254C7.31315 9.52577 7.30229 9.579 7.29111 9.63385C7.17552 10.1792 7.02651 10.7037 6.84907 11.2319C6.82233 11.3118 6.79558 11.3918 6.76803 11.4742C6.71174 11.6417 6.65518 11.8091 6.59837 11.9764C6.51214 12.2316 6.42798 12.4874 6.34381 12.7433C6.28856 12.9068 6.23319 13.0704 6.17768 13.2338C6.15305 13.3097 6.12841 13.3856 6.10303 13.4638C5.89689 14.0587 5.60776 14.3927 5.07791 14.746C4.8872 14.7721 4.8872 14.7721 4.66847 14.7743C4.58631 14.7756 4.50415 14.7768 4.41951 14.7781C4.331 14.7783 4.2425 14.7786 4.15132 14.7788C4.05992 14.7794 3.96851 14.7801 3.87434 14.7808C3.68086 14.7817 3.48738 14.7822 3.29389 14.7822C2.99873 14.7826 2.70371 14.7861 2.40857 14.7898C2.22044 14.7904 2.03232 14.7908 1.84419 14.791C1.75628 14.7924 1.66837 14.7938 1.5778 14.7952C1.03544 14.7913 0.721757 14.7195 0.29275 14.3554C-0.103373 13.8453 -0.0758022 13.315 -0.000218693 12.6952C0.212918 12.2452 0.438118 12.0358 0.878688 11.8163C1.1672 11.783 1.1672 11.783 1.48179 11.7877C1.59477 11.7886 1.70775 11.7896 1.82416 11.7905C1.94117 11.793 2.05818 11.7955 2.17874 11.798C2.35708 11.8 2.35708 11.8 2.53903 11.802C2.83198 11.8054 3.12485 11.8102 3.41775 11.8163C3.43929 11.7043 3.46083 11.5924 3.48303 11.477C3.64574 10.7475 3.8953 10.0425 4.1311 9.33407C4.18244 9.17909 4.23378 9.02411 4.2851 8.86912C4.39232 8.54571 4.4999 8.22241 4.6077 7.89919C4.74541 7.48609 4.8819 7.0726 5.01809 6.659C5.12355 6.33935 5.22982 6.01997 5.33631 5.70066C5.38697 5.54833 5.43735 5.3959 5.48743 5.24338C5.55759 5.03001 5.62886 4.81705 5.70042 4.60415C5.7406 4.48319 5.78078 4.36224 5.82218 4.23761C6.26693 3.14262 6.87596 2.89364 8.00759 3.02723Z" fill="white"/>
</g>
<defs>
<clipPath id="clip0_18638_75845">
<rect width="50" height="50" fill="white"/>
</clipPath>
</defs>
</svg>
