<svg width="50" height="50" viewBox="0 0 50 50" fill="none" xmlns="http://www.w3.org/2000/svg">
<g clip-path="url(#clip0_18638_75713)">
<path d="M6.05464 -1.41934e-05C6.60411 0.171473 7.12256 0.400476 7.64766 0.634751C7.79981 0.700774 7.95206 0.766557 8.10442 0.832114C8.34381 0.935158 8.58312 1.03836 8.82211 1.14233C9.41588 1.4004 10.0131 1.64901 10.6128 1.89284C10.6985 1.92767 10.7841 1.9625 10.8723 1.99839C11.2075 2.13456 11.5427 2.27049 11.8781 2.40618C13.3248 2.9923 13.3248 2.9923 13.9518 3.27986C14.0574 3.3279 14.0574 3.3279 14.165 3.3769C14.7688 3.81678 14.8335 4.43691 14.9486 5.12682C15.6825 8.9017 17.4583 11.0185 20.1874 13.5211C20.71 14.0011 21.2212 14.4927 21.732 14.9852C22.7772 15.9923 23.8348 16.9853 24.9023 17.9687C25.7744 17.5499 26.6307 16.7305 27.1484 15.918C27.2644 15.4102 27.0585 15.0104 26.8403 14.5548C26.4806 13.6859 26.5229 12.6904 26.5258 11.7676C26.5259 11.6986 26.5261 11.6296 26.5262 11.5586C26.5403 8.51684 27.6396 5.85272 29.6875 3.61327C29.7574 3.53522 29.8274 3.45717 29.8995 3.37676C30.9434 2.27007 32.2142 1.49355 33.5937 0.878892C33.7482 0.808271 33.7482 0.808271 33.9057 0.736222C36.2608 -0.25758 39.2641 -0.380567 41.6992 0.390611C41.8034 0.423561 41.8034 0.423561 41.9096 0.457177C42.65 0.701395 43.1834 0.92304 43.6523 1.56249C43.7688 1.79552 43.7729 1.9555 43.7805 2.21556C43.7841 2.29651 43.7878 2.37745 43.7915 2.46085C43.6633 3.30461 42.9827 3.79385 42.3806 4.32919C42.0305 4.64324 41.6892 4.96689 41.346 5.28838C41.0466 5.56787 40.745 5.84382 40.4367 6.11354C38.7457 7.57786 38.7457 7.57786 38.0845 9.63768C38.0534 10.3673 38.0977 11.0917 38.1835 11.8164C39.4541 11.9717 40.9789 12.1565 42.0758 11.3725C42.8256 10.7724 43.4653 10.0497 44.097 9.32981C44.3756 9.01569 44.6632 8.70998 44.9504 8.40376C45.2733 8.05954 45.5952 7.71502 45.9093 7.36277C45.9569 7.30985 46.0045 7.25694 46.0536 7.20242C46.1814 7.06017 46.3082 6.91712 46.435 6.77402C46.8251 6.40555 47.2151 6.20812 47.7539 6.20726C48.2158 6.22322 48.4783 6.32416 48.8281 6.64061C49.1269 7.04541 49.312 7.42697 49.4689 7.90404C49.5073 8.01771 49.5457 8.13139 49.5853 8.24851C49.9197 9.39834 50.0542 10.4974 50.0427 11.6943C50.0423 11.7623 50.042 11.8303 50.0416 11.9004C50.0187 14.9321 48.9156 17.5927 46.875 19.8242C46.805 19.9023 46.735 19.9803 46.6629 20.0607C45.619 21.1674 44.3482 21.9439 42.9687 22.5586C42.8142 22.6292 42.8142 22.6292 42.6567 22.7012C41.229 23.3037 39.7775 23.4731 38.2385 23.4863C38.119 23.4881 37.9995 23.4899 37.8763 23.4918C37.1083 23.4867 36.3953 23.389 35.6437 23.2389C35.5495 23.2205 35.4552 23.2021 35.3581 23.1832C35.128 23.1382 34.8979 23.0927 34.6679 23.0469C36.2585 24.6397 37.8493 26.2322 39.4404 27.8244C40.1793 28.5638 40.918 29.3032 41.6565 30.0428C42.3004 30.6877 42.9445 31.3324 43.5887 31.9769C43.9297 32.3179 44.2706 32.6591 44.6112 33.0005C44.9323 33.3222 45.2536 33.6437 45.575 33.965C45.6926 34.0826 45.81 34.2002 45.9274 34.318C46.4696 34.8619 47.0098 35.4031 47.5981 35.898C48.5547 36.74 49.1516 37.8944 49.6093 39.0625C49.6538 39.1741 49.6982 39.2858 49.744 39.4008C50.3829 41.3442 50.1386 43.6373 49.2515 45.4544C48.8111 46.294 48.3131 46.9704 47.6562 47.6562C47.5718 47.7499 47.5718 47.7499 47.4857 47.8454C46.3783 49.0351 44.5231 49.9109 42.9003 50.0173C40.4722 50.0684 38.2829 49.7358 36.4257 48.0469C36.3498 47.9824 36.2739 47.9179 36.1957 47.8515C35.8592 47.5629 35.5504 47.2727 35.2636 46.9346C34.7693 46.3675 34.2335 45.8417 33.7009 45.311C33.5844 45.1944 33.4679 45.0779 33.3514 44.9614C33.0371 44.647 32.7225 44.333 32.4078 44.0191C32.0783 43.6902 31.7491 43.361 31.4198 43.0318C30.7971 42.4094 30.1742 41.7873 29.5512 41.1653C28.8415 40.4567 28.1322 39.7479 27.4228 39.039C25.9645 37.5817 24.5058 36.1247 23.0468 34.6679C23.0642 34.7547 23.0642 34.7547 23.0819 34.8432C23.1348 35.1094 23.1868 35.3758 23.2389 35.6422C23.2571 35.7331 23.2753 35.8241 23.294 35.9178C23.4491 36.7163 23.4982 37.4788 23.4863 38.2934C23.4857 38.36 23.4851 38.4265 23.4844 38.495C23.4525 41.5141 22.3428 44.1664 20.3125 46.3867C20.2425 46.4647 20.1725 46.5428 20.1004 46.6232C19.0565 47.7299 17.7857 48.5064 16.4062 49.1211C16.3032 49.1682 16.2003 49.2152 16.0942 49.2637C13.8485 50.2114 11.0336 50.3663 8.69136 49.707C8.57139 49.6738 8.45142 49.6405 8.32782 49.6063C5.25989 48.6672 2.83087 46.5847 1.27482 43.8007C0.365129 42.0581 -0.0616277 40.2639 -0.0427742 38.3056C-0.0424122 38.2377 -0.0420503 38.1697 -0.0416774 38.0996C-0.0188001 35.0679 1.08434 32.4073 3.12495 30.1758C3.19494 30.0977 3.26493 30.0197 3.33705 29.9393C4.38094 28.8326 5.65167 28.056 7.0312 27.4414C7.18566 27.3708 7.18566 27.3708 7.34324 27.2987C9.75567 26.2807 12.6378 26.258 15.1367 26.9531C15.2279 26.9987 15.2279 26.9987 15.321 27.0453C15.5475 27.1436 15.6712 27.1796 15.9179 27.1484C16.3289 26.8617 16.6554 26.5025 16.9921 26.1352C17.0871 26.0353 17.1824 25.9356 17.2779 25.8362C17.5108 25.5924 17.7405 25.3459 17.9687 25.0976C17.8351 24.8025 17.6816 24.585 17.4622 24.3474C17.3979 24.2774 17.3336 24.2075 17.2674 24.1355C17.1615 24.0219 17.1615 24.0219 17.0534 23.906C16.9416 23.7851 16.9416 23.7851 16.8274 23.6618C16.1276 22.909 15.4168 22.1665 14.7023 21.4276C14.2248 20.9334 13.7513 20.4364 13.2869 19.9299C10.8111 17.2341 8.57232 15.5391 4.84062 14.9036C4.31532 14.8118 3.93153 14.7136 3.51558 14.3555C3.36604 14.1381 3.36604 14.1381 3.26059 13.9039C3.22111 13.8178 3.18163 13.7318 3.14095 13.6431C3.10344 13.5559 3.06594 13.4687 3.02729 13.3789C2.97515 13.2597 2.97515 13.2597 2.92196 13.1382C2.81699 12.8933 2.71554 12.6472 2.61493 12.4004C2.57755 12.3097 2.54018 12.219 2.50167 12.1255C2.38147 11.8334 2.26182 11.5411 2.14228 11.2488C1.97683 10.8445 1.81127 10.4403 1.64561 10.0361C1.58463 9.88714 1.58463 9.88714 1.52242 9.7352C1.28421 9.15499 1.04041 8.5777 0.789593 8.00284C0.734116 7.87434 0.678682 7.74583 0.623296 7.61729C0.524717 7.38969 0.424563 7.16275 0.322459 6.9367C0.0387448 6.27594 -0.182484 5.60062 -4.95464e-05 4.8828C0.378127 4.24136 0.935261 3.7236 1.45907 3.20242C1.54162 3.11969 1.62417 3.03695 1.70922 2.95171C1.88273 2.77807 2.05649 2.60467 2.23048 2.4315C2.4965 2.16652 2.76146 1.90052 3.02634 1.63439C3.19559 1.46528 3.36489 1.29622 3.53427 1.12723C3.61322 1.04788 3.69217 0.968538 3.77351 0.886788C3.84783 0.813081 3.92216 0.739374 3.99873 0.663433C4.06354 0.598781 4.12835 0.534129 4.19512 0.467517C4.78737 -0.051059 5.28982 -0.110051 6.05464 -1.41934e-05ZM32.3276 5.2822C30.7353 6.77792 29.6381 8.83767 29.557 11.0451C29.5363 12.5462 29.6354 13.7888 30.249 15.1733C30.4717 15.6815 30.5961 16.1485 30.4687 16.6992C30.2184 17.1846 29.939 17.5644 29.5494 17.9487C29.4711 18.0276 29.4711 18.0276 29.3913 18.1081C29.2178 18.2828 29.0432 18.4565 28.8687 18.6301C28.7435 18.7557 28.6183 18.8814 28.4932 19.0071C28.1543 19.3473 27.8145 19.6866 27.4745 20.0257C27.1184 20.3811 26.763 20.7372 26.4075 21.0931C25.8105 21.6906 25.213 22.2875 24.615 22.884C23.9241 23.5734 23.2342 24.2638 22.5448 24.9548C21.9525 25.5485 21.3595 26.1416 20.7661 26.7343C20.4119 27.088 20.0578 27.442 19.7043 27.7965C19.372 28.1296 19.039 28.4621 18.7054 28.7939C18.5832 28.9158 18.4613 29.0378 18.3396 29.1602C18.1732 29.3273 18.0061 29.4935 17.8386 29.6595C17.7908 29.7079 17.743 29.7564 17.6938 29.8063C17.2884 30.2048 16.8475 30.5081 16.2658 30.5237C15.7377 30.5094 15.2964 30.317 14.8186 30.113C12.7183 29.2217 10.3996 29.3522 8.30879 30.1868C6.15179 31.1057 4.46692 32.8712 3.56097 35.0242C2.68444 37.3804 2.80217 39.8762 3.83944 42.1577C4.92448 44.2875 6.71157 45.7835 8.93893 46.6129C11.2915 47.3449 13.7299 47.1331 15.9179 45.9961C18.1019 44.6791 19.5854 42.8054 20.2415 40.3377C20.6783 38.499 20.5143 36.5491 19.7509 34.8266C19.5282 34.3184 19.4039 33.8514 19.5312 33.3008C19.7815 32.8153 20.0609 32.4356 20.4505 32.0513C20.5027 31.9986 20.5548 31.946 20.6086 31.8918C20.7821 31.7171 20.9567 31.5435 21.1312 31.3699C21.2564 31.2443 21.3816 31.1186 21.5067 30.9929C21.8456 30.6526 22.1854 30.3133 22.5254 29.9742C22.8815 29.6189 23.2369 29.2628 23.5924 28.9068C24.1894 28.3093 24.7869 27.7125 25.3849 27.1159C26.0758 26.4266 26.7657 25.7362 27.4551 25.0452C28.0474 24.4515 28.6404 23.8584 29.2338 23.2657C29.588 22.9119 29.9421 22.558 30.2956 22.2035C30.6279 21.8703 30.9609 21.5379 31.2945 21.206C31.4167 21.0842 31.5387 20.9621 31.6603 20.8398C31.8267 20.6727 31.9939 20.5065 32.1613 20.3405C32.2091 20.292 32.2569 20.2436 32.3062 20.1937C32.7115 19.7951 33.1524 19.4919 33.7341 19.4763C34.2622 19.4906 34.7035 19.6829 35.1813 19.887C37.1608 20.727 39.4052 20.6642 41.4062 19.9219C43.61 19.0228 45.3996 17.3713 46.3484 15.1694C46.4699 14.8687 46.5762 14.5653 46.6796 14.2578C46.7129 14.1602 46.7461 14.0627 46.7803 13.9622C47.077 12.9169 46.998 11.8181 46.9726 10.7422C46.4821 11.1524 46.025 11.5812 45.5772 12.0373C45.4437 12.172 45.3102 12.3067 45.1766 12.4414C44.969 12.6515 44.7616 12.8617 44.5544 13.0721C44.3525 13.2769 44.1501 13.4811 43.9476 13.6852C43.886 13.7481 43.8244 13.8109 43.761 13.8757C43.7027 13.9344 43.6443 13.9931 43.5842 14.0536C43.5335 14.105 43.4829 14.1563 43.4307 14.2092C42.9993 14.5824 42.6869 14.6852 42.1161 14.6863C42.0521 14.6868 41.988 14.6874 41.922 14.6879C41.7114 14.6892 41.5009 14.6883 41.2902 14.6873C41.1432 14.6875 40.9962 14.6878 40.8492 14.6882C40.5415 14.6886 40.2339 14.688 39.9262 14.6866C39.5325 14.6849 39.1388 14.6859 38.7451 14.6877C38.4416 14.6887 38.1382 14.6884 37.8347 14.6876C37.6896 14.6874 37.5444 14.6877 37.3993 14.6884C37.1962 14.6891 36.9931 14.688 36.79 14.6863C36.6169 14.686 36.6169 14.686 36.4403 14.6856C35.9893 14.6311 35.7501 14.4897 35.4701 14.1338C35.3261 13.8101 35.3124 13.5686 35.309 13.2145C35.308 13.151 35.307 13.0874 35.306 13.0219C35.3032 12.8127 35.3026 12.6035 35.3023 12.3943C35.3014 12.248 35.3004 12.1017 35.2993 11.9554C35.2976 11.6489 35.2971 11.3425 35.2972 11.0361C35.2973 10.645 35.2933 10.254 35.2882 9.8629C35.2849 9.5607 35.2844 9.25853 35.2845 8.9563C35.2842 8.81221 35.2829 8.66812 35.2806 8.52404C35.2611 7.16067 35.2611 7.16067 35.7609 6.61564C35.8483 6.53132 35.8483 6.53132 35.9375 6.4453C36.027 6.35019 36.027 6.35019 36.1185 6.25315C36.3153 6.04646 36.5172 5.84603 36.721 5.64612C36.7939 5.57376 36.8667 5.5014 36.9418 5.42684C37.1721 5.19823 37.4031 4.97028 37.6342 4.74242C37.8673 4.51202 38.1003 4.28149 38.3329 4.05067C38.4772 3.90759 38.6217 3.76478 38.7666 3.62224C38.8311 3.5583 38.8957 3.49435 38.9623 3.42847C39.0481 3.34385 39.0481 3.34385 39.1357 3.25752C39.2688 3.14305 39.2688 3.14305 39.2578 3.02733C36.7379 2.6166 34.1874 3.60485 32.3276 5.2822ZM5.19557 3.83376C5.14156 3.88656 5.08755 3.93936 5.03191 3.99376C4.91792 4.10583 4.80433 4.21833 4.69112 4.33119C4.51752 4.50342 4.34149 4.67287 4.16522 4.84236C4.05481 4.95156 3.94456 5.06091 3.83448 5.17043C3.7815 5.2208 3.72851 5.27118 3.67392 5.32309C3.43579 5.56566 3.32071 5.69854 3.31826 6.04471C3.43618 6.40315 3.56844 6.75179 3.71699 7.09837C3.74696 7.16984 3.77693 7.24131 3.8078 7.31494C3.93835 7.62569 4.07068 7.93567 4.20315 8.2456C4.30493 8.48374 4.40646 8.72199 4.50778 8.96033C4.54098 9.03834 4.57418 9.11635 4.60839 9.19673C4.79707 9.64477 4.96767 10.0937 5.12042 10.5556C5.40306 11.5361 5.40306 11.5361 6.09011 12.2288C6.41621 12.3544 6.74521 12.4093 7.08999 12.4585C7.54306 12.5388 7.97803 12.6929 8.4167 12.8296C8.58858 12.8826 8.76086 12.9343 8.93359 12.9845C9.04371 13.0174 9.04371 13.0174 9.15606 13.051C9.49538 13.1052 9.76242 13.0597 10.045 12.8594C10.1296 12.7774 10.1296 12.7774 10.216 12.6937C10.2808 12.6318 10.3456 12.5698 10.4124 12.5059C10.4807 12.4384 10.549 12.3708 10.6193 12.3012C10.6904 12.2317 10.7614 12.1622 10.8347 12.0905C10.9844 11.9432 11.1336 11.7953 11.2823 11.6469C11.5102 11.4206 11.7413 11.1978 11.9728 10.9751C12.1179 10.8314 12.2629 10.6875 12.4076 10.5434C12.4771 10.4773 12.5466 10.4111 12.6181 10.343C12.9601 10.0074 12.9601 10.0074 13.1124 9.56903C13.0906 9.36409 13.0473 9.18168 12.9882 8.98436C12.9451 8.8052 12.9451 8.8052 12.9011 8.62242C12.7623 8.13495 12.7623 8.13495 12.6214 7.6481C12.5607 7.43929 12.5017 7.23005 12.4427 7.02075C12.4042 6.88727 12.3655 6.75381 12.3268 6.62039C12.2921 6.50007 12.2574 6.37975 12.2217 6.25578C12.0519 5.80439 11.9239 5.71403 11.4855 5.51027C11.3483 5.45471 11.2107 5.39998 11.0729 5.3459C10.9988 5.31614 10.9247 5.28638 10.8484 5.25571C10.6078 5.15918 10.3668 5.0637 10.1257 4.96825C9.96094 4.90244 9.79622 4.83657 9.63154 4.77062C9.38558 4.67215 9.13959 4.57373 8.89349 4.47562C8.42639 4.28931 7.96061 4.10033 7.49621 3.90738C7.39699 3.86617 7.29777 3.82496 7.19554 3.7825C7.01723 3.70817 6.83906 3.63352 6.66106 3.55848C6.58355 3.52633 6.50604 3.49418 6.42619 3.46106C6.36071 3.43356 6.29524 3.40606 6.22778 3.37773C5.73116 3.21299 5.52378 3.50952 5.19557 3.83376ZM14.5087 12.6175C14.4101 12.7162 14.312 12.8154 14.2143 12.915C14.1625 12.967 14.1108 13.0191 14.0575 13.0727C13.8918 13.2394 13.7269 13.4068 13.562 13.5742C13.45 13.6872 13.338 13.8001 13.2259 13.9129C12.9508 14.1902 12.6764 14.468 12.4023 14.7461C12.5344 15.0409 12.6819 15.2452 12.9103 15.4729C13.0068 15.5698 13.0068 15.5698 13.1053 15.6687C13.1758 15.7385 13.2464 15.8083 13.319 15.8803C13.3933 15.9546 13.4677 16.029 13.5442 16.1056C13.79 16.3512 14.0365 16.5962 14.2829 16.8411C14.4535 17.0113 14.624 17.1815 14.7944 17.3518C15.2432 17.7998 15.6926 18.2472 16.1421 18.6946C16.6006 19.1511 17.0586 19.6082 17.5167 20.0653C18.4155 20.962 19.3149 21.8582 20.2148 22.7539C20.5871 22.5805 20.8235 22.3629 21.1135 22.0695C21.1607 22.0221 21.2078 21.9747 21.2564 21.9259C21.4061 21.7751 21.5551 21.6236 21.7041 21.4722C21.8057 21.3695 21.9075 21.2669 22.0092 21.1643C22.258 20.9134 22.5061 20.6619 22.7539 20.4101C22.6218 20.1159 22.4746 19.9111 22.2472 19.6834C22.1831 19.6187 22.119 19.5541 22.053 19.4875C21.9828 19.4177 21.9126 19.3479 21.8402 19.2759C21.7662 19.2016 21.6922 19.1272 21.616 19.0506C21.3712 18.805 21.1256 18.56 20.8801 18.3151C20.71 18.1449 20.54 17.9747 20.37 17.8044C20.0137 17.4479 19.657 17.0916 19.3001 16.7356C18.8417 16.2783 18.3841 15.8201 17.9268 15.3616C17.5759 15.01 17.2246 14.659 16.8732 14.308C16.7042 14.1392 16.5354 13.9702 16.3667 13.8011C16.1315 13.5654 15.8957 13.3303 15.6597 13.0954C15.5894 13.0248 15.5192 12.9541 15.4469 12.8814C15.3828 12.8179 15.3187 12.7543 15.2527 12.6889C15.197 12.6332 15.1412 12.5775 15.0838 12.5202C14.8224 12.3039 14.7531 12.3959 14.5087 12.6175ZM31.7997 25.0121C31.748 25.064 31.6964 25.1158 31.6431 25.1693C31.5837 25.2284 31.5243 25.2876 31.463 25.3485C31.3655 25.4472 31.3655 25.4472 31.2659 25.5478C31.1973 25.6164 31.1287 25.6849 31.058 25.7556C30.8303 25.9834 30.6034 26.2119 30.3764 26.4404C30.2191 26.5981 30.0617 26.7557 29.9043 26.9133C29.4893 27.329 29.075 27.7453 28.6607 28.1617C28.2382 28.5862 27.8152 29.0102 27.3921 29.4342C26.5617 30.2668 25.7318 31.1 24.9023 31.9336C25.0776 32.3124 25.3028 32.5458 25.6042 32.8369C25.9044 33.1275 26.1906 33.4169 26.4608 33.7354C26.9469 34.2932 27.4722 34.8117 27.9948 35.3348C28.109 35.4494 28.2231 35.564 28.3372 35.6787C28.6453 35.988 28.9537 36.297 29.2621 36.6059C29.4552 36.7993 29.6483 36.9928 29.8413 37.1862C30.4464 37.7927 31.0517 38.3989 31.6573 39.0048C32.3543 39.7023 33.0507 40.4004 33.7465 41.0991C34.286 41.6407 34.8261 42.1817 35.3665 42.7223C35.6887 43.0446 36.0106 43.367 36.3319 43.6901C36.6341 43.9939 36.937 44.297 37.2404 44.5995C37.3511 44.7102 37.4616 44.8211 37.5719 44.9323C38.8429 46.214 40.0472 46.9727 41.8945 47.0703C43.4637 46.9836 44.6996 46.3674 45.7824 45.2392C46.6295 44.2526 47.0121 43.1432 47.0031 41.8579C47.0026 41.7761 47.0022 41.6943 47.0017 41.61C46.9903 41.0108 46.9228 40.4942 46.6796 39.9414C46.6349 39.8256 46.6349 39.8256 46.5892 39.7075C46.3709 39.2034 46.0828 38.8237 45.7095 38.4219C45.6623 38.3712 45.6152 38.3204 45.5666 38.2681C45.0369 37.7012 44.4899 37.1519 43.9408 36.604C43.8274 36.4904 43.714 36.3769 43.6007 36.2633C43.2964 35.9587 42.9919 35.6543 42.6873 35.35C42.3668 35.0297 42.0465 34.7092 41.7262 34.3887C41.1889 33.8513 40.6515 33.3141 40.1139 32.777C39.4941 32.1577 38.8746 31.538 38.2552 30.9181C37.7211 30.3836 37.1868 29.8492 36.6523 29.315C36.3341 28.9969 36.016 28.6788 35.698 28.3605C35.3993 28.0615 35.1004 27.7628 34.8013 27.4642C34.6921 27.3552 34.5829 27.246 34.4739 27.1368C33.9561 26.618 33.4379 26.1046 32.8779 25.631C32.7045 25.4792 32.5453 25.3183 32.3852 25.1526C32.1074 24.8524 32.1074 24.8524 31.7997 25.0121Z" fill="white"/>
<path d="M12.6373 32.2687C12.9978 32.4638 13.344 32.6728 13.6902 32.8918C13.815 32.9684 13.9399 33.0447 14.0649 33.1208C14.3692 33.307 14.6715 33.4961 14.9732 33.6864C15.2074 33.8334 15.4436 33.9772 15.6796 34.1213C15.8284 34.2137 15.977 34.3064 16.1255 34.3994C16.1912 34.44 16.257 34.4807 16.3247 34.5226C16.6908 34.7594 16.8985 34.9611 17.0899 35.3516C17.1277 35.6288 17.1277 35.6288 17.1293 35.9356C17.1306 36.0509 17.1318 36.1663 17.1331 36.2852C17.1328 36.409 17.1325 36.5328 17.1322 36.6604C17.1327 36.7884 17.1332 36.9163 17.1338 37.0482C17.1346 37.3187 17.1344 37.5891 17.1334 37.8596C17.1323 38.2052 17.1343 38.5506 17.1371 38.8962C17.1393 39.2272 17.1387 39.5581 17.1383 39.8891C17.1394 40.0127 17.1405 40.1364 17.1416 40.2637C17.133 41.3515 17.133 41.3515 16.6992 41.7969C16.4302 42.0003 16.4302 42.0003 16.1213 42.1829C16.0378 42.2331 16.0378 42.2331 15.9526 42.2842C15.773 42.3916 15.5923 42.4972 15.4114 42.6025C15.2869 42.676 15.1624 42.7496 15.0379 42.8232C14.8524 42.9329 14.6667 43.0425 14.4807 43.1515C14.1343 43.3547 13.7933 43.5639 13.4564 43.7824C13.3839 43.8284 13.3115 43.8744 13.2369 43.9218C13.1098 44.0028 12.9837 44.0856 12.8593 44.1707C12.3134 44.5102 11.7591 44.5518 11.1328 44.4336C10.64 44.2264 10.1974 43.9554 9.74733 43.6706C9.62253 43.5941 9.49761 43.5178 9.37258 43.4417C9.0683 43.2555 8.76603 43.0663 8.46432 42.8761C8.23011 42.7291 7.99397 42.5853 7.75796 42.4412C7.60915 42.3487 7.46049 42.2561 7.31203 42.1631C7.21342 42.1021 7.21342 42.1021 7.11283 42.0399C6.74671 41.8031 6.53907 41.6014 6.34767 41.2109C6.30981 40.9337 6.30981 40.9337 6.30821 40.6269C6.30697 40.5115 6.30573 40.3962 6.30446 40.2773C6.30474 40.1535 6.30503 40.0297 6.30533 39.9021C6.30481 39.7741 6.3043 39.6462 6.30378 39.5143C6.3029 39.2438 6.30314 38.9734 6.30411 38.7029C6.30523 38.3573 6.30326 38.0118 6.30041 37.6663C6.29818 37.3353 6.29886 37.0043 6.29922 36.6733C6.29813 36.5497 6.29703 36.4261 6.2959 36.2988C6.30451 35.2109 6.30451 35.2109 6.73829 34.7656C7.0073 34.5622 7.0073 34.5622 7.31622 34.3796C7.37189 34.3461 7.42756 34.3127 7.48492 34.2783C7.66458 34.1708 7.84526 34.0653 8.02614 33.96C8.15067 33.8865 8.27516 33.8129 8.3996 33.7393C8.58516 33.6296 8.77081 33.52 8.95681 33.411C9.30318 33.2078 9.64424 32.9986 9.98117 32.7801C10.0536 32.7341 10.126 32.6881 10.2006 32.6407C10.3278 32.5597 10.4538 32.4769 10.5782 32.3918C11.2286 31.9873 11.937 31.9743 12.6373 32.2687ZM9.50138 36.5495C8.98485 37.1649 8.98682 37.8992 9.00656 38.6706C9.08781 39.3573 9.23311 39.788 9.76564 40.2431C10.7174 40.8989 10.7174 40.8989 11.8191 41.0876C12.696 40.8701 13.591 40.4679 14.1602 39.7461C14.5281 38.8311 14.5389 37.729 14.1602 36.8164C13.595 36.1393 12.7475 35.7121 11.9141 35.4492C11.0337 35.4492 10.162 35.9971 9.50138 36.5495Z" fill="white"/>
<path d="M41.9922 39.9413C42.432 40.1496 42.6743 40.3748 42.8711 40.8202C42.9949 41.3345 42.9734 41.6966 42.7734 42.1874C42.4748 42.5319 42.196 42.8457 41.7278 42.9038C40.6944 42.9168 40.6944 42.9168 40.2343 42.4804C39.8545 41.949 39.8642 41.4532 39.9414 40.8202C40.3672 39.9212 41.0792 39.83 41.9922 39.9413Z" fill="white"/>
</g>
<defs>
<clipPath id="clip0_18638_75713">
<rect width="50" height="50" fill="white"/>
</clipPath>
</defs>
</svg>
