<svg width="126" height="45" viewBox="0 0 126 45" fill="none" xmlns="http://www.w3.org/2000/svg">
<g clip-path="url(#clip0_18638_75967)">
<path d="M126 9.87183V40.0504L121.866 44.1272V14.595L126 9.87183Z" fill="#E79225"/>
<path d="M98.9051 9.89668L94.623 14.595L94.8445 14.8933L121.693 14.7939L121.939 14.595L126 9.87183L98.9051 9.89668Z" fill="#FFF16D"/>
<path d="M94.623 14.595H121.939V44.152H94.623V14.595Z" fill="url(#paint0_linear_18638_75967)"/>
<path d="M117.78 25.2344C117.239 23.8671 116.427 22.6242 115.369 21.5553C114.36 20.5112 113.228 19.7157 111.948 19.1937C110.693 18.6716 109.339 18.3982 107.863 18.3982C106.386 18.3982 105.008 18.6716 103.753 19.1937C102.473 19.7157 101.341 20.5112 100.332 21.5553C99.2741 22.6242 98.4866 23.8671 97.9452 25.2344C97.4038 26.6016 97.1577 28.0931 97.1577 29.7338C97.1577 31.3247 97.4284 32.8163 97.9698 34.2084C98.5112 35.6005 99.2987 36.8434 100.357 37.9372C101.341 38.9564 102.473 39.727 103.728 40.249C104.983 40.7711 106.386 41.0445 107.887 41.0445C109.339 41.0445 110.693 40.7711 111.948 40.249C113.203 39.727 114.36 38.9564 115.369 37.9372C116.427 36.8434 117.239 35.6005 117.78 34.2332C118.322 32.866 118.592 31.3496 118.592 29.7586C118.592 28.0931 118.322 26.6016 117.78 25.2344ZM112.145 34.979C111.087 36.2468 109.684 36.8931 107.863 36.8931C106.042 36.8931 104.614 36.2468 103.556 34.979C102.498 33.7112 101.981 31.9462 101.981 29.7089C101.981 27.4219 102.523 25.6569 103.556 24.3643C104.614 23.0716 106.017 22.4502 107.863 22.4502C109.684 22.4502 111.087 23.0965 112.145 24.3643C113.178 25.6569 113.72 27.4219 113.72 29.7089C113.72 31.9462 113.203 33.7112 112.145 34.979Z" fill="white"/>
<path d="M91.9405 7.41064V7.5598L95.4351 34.6807L93.3925 40.3982L93.1218 40.1993L89.5288 14.1971L89.6026 13.8491L91.8421 7.5598L91.9405 7.41064Z" fill="#009ADA"/>
<path d="M65.0428 11.1892L91.9408 7.41064L89.6768 13.9236L89.3568 14.2717L64.2061 18.0005L64.3291 13.3519L65.0428 11.1892Z" fill="#91C9ED"/>
<path d="M89.6765 13.9238L93.3925 40.3984L66.8882 44.1521L63.3198 18.5724L64.8702 17.3543L89.6765 13.9238Z" fill="url(#paint1_linear_18638_75967)"/>
<path d="M85.1729 18.9949C85.0498 18.1745 84.7791 17.5531 84.3361 17.1305C83.967 16.8073 83.524 16.6333 83.0072 16.6333C82.8842 16.6333 82.7365 16.6333 82.5889 16.6582C81.8998 16.7576 81.383 17.0808 81.0631 17.6028C80.817 17.9757 80.7186 18.448 80.7186 18.9949C80.7186 19.1938 80.7432 19.4175 80.7678 19.6412L81.7275 26.5271L74.0986 27.6706L73.1389 20.7847C73.0158 19.9892 72.7451 19.3678 72.3021 18.9452C71.933 18.5971 71.49 18.4231 70.9978 18.4231C70.8748 18.4231 70.7518 18.4231 70.6287 18.448C69.915 18.5474 69.3736 18.8706 69.0291 19.3926C68.783 19.7655 68.6846 20.2378 68.6846 20.7847C68.6846 20.9836 68.7092 21.2073 68.7338 21.4559L71.3424 39.3791C71.4654 40.1994 71.7361 40.8209 72.2283 41.2435C72.5975 41.5666 73.0404 41.7158 73.5818 41.7158C73.7295 41.7158 73.8771 41.7158 74.0248 41.6909C74.6893 41.5915 75.1814 41.2683 75.5014 40.7463C75.7228 40.3734 75.8213 39.926 75.8213 39.4039C75.8213 39.2051 75.7967 38.9813 75.7721 38.7576L74.7139 31.6728L82.3428 30.5293L83.401 37.6141C83.524 38.4344 83.7947 39.0559 84.2623 39.4536C84.6314 39.7768 85.0744 39.9508 85.5912 39.9508C85.7143 39.9508 85.8619 39.9508 86.0096 39.926C86.6986 39.8265 87.2154 39.5034 87.5354 38.9813C87.7568 38.6084 87.8799 38.161 87.8799 37.6141C87.8799 37.4152 87.8553 37.1915 87.8307 36.9678L85.1729 18.9949Z" fill="white"/>
<path d="M39.867 0.5L30.2939 23.4695L31.5982 33.5621L31.6721 33.5373L42.4264 9.10113L42.3771 8.5791L40.0639 0.823164L39.867 0.5Z" fill="#66BF6B"/>
<path d="M39.8672 0.5L42.3527 8.92712L42.402 9.10113L66.0762 19.8153L66.15 19.7655L64.132 11.7113L39.8672 0.5Z" fill="#98D0A0"/>
<path d="M42.3529 8.927L66.1502 19.7654L55.3959 44.4005L31.5986 33.562L42.3529 8.927Z" fill="url(#paint2_linear_18638_75967)"/>
<path d="M58.9395 21.7542C58.4227 20.3621 57.709 19.1689 56.7738 18.1746C55.8387 17.1802 54.7066 16.3847 53.3777 15.813C52.0488 15.2412 50.7199 14.9678 49.3664 14.9678H49.2926C47.9145 14.9678 46.5609 15.2909 45.232 15.8875C43.8293 16.509 42.6234 17.3542 41.5898 18.4729C40.5563 19.5666 39.7195 20.909 39.0797 22.4503C38.4398 23.9666 38.0953 25.5079 38.0215 27.0243V27.5463C38.0215 28.8887 38.243 30.2062 38.7105 31.4988C39.2027 32.8661 39.9164 34.0344 40.8516 35.0288C41.7867 36.0231 42.9434 36.8186 44.3215 37.3904C45.6258 37.9621 46.9547 38.2356 48.3082 38.2356H48.3328C49.6863 38.2356 51.0398 37.9373 52.3688 37.3655C53.7715 36.744 55.002 35.874 56.0355 34.7553C57.0691 33.6616 57.9305 32.344 58.5703 30.8028C59.2102 29.2616 59.5547 27.7452 59.6285 26.2288V25.7813C59.6531 24.4141 59.4316 23.0717 58.9395 21.7542ZM54.1898 28.9135C53.3039 31.0514 52.098 32.5181 50.6461 33.3135C49.8586 33.7361 49.0465 33.9599 48.2344 33.9599C47.5207 33.9599 46.7578 33.7859 45.9949 33.4627C44.3215 32.7418 43.2879 31.5983 42.8449 29.9576C42.6973 29.4107 42.6234 28.839 42.6234 28.2423C42.6234 27.0491 42.9188 25.7316 43.5094 24.3147C44.4199 22.1271 45.6258 20.6356 47.0777 19.8152C47.8652 19.3678 48.6773 19.1689 49.4895 19.1689C50.2277 19.1689 50.966 19.3429 51.7535 19.6661C53.4023 20.387 54.4359 21.5305 54.8789 23.1712C55.0266 23.6932 55.1004 24.2649 55.1004 24.8616C55.1004 26.1045 54.8051 27.4469 54.1898 28.9135Z" fill="white"/>
<path d="M28.399 4.40283L32.2873 30.7034L30.5154 39.9509L30.2693 39.6277L26.4795 14.222V13.7249L28.1529 4.85029L28.399 4.40283Z" fill="#760D16"/>
<path d="M0 18.0006L1.8457 8.7034L28.3992 4.40283L26.6027 13.874V14.4955L0.319922 18.2492L0 18.0006Z" fill="#EF463E"/>
<path d="M26.6027 13.874L30.5156 39.9509L4.23281 44.1023L0 18.0006L26.6027 13.874Z" fill="url(#paint3_linear_18638_75967)"/>
<path d="M23.7727 35.7995C23.5758 35.5509 23.2805 35.3769 22.9359 35.2526C22.5914 35.1283 22.173 35.0786 21.6562 35.0786C21.1887 35.0786 20.6473 35.1283 20.0566 35.2277L13.1168 36.421C13.1906 35.8741 13.4613 35.178 13.9289 34.308C14.4457 33.3385 15.2332 32.1701 16.2422 30.8277C16.5867 30.3554 16.8574 30.0074 17.0543 29.7588C17.1773 29.5848 17.3742 29.3611 17.6203 29.0379C19.2199 26.9249 20.1797 25.2097 20.5734 23.8673C20.7949 23.0967 20.918 22.3261 20.9672 21.5554C20.9918 21.3317 20.9918 21.1328 20.9918 20.934C20.9918 20.3871 20.9426 19.8402 20.8441 19.2933C20.7703 18.7961 20.6473 18.3984 20.475 18.0752C20.3027 17.752 20.1059 17.5035 19.8598 17.3543C19.5891 17.1803 19.1707 17.1057 18.6539 17.1057C18.2355 17.1057 17.7188 17.1554 17.1035 17.2549L9.08086 18.647C8.12109 18.821 7.38281 19.0944 6.93984 19.5419C6.5707 19.8899 6.39844 20.3374 6.39844 20.8345C6.39844 20.9588 6.39844 21.108 6.42305 21.2571C6.54609 21.9532 6.89062 22.4503 7.45664 22.6989C7.80117 22.8481 8.19492 22.9227 8.68711 22.9227C9.00703 22.9227 9.37617 22.8978 9.76992 22.8232L16.4637 21.63C16.4637 21.7543 16.4883 21.8786 16.4883 21.978C16.4883 22.4006 16.4145 22.8232 16.2668 23.221C16.0699 23.7927 15.5777 24.5882 14.7656 25.6074C14.5441 25.8809 14.1996 26.3283 13.732 26.9001C11.9109 29.1125 10.6312 31.0018 9.84375 32.5679C9.27773 33.6616 8.90859 34.7057 8.68711 35.7746C8.56406 36.3961 8.49023 36.9679 8.49023 37.5396C8.49023 37.9373 8.51484 38.3351 8.58867 38.708C8.68711 39.2549 8.81016 39.7023 8.98242 40.0503C9.15469 40.3984 9.40078 40.6718 9.67148 40.821C9.94219 40.9701 10.3113 41.0198 10.8527 41.0198C11.5172 41.0198 12.4277 40.9204 13.5844 40.7215L20.8688 39.4537C22.1484 39.23 23.059 38.9068 23.5758 38.4842C23.9941 38.1362 24.2156 37.6639 24.2156 37.117C24.2156 36.9679 24.191 36.8187 24.1664 36.6696C24.1172 36.3464 23.9941 36.0481 23.7727 35.7995Z" fill="white"/>
</g>
<defs>
<linearGradient id="paint0_linear_18638_75967" x1="1460.33" y1="56.8911" x2="1460.33" y2="2881.07" gradientUnits="userSpaceOnUse">
<stop offset="0.00562" stop-color="#FFE513"/>
<stop offset="1" stop-color="#FDB924"/>
</linearGradient>
<linearGradient id="paint1_linear_18638_75967" x1="199.008" y1="421.824" x2="2951.58" y2="2631.83" gradientUnits="userSpaceOnUse">
<stop offset="0.00562" stop-color="#008CD2"/>
<stop offset="1" stop-color="#00649D"/>
</linearGradient>
<linearGradient id="paint2_linear_18638_75967" x1="1759.25" y1="994.344" x2="1759.25" y2="3468.62" gradientUnits="userSpaceOnUse">
<stop stop-color="#26A146"/>
<stop offset="1" stop-color="#008A52"/>
</linearGradient>
<linearGradient id="paint3_linear_18638_75967" x1="1334.57" y1="261.987" x2="1748.29" y2="2832.33" gradientUnits="userSpaceOnUse">
<stop stop-color="#D92231"/>
<stop offset="1" stop-color="#BA2234"/>
</linearGradient>
<clipPath id="clip0_18638_75967">
<rect width="126" height="44" fill="white" transform="translate(0 0.5)"/>
</clipPath>
</defs>
</svg>
